<svg enable-background="new 0 0 512 512" viewBox="0 0 512 512" xmlns="http://www.w3.org/2000/svg"><path d="m90.59 6.4h330.72c50.19 0 90.64 40.56 90.64 90.64v317.91c0 50.19-40.56 90.64-90.64 90.64h-330.72c-50.19 0-90.64-40.56-90.64-90.64v-317.91c0-50.18 40.56-90.64 90.64-90.64z" fill="#470137"/><g fill="#ff61f6"><path d="m269.21 137.6-64.01 105.6 68.31 112.05c.41.82.61 1.74.41 2.56s-1.02.2-2.36.41h-48.85c-3.38 0-5.74-.2-7.27-2.36-4.51-9.01-9.22-17.72-13.62-26.63-4.51-8.71-9.42-17.72-14.54-26.94s-10.24-18.33-15.36-27.76h-.41c-4.51 9.22-9.42 18.33-14.34 27.55s-9.83 18.33-14.54 27.35c-4.92 9.01-9.83 18.13-14.75 26.94-.82 2.15-2.56 2.36-4.92 2.36h-46.81c-.82 0-1.54.41-1.54-.61-.2-.82 0-1.74.41-2.36l66.37-108.98-64.62-109.38c-.61-.82-.82-1.74-.41-2.15.41-.61 1.33-.82 2.15-.82h48.44c1.02 0 2.15.2 2.97.41.82.41 1.54 1.02 2.15 1.95 4.1 9.22 8.71 18.33 13.62 27.55 5.12 9.22 10.04 18.13 15.36 27.14 5.12 8.91 9.83 17.92 14.34 27.14h.41c4.51-9.42 9.22-18.54 13.83-27.55 4.71-8.91 9.63-17.92 14.54-26.94 4.92-8.91 9.63-18.13 14.34-26.83.2-.82.61-1.74 1.33-2.15.82-.41 1.74-.61 2.77-.41h45.07c1.02-.2 2.15.41 2.36 1.54.1-.01-.42.91-.83 1.32z"/><path d="m367.84 362.72c-15.77.2-31.55-2.97-45.88-9.63-13.42-6.15-24.58-16.39-32.26-28.98-7.89-13.01-11.78-29.19-11.78-48.65-.2-15.77 3.89-31.34 11.78-45.07 8.09-13.83 19.87-25.4 33.9-33.08 14.95-8.3 32.88-12.39 53.98-12.39 1.02 0 2.56 0 4.51.2s4.1.2 6.66.41v-67.39c0-1.54.61-2.36 2.15-2.36h43.32c1.02-.2 1.95.61 2.15 1.54v.41 203.1c0 3.89.2 8.09.41 12.8.41 4.51.61 8.71.82 12.39 0 1.54-.61 2.77-2.15 3.38-11.06 4.71-22.84 8.09-34.82 10.24-10.87 1.96-21.72 3.08-32.79 3.08zm20.9-42.71v-93.92c-1.95-.41-3.89-.82-5.74-1.02-2.36-.2-4.71-.41-7.07-.41-8.3 0-16.69 1.74-24.07 5.53-7.27 3.58-13.42 8.91-18.13 15.77s-7.07 15.98-7.07 27.14c-.2 7.48 1.02 14.95 3.58 22.02 2.15 5.74 5.33 10.86 9.63 15.16 4.1 3.89 9.01 6.86 14.54 8.5 5.74 1.95 11.78 2.77 17.72 2.77 3.18 0 6.15-.2 9.01-.41 2.68.2 5.04-.31 7.6-1.13z"/></g></svg>