<svg enable-background="new 0 0 512 512" viewBox="0 0 512 512" xmlns="http://www.w3.org/2000/svg"><path d="m0 446c0 36.5 29.6 66 66 66h380c36.5 0 66-29.6 66-66v-380c0-36.5-29.6-66-66-66h-380c-36.4 0-66 29.6-66 66z" fill="#563d7c"/><path d="m212.3 226.5v-72.5h63.8c6.1 0 11.9.5 17.6 1.5 5.6 1 10.6 2.8 15 5.4 4.3 2.6 7.8 6.2 10.4 10.9 2.6 4.6 3.9 10.6 3.9 17.8 0 13-3.9 22.4-11.7 28.2s-17.8 8.7-30 8.7zm-68.2-125.5v310h150.2c13.9 0 27.4-1.7 40.6-5.2s24.9-8.8 35.2-16.1c10.3-7.2 18.5-16.6 24.5-28s9.1-25 9.1-40.6c0-19.4-4.7-36-14.1-49.7s-23.6-23.4-42.7-28.9c13.9-6.7 24.4-15.2 31.5-25.6s10.6-23.4 10.6-39.1c0-14.5-2.4-26.6-7.2-36.5-4.8-9.8-11.5-17.7-20.2-23.7s-19.1-10.2-31.3-12.8-25.6-3.9-40.4-3.9h-145.8zm68.2 257v-85.1h74.2c14.8 0 26.6 3.4 35.6 10.2s13.5 18.2 13.5 34.1c0 8.1-1.4 14.8-4.1 20-2.8 5.2-6.4 9.3-11.1 12.4-4.6 3-10 5.2-16.1 6.5s-12.4 2-19.1 2h-72.9z" fill="#fff"/></svg>