<svg enable-background="new 0 0 512 512" viewBox="0 0 512 512" xmlns="http://www.w3.org/2000/svg"><path d="m483.72 150.49c0-8.56-1.82-16.27-5.61-22.72-3.65-6.45-9.12-11.78-16.41-15.99-60.58-34.93-121.31-69.85-181.9-104.77-16.41-9.4-32.12-9.12-48.39.42-24.12 14.17-145.01 83.45-180.91 104.35-14.87 8.56-22.02 21.74-22.02 38.85v210.93c0 8.41 1.82 15.85 5.33 22.3 3.65 6.59 9.26 12.2 16.69 16.55 36.04 20.9 156.8 90.04 180.92 104.34 16.27 9.54 32.12 9.96 48.39.42 60.59-35.06 121.31-69.84 181.9-104.77 7.57-4.35 13.04-9.82 16.69-16.55 3.51-6.45 5.33-13.88 5.33-22.3-.01-.13-.01-140.8-.01-211.06" fill="#5c8dbc"/><path d="m256.66 255.25-223.13 128.47c3.65 6.59 9.26 12.2 16.69 16.55 36.04 20.9 156.8 90.04 180.92 104.34 16.27 9.54 32.12 9.96 48.39.42 60.59-35.06 121.31-69.84 181.9-104.77 7.57-4.35 13.04-9.82 16.69-16.55z" fill="#1a4674"/><path d="m190.6 293.26c13.04 22.72 37.45 38.01 65.36 38.01 28.19 0 52.73-15.43 65.64-38.43l-64.93-37.59z" fill="#1a4674"/><path d="m483.72 150.49c0-8.56-1.82-16.27-5.61-22.72l-221.45 127.48 221.73 128.47c3.51-6.45 5.33-13.88 5.33-22.3 0 0 0-140.67 0-210.93" fill="#1b598e"/><g fill="#fff"><path d="m471.52 264.51h-17.39v17.25h-17.25v-17.25h-17.39v-17.39h17.39v-17.25h17.25v17.25h17.39z"/><path d="m408.27 264.51h-17.39v17.25h-17.25v-17.25h-17.39v-17.39h17.39v-17.25h17.25v17.25h17.39z"/><path d="m321.6 292.84c-12.9 22.86-37.45 38.43-65.64 38.43-28.05 0-52.45-15.29-65.36-38.01-6.31-11.08-9.96-23.7-9.96-37.31 0-41.65 33.66-75.31 75.31-75.31 27.77 0 52.03 15.15 65.08 37.59l65.78-37.87c-26.23-45.16-75.03-75.59-130.99-75.59-83.59 0-151.19 67.74-151.19 151.19 0 27.35 7.29 53.15 20.06 75.31 26.09 45.3 75.17 75.87 131.27 75.87 56.24 0 105.33-30.71 131.41-76.3z"/></g></svg>