<svg enable-background="new 0 0 512 512" viewBox="0 0 512 512" xmlns="http://www.w3.org/2000/svg"><path d="m107.66 470.9-32.99-370.35h362.66l-32.99 370.21-148.62 41.24z" fill="#1f72b5"/><path d="m256 480.57 120.04-33.28 28.3-316.45h-148.34z" fill="#51a3dc"/><path d="m138.1 216.32-4.41-42.81h244.62l-2.84 49.64-103.4 45.65h99.13l-10.67 140.8-99.98 26.88-103.68-25.17-6.4-71.4h45.8l2.56 37.69 60.01 11.24 55.47-17.07 2.56-60.3h-170.38l-3.13-44.8 112.64-49.35z" fill="#ebebeb"/><g fill="#cecece"><path d="m143.36 266.67 3.13 44.8h109.51v-94.15z"/><path d="m198.83 377.6-2.56-37.69h-45.8l6.4 71.4 99.13 24.03v-47.07z"/><path d="m133.69 173.51 4.41 42.81 117.9 1v-43.81z"/></g><path d="m290.13 17.07v-17.07h-68.26v39.82h46.93v12.8h-48.36v15.65h68.27v-41.25h-48.35v-9.95z"/><path d="m166.4 40.25v12.37h48.36v15.65h-68.27v-40.82-27.45h66.84v17.07h-46.93z"/><path d="m365.51 17.07v-17.07h-68.27v39.82h46.94v12.8h-48.36v15.65h68.27v-41.25h-48.36v-9.95z"/></svg>