<svg enable-background="new 0 0 512 512" viewBox="0 0 512 512" xmlns="http://www.w3.org/2000/svg"><path d="m141.1 139.4-33.1-33.1.1 239.2.4 11.2c.2 5.3 1.1 11.2 2.8 17.3l262.2 92.5 65.5-29v-.1z" fill="#00d2b8"/><path d="m111.3 374-.1-.3zm327.7 63.4-65.5 29-262.2-92.4c5 19.2 16.1 40.8 28 52.6l85.6 85.1 190.3.2z" fill="#55ddca"/><path d="m6.1 260.2c-8.5 9-4.3 27.7 9.4 41.4l58.8 59.4 37 13c-1.6-6.2-2.6-12.1-2.8-17.3l-.4-11.2-.1-239.2z" fill="#0081c6"/><path d="m375.6 109.4c-6.2-1.6-12.1-2.5-17.4-2.7l-11.8-.4h-238.4l331.1 331.1 29.1-65.6z" fill="#0079b3"/><path d="m375.3 109.3.3.1zm52.9 28.2c-12-12.1-33.3-23.1-52.6-28.1l92.5 262.4-29.1 65.6 71.1-22.7.2-194.8z" fill="#00a4e4"/><path d="m362.7 72.6-59.3-58.9c-13.7-13.6-32.4-17.8-41.4-9.3l-154 101.9h238.4l11.8.4c5.3.2 11.2 1.1 17.4 2.7z" fill="#00d2b8"/></svg>