<svg enable-background="new 0 0 512 512" viewBox="0 0 512 512" xmlns="http://www.w3.org/2000/svg"><path d="m28.19 254.03c-.14 16.96 12.34 27.06 32.11 22.43v-44.87c-20.05-6.03-31.97 6.31-32.11 22.44m32.67-87.21h27.2v128.99c-26.08 4.21-51.17 7.01-69.12-3.08-22.99-12.9-24.96-53.84-6.73-72.07 9.25-9.25 27.9-15.7 47.81-11.5v-40.52c.28-.84.14-1.68.84-1.82"/><path d="m105.16 166.82h27.2v28.46h-27.2z"/><path d="m459.46 277.72c29.72 11.5 32.95-53.14 3.08-47.25-18.64 3.65-18.08 41.36-3.08 47.25m1.26-69.68c22.71-2.38 39.82 7.57 46.69 22.99 11.64 26.36-.7 56.5-19.35 65.48-9.67 4.63-19.91 5.05-29.02 4.21-28.46-2.52-46.27-31.41-36.31-63.65 1.54-5.05 3.36-8.13 4.21-9.67 6.02-10.53 16.4-17.54 33.78-19.36"/><path d="m169.94 267.35c-7.57 12.62 11.36 15.7 23.55 12.06v-18.79c-9.25 1.4-20.05.84-23.55 6.73m47.81 29.72c-22.57 1.26-56.78 8.97-69.12-6.03-7.29-8.83-6.45-25.66 0-33.93 8.41-10.66 26.5-13.04 43.04-14.58 1.54-3.65.42-9.67-1.26-12.06-15-3.79-30 2.1-40.52 6.73v-21.17c15.98-7.29 53.14-15.14 64.21 1.82 5.89 8.83 3.65 24.4 3.65 38.14z"/><path d="m313.51 298.33h-27.2v-35.19c0-11.64 1.82-26.22-4.21-30.85-4.77-3.65-16.12-1.82-22.99 0v66.04h-27.2v-84.26c27.9-7.29 78.09-15 81.74 20.05 1.68 17.24-1.4 43.04-.14 64.21"/><path d="m354.17 269.17c4.63 7.43 16.96 10.23 27.2 5.47-.56-14.16-.7-28.74-.56-43.6-23.56-6.18-37.72 20.46-26.64 38.13m68.42-57.49c-2.38 7.29-6.03 13.46-9.11 20.05-2.8.56-5.19-1.12-6.73 0-.56 29.58 6.31 69.54-5.47 90.85-7.01 12.76-20.05 21.03-39.96 22.43-14.44.98-25.8-1.4-36.31-5.47v-25.38c12.48 7.29 43.88 13.18 52.72-1.82 2.66-4.35 2.38-8.97 3.65-15.7-5.75.28-11.22 2.94-18.23 3.08-28.6.42-46.27-22.43-39.4-53.98 2.66-12.2 9.81-22.01 19.35-27.9 20.04-12.19 50.6-11.34 79.49-6.16"/><path d="m132.36 209.72v58.89c-1.12 23.98-.84 43.04-9.67 54.54-1.68 2.24-5.47 5.61-8.41 7.85-2.52 1.96-7.57 5.89-10.23 6.03-2.8.14-10.09-3.93-13.32-5.47-4.35-1.96-8.27-4.77-12.76-6.03 10.38-6.45 20.19-11.22 24.26-24.26 3.51-11.36 3.08-27.62 3.08-43.6 0-15.7.14-34.07.14-47.95z"/></svg>