<svg enable-background="new 0 0 512 512" viewBox="0 0 512 512" xmlns="http://www.w3.org/2000/svg"><path d="m511.91 296.09c-1.26-12.21-10.1-17.68-18.38-17.68-3.79 0-6.88 1.12-8 1.54l-1.68.7-1.4.98c-1.96 1.54-5.33 3.51-8.42 4.63-.14-2.53-.14-5.61.28-8.28l.14-.42c2.25-21.47-2.25-33.96-13.33-37.18-1.82-.56-3.79-.84-5.75-.84-6.74 0-12.77 3.23-16.7 6.03-3.23-4.07-8.7-6.45-15.57-6.45-10.24 0-18.38 4.77-21.33 12.35-.28.84-.7 1.96-1.12 3.51-6.03-13.19-18.24-18.24-29.61-18.24-10.8 0-21.19 4.21-25.12 7.16-.14.14-.42.28-.56.42-10.24 7.3-18.1 16.42-23.71 27.36-2.67-9.54-8.7-18.38-19.5-25.12l-.14-.14c-.28-.14-.56-.28-.84-.42 10.52-18.66 19.78-43.5 14.31-67.07-5.89-25.12-20.77-28.9-29.05-28.9-3.37 0-6.88.56-10.52 1.82l-.28.14-.28.14c-15.72 6.17-22.45 15.43-23.99 17.54-1.54 2.39-18.66 28.34-22.87 66.37-.42 4.21-.98 8.56-1.4 12.91-2.39-3.37-6.31-6.59-12.63-8.42-1.96-.56-3.93-.84-6.03-.84-8.7 0-15.72 5.33-19.36 8.84l-.14-.14c-3.23-4.77-8.42-7.72-14.31-8h-1.4c-9.12 0-16.56 4.07-21.89 8.7-3.37-6.03-9.68-9.68-17.12-9.68-.56 0-1.12 0-1.68.14h-1.26c-10.24 0-18.24 4.77-21.47 12.91-.28.56-.56 1.4-.84 2.39-8-9.96-18.24-14.59-31.85-14.59h-1.26c-8.56.14-29.89 3.79-42.94 33.11-1.96 4.49-3.65 9.12-4.77 13.61-2.95-1.26-5.47-1.68-7.44-1.68-6.88 0-11.93 3.93-14.45 7.58-1.96 2.95-8.42 13.47-5.33 23.71 1.68 5.47 5.61 9.68 11.23 11.93 4.91 1.96 11.08 3.79 15.86 5.19 2.95 6.59 8 14.03 17.12 21.05 6.45 4.91 14.73 7.44 24.41 7.44 16.42 0 32.13-7.02 33.82-7.86l.56-.28.14-.14c3.09 3.23 7.3 5.61 12.49 6.59 1.54.28 3.65.56 5.89.56 8.84 0 15.01-4.49 20.77-13.05 4.63 7.3 13.19 11.51 23.15 11.51h.14c.56 0 1.12.42 1.68.42 5.33 0 11.93-1.82 17.4-10.8 4.63 8.28 13.05 13.05 23.01 13.05 8.84 0 16.56-3.65 17.96-4.35l.28-.14c2.95-1.54 5.47-2.95 7.44-4.07 6.59 3.51 16.7 7.44 28.9 7.44 2.1 0 4.21-.14 6.31-.28l.56-.14.56-.14c26.1-5.19 43.08-11.37 53.18-16.14 7.02 8 18.38 15.57 34.52 16.7 1.82.14 3.65.28 5.47.28 13.19 0 23.85-3.79 31.57-7.86 2.53 2.67 5.61 5.05 9.68 6.74 2.39.98 4.91 1.54 7.44 1.54 16.14 0 23.71-19.36 25.82-25.82l3.93-10.38c3.37 3.65 7.72 6.59 13.33 8.14 3.09.84 6.31 1.26 9.68 1.26 17.82 0 34.94-12.63 37.74-14.73 4.74-4.38 10.07-12.79 8.95-24.16" fill="#fff"/><path d="m348.58 301.28s-2.25-8 6.17-23.29c8.28-15.29 14.87-6.88 14.87-6.88s7.16 7.72-.98 19.36c-8.27 11.65-20.06 10.81-20.06 10.81m-64.26 11.09c-9.54 25.12-32.83 14.87-32.83 14.87s-2.67-8.98 4.91-34.1 25.26-15.29 25.26-15.29 12.34 9.4 2.66 34.52m-17.26-104.96s14.45-37.74 17.96-19.36-30.31 72.96-30.31 72.96c.28-12.35 12.35-53.6 12.35-53.6m-207.1 93.87c.56-24.27 16.56-34.94 22.03-29.61s3.51 16.7-6.88 23.85c-10.38 7.3-15.15 5.76-15.15 5.76m438.76-3.93c-.84-8.14-8.14-5.19-8.14-5.19s-11.79 9.12-22.31 8.14c-10.38-1.12-7.02-24.27-7.02-24.27s2.25-21.33-3.93-23.15-13.75 5.47-13.75 5.47-9.4 10.38-13.89 23.71l-1.26.42s1.4-23.29-.28-28.62c-1.26-2.67-12.49-2.39-14.31 2.25-1.82 4.63-10.8 37.32-11.51 50.93 0 0-17.54 14.87-32.83 17.4-15.29 2.39-18.94-7.16-18.94-7.16s41.67-11.65 40.13-44.9c-1.4-33.25-33.54-20.91-37.18-18.24-3.51 2.67-22.31 13.89-27.78 45.32-.14 1.12-.56 5.75-.56 5.75s-16.14 10.8-25.12 13.75c0 0 25.12-42.23-5.47-61.46-13.89-8.28-24.98 9.12-24.98 9.12s41.39-46.02 32.27-85.03c-4.35-18.52-13.61-20.49-22.17-17.54-12.91 5.19-17.82 12.63-17.82 12.63s-16.7 24.27-20.63 60.48c-3.93 36.06-9.54 79.7-9.54 79.7s-8 7.72-15.29 8.14-4.07-21.75-4.07-21.75 5.61-33.82 5.33-39.57c-.42-5.61-.84-8.84-7.58-10.8s-14.03 6.59-14.03 6.59-19.36 29.33-21.05 33.82l-.98 1.82-.98-1.26s13.75-39.99.56-40.55c-13.05-.56-21.61 14.31-21.61 14.31s-14.87 24.98-15.43 27.64l-.98-1.26s6.17-28.9 4.91-36.06-8-5.61-8-5.61-8.56-.98-10.8 4.49c-2.25 5.47-10.38 42.09-11.51 53.6 0 0-21.47 15.29-35.5 15.43-14.03.28-12.63-8.98-12.63-8.98s51.64-17.68 37.46-52.48c-6.31-8.98-13.75-11.79-23.99-11.65-10.38.28-22.59 6.59-31.01 25.26-3.93 8.98-5.61 17.4-5.61 23.85 0 0-9.68 1.82-14.59-2.25s-7.72 0-7.72 0-8.56 12.21-.28 15.43c8.28 3.23 21.19 6.31 21.19 6.31 1.12 5.33 4.63 13.89 14.87 21.61 15.29 11.66 44.62-1.81 44.62-1.81l12.07-7.16s.42 10.8 9.12 12.49c8.84 1.68 12.49-.14 27.64-37.18 8.98-18.94 9.54-17.96 9.54-17.96l.98-.28s-6.88 36.34-4.35 46.02c2.67 9.82 14.31 8.84 14.31 8.84s6.31 2.25 11.51-15.72c5.19-17.96 14.87-36.76 14.87-36.76h1.26s-4.35 36.06 2.25 47.99c6.59 11.79 23.43 3.51 23.43 3.51s11.79-6.17 13.75-8.14c0 0 14.03 11.79 33.82 9.68 44.34-8.7 60.05-20.49 60.05-20.49s7.58 19.22 31.15 21.05c26.94 1.96 41.67-15.01 41.67-15.01s-.28 10.94 9.12 14.87 15.72-16.7 15.72-16.7l15.72-42.09h1.4s.84 26.94 16.42 31.43c15.72 4.49 35.78-11.08 35.78-11.08s5.33-2.95 4.49-11.09" fill="#e24b31"/></svg>