<svg enable-background="new 0 0 512 512" viewBox="0 0 512 512" xmlns="http://www.w3.org/2000/svg"><path d="m0 31h512v450h-512z" fill="#fff"/><g fill="#a90533"><path d="m88.65 350.26c-37.59-39.84-59.62-94.97-59.62-160.61 0-58.07 18.24-108.01 49.52-146.03h-65.93v306.64z"/><path d="m435.97 350.4c16.13-17.39 30.72-37.73 43.91-61.16l-72.94-36.47c-25.67 41.66-63.12 80.1-115.02 80.24-75.47-.28-105.07-64.81-104.92-147.85h281.95c.42-9.4.42-13.75 0-18.24 1.82-49.38-11.22-90.9-35.07-123.3l-.14.14h63.54v306.64z"/><path d="m191.61 114.04c3.09-37.59 32.82-62.84 67.47-62.98 34.93.14 60.32 25.39 61.16 62.98z"/></g><path d="m52.88 402.31v-12.77h-39.27v75.75h39.27v-12.77h-24.68v-20.06h23.7v-12.76h-23.7v-17.39z"/><path d="m119.51 433.31c9.82-1.4 15.15-11.08 15.57-21.04-.42-16.13-10.8-22.72-25.53-22.86h-20.06v75.75h14.59v-30.16l18.24 30.16h18.24zm-15.57-31.85h1.82c8 .28 13.89 2.1 13.75 11.92.28 8.98-5.47 11.36-13.75 10.94h-1.82z"/><path d="m186 389.54h-14.59v75.75h35.63v-12.77h-21.04z"/><path d="m281.95 449.72 6.45 15.57h15.57l-28.34-77.57h-11.92l-30.16 77.57h15.43l6.45-15.57zm-3.79-11.78h-18.24l8.28-28.34z"/><path d="m331.19 465.29h15.43v-51.06l40.26 52.88h10.94v-77.57h-15.57v51.06l-40.12-52.88h-10.94z"/><path d="m461.64 425.17v11.92h16.41c-.28 9.54-8.14 17.67-17.39 17.39-14.59.28-21.74-13.75-21.88-26.51.14-12.48 7.29-27.21 21.88-27.35 7.72.14 14.17 5.47 17.39 11.92l12.76-6.45c-5.61-11.78-16.97-18.38-30.16-18.24-22.58-.14-37.17 18.52-37.45 40.12.28 21.04 14.45 39.84 36.47 40.12 23.85-.28 34.93-19.36 34.65-41.1v-1.82z"/></svg>