<svg enable-background="new 0 0 512 512" viewBox="0 0 512 512" xmlns="http://www.w3.org/2000/svg"><path d="m3.3 297.5v-57h71.1v-3.3h-71.1v-52h75.7v-3.3h-79v119h79.6v-3.3h-76.3zm140.5-82.3-29.5 38.8-28.8-38.8h-4.3l31.2 41.3-34.2 44.3h4l32.2-41.8 32.3 41.8h4.2l-34.3-44.3 31.3-41.3zm17 114.9v-53.3h.3c2 7.8 5.9 14 11.8 18.7s13.4 7.1 22.5 7.1c5.9 0 11.1-1.2 15.7-3.6s8.4-5.6 11.4-9.7c3.1-4.1 5.4-8.9 7-14.3s2.4-11.2 2.4-17.2c0-6.4-.8-12.4-2.5-17.8s-4.1-10.2-7.2-14.2c-3.2-4-7-7.1-11.5-9.3s-9.6-3.3-15.2-3.3c-4.3 0-8.4.6-12.1 1.9s-7 3.1-9.9 5.4-5.4 5.1-7.5 8.2c-2.1 3.2-3.7 6.6-4.8 10.4h-.3v-24h-3.3v115zm34.6-30.6c-10.4 0-18.8-3.6-25.2-10.7-6.3-7.2-9.5-17.5-9.5-30.9 0-5.6.8-10.8 2.3-15.8 1.6-5 3.8-9.4 6.7-13.2s6.6-6.8 10.9-9 9.2-3.3 14.7-3.3c5.6 0 10.4 1.1 14.6 3.3s7.6 5.2 10.3 9.1c2.7 3.8 4.8 8.2 6.2 13.2 1.4 4.9 2.1 10.2 2.1 15.7 0 5-.6 10-1.9 14.9s-3.2 9.4-5.9 13.3-6.1 7.2-10.2 9.7c-4.2 2.4-9.2 3.7-15.1 3.7zm54.9 1.3v-48.5c0-4.7.7-9.2 2-13.7 1.3-4.4 3.4-8.4 6.2-11.7 2.8-3.4 6.3-6.1 10.6-8s9.4-2.7 15.2-2.4v-3.3c-5.1-.1-9.6.4-13.4 1.7s-7.1 2.9-9.9 5-5 4.6-6.7 7.4-2.9 5.9-3.7 9.1h-.3v-21.2h-3.3v85.6zm38.1-42.1h71.6c.2-5.9-.4-11.6-1.7-17-1.4-5.4-3.6-10.3-6.7-14.5s-7-7.6-11.8-10.2-10.6-3.8-17.2-3.8c-4.8 0-9.4 1-14 3s-8.6 4.9-12 8.7-6.2 8.5-8.3 14.1-3.2 11.9-3.2 19c0 6.3.7 12.2 2.2 17.7s3.7 10.3 6.7 14.3 6.9 7.2 11.6 9.4 10.4 3.3 17.1 3.2c9.8 0 18-2.7 24.7-8.2s10.6-13.2 11.8-23.2h-3.3c-1.4 9.4-5.1 16.5-11.1 21.2-5.9 4.7-13.4 7.1-22.4 7.1-6.1 0-11.3-1.1-15.5-3.2s-7.7-5-10.3-8.7c-2.7-3.7-4.6-8-5.9-12.9-1.5-4.9-2.2-10.3-2.3-16zm68.3-3.4h-68.3c.3-6 1.4-11.4 3.3-16.2s4.4-8.9 7.4-12.2c3.1-3.4 6.6-6 10.7-7.7s8.4-2.7 13.1-2.7c5.6 0 10.4 1 14.7 3.1 4.2 2.1 7.7 4.9 10.6 8.4 2.8 3.6 5 7.7 6.4 12.4s2.1 9.7 2.1 14.9zm72.5-14.8h3.3c0-9.6-2.8-16.5-8.3-20.8-5.6-4.3-13.1-6.5-22.7-6.5-5.3 0-9.8.7-13.5 2s-6.7 3.1-9 5.2-4 4.4-5 7-1.5 5-1.5 7.3c0 4.7.8 8.4 2.5 11.2s4.3 4.9 7.8 6.5c2.4 1.1 5.2 2.1 8.3 3s6.7 1.8 10.8 2.8c3.7.9 7.3 1.8 10.8 2.7 3.6.9 6.7 2.1 9.4 3.6s4.9 3.4 6.7 5.7 2.6 5.4 2.6 9.2c0 3.7-.9 6.8-2.6 9.3s-3.9 4.6-6.6 6.2-5.6 2.8-8.9 3.5-6.5 1.1-9.6 1.1c-10.1 0-17.9-2.3-23.2-6.7-5.4-4.5-8.1-11.6-8.1-21.2h-3.3c0 10.8 2.9 18.7 8.7 23.7s14.5 7.5 25.9 7.5c3.7 0 7.4-.4 11.1-1.2s7.1-2.2 10-4.1 5.3-4.3 7.2-7.3c1.8-3 2.7-6.7 2.7-11 0-4.1-.8-7.4-2.4-10s-3.7-4.7-6.3-6.3-5.6-3-8.8-3.9c-3.3-.9-6.6-1.9-9.9-2.7-4.7-1.2-8.7-2.3-12.2-3.2s-6.7-1.9-9.7-3.2c-2.9-1.2-5.2-3-6.9-5.2s-2.6-5.5-2.6-9.7c0-.8.2-2.2.7-4.2s1.5-4 3.2-6.1 4.2-3.9 7.7-5.5c3.4-1.6 8.2-2.4 14.2-2.4 4.1 0 7.9.4 11.2 1.3s6.3 2.3 8.7 4.2 4.3 4.4 5.7 7.4 1.9 6.5 1.9 10.8zm77.1 0h3.3c0-9.6-2.8-16.5-8.3-20.8-5.6-4.3-13.1-6.5-22.7-6.5-5.3 0-9.8.7-13.5 2s-6.7 3.1-9 5.2-4 4.4-5 7-1.5 5-1.5 7.3c0 4.7.8 8.4 2.5 11.2s4.3 4.9 7.8 6.5c2.4 1.1 5.2 2.1 8.3 3s6.7 1.8 10.8 2.8c3.7.9 7.3 1.8 10.8 2.7 3.6.9 6.7 2.1 9.4 3.6s4.9 3.4 6.7 5.7 2.6 5.4 2.6 9.2c0 3.7-.9 6.8-2.6 9.3s-3.9 4.6-6.6 6.2-5.6 2.8-8.9 3.5-6.5 1.1-9.6 1.1c-10.1 0-17.9-2.3-23.2-6.7-5.4-4.5-8.1-11.6-8.1-21.2h-3.3c0 10.8 2.9 18.7 8.7 23.7s14.5 7.5 25.9 7.5c3.7 0 7.4-.4 11.1-1.2s7.1-2.2 10-4.1 5.3-4.3 7.2-7.3c1.8-3 2.7-6.7 2.7-11 0-4.1-.8-7.4-2.4-10s-3.7-4.7-6.3-6.3-5.6-3-8.8-3.9c-3.3-.9-6.6-1.9-9.9-2.7-4.7-1.2-8.7-2.3-12.2-3.2s-6.7-1.9-9.7-3.2c-2.9-1.2-5.2-3-6.9-5.2s-2.6-5.5-2.6-9.7c0-.8.2-2.2.7-4.2s1.5-4 3.2-6.1 4.2-3.9 7.7-5.5c3.4-1.6 8.2-2.4 14.2-2.4 4.1 0 7.9.4 11.2 1.3s6.3 2.3 8.7 4.2 4.3 4.4 5.7 7.4 1.9 6.5 1.9 10.8z" fill="#222"/></svg>