<svg enable-background="new 0 0 512 512" viewBox="0 0 512 512" xmlns="http://www.w3.org/2000/svg"><path d="m170.67 512c47.1 0 85.33-38.22 85.33-85.33v-85.33h-85.33c-47.1 0-85.33 38.22-85.33 85.33s38.23 85.33 85.33 85.33z" fill="#0acf83"/><path d="m85.33 256c0-47.1 38.22-85.33 85.33-85.33h85.34v170.67h-85.33c-47.1-.01-85.34-38.24-85.34-85.34z" fill="#a259ff"/><path d="m85.33 85.33c0-47.11 38.23-85.33 85.33-85.33h85.34v170.67h-85.33c-47.1 0-85.34-38.24-85.34-85.34z" fill="#f24e1e"/><path d="m256 0h85.33c47.1 0 85.33 38.22 85.33 85.33s-38.22 85.33-85.33 85.33h-85.33z" fill="#ff7262"/><ellipse cx="341.33" cy="256" fill="#1abcfe" rx="85.33" ry="85.33" transform="matrix(.7071 -.7071 .7071 .7071 -81.0499 316.3362)"/></svg>