<svg enable-background="new 0 0 512 512" viewBox="0 0 512 512" xmlns="http://www.w3.org/2000/svg"><path d="m69.64 413.22 3.09-4.35 146.56-278.1.28-2.95-64.67-121.45c-5.47-10.24-20.62-7.57-22.44 3.79z" fill="#ffc24a"/><path d="m266.68 219.68 48.1-49.23-48.1-91.86c-4.63-8.7-17.39-8.7-21.88 0l-25.66 49.09v4.21z" fill="#f4bd62"/><path d="m69.64 413.22 1.4-1.4 5.05-2.11 187.64-186.8 2.25-6.45-46.7-89.2z" fill="#f6820c"/><path d="m272.71 507.46 169.7-94.66-48.52-298.58c-1.54-9.4-13.04-13.04-19.63-6.31l-304.62 305.31 168.85 94.24c10.52 6.03 23.56 6.03 34.22 0" fill="#fde068"/><path d="m441 411.96-48.1-296.2c-1.54-9.26-11.08-13.04-17.67-6.45l-303.77 303.35 166.89 93.26c10.52 5.89 23.42 5.89 34.08 0z" fill="#fcca3f"/><path d="m272.71 504.66c-10.66 5.89-23.7 5.89-34.36 0l-167.45-92.84-1.4 1.4 168.85 94.24c10.66 5.89 23.7 5.89 34.36 0l169.7-94.66-.42-2.52z" fill="#eeab37"/></svg>