<svg enable-background="new 0 0 512 512" viewBox="0 0 512 512" xmlns="http://www.w3.org/2000/svg"><path d="m153 434.4c-19.5-15.4-40.3-30.1-54.5-50.8-29.9-36.5-53-78.7-68.7-123.2-9.5-28.8-12.7-59.8-25-87.7-12.8-20.1 2.2-42.2 24.3-48.6 9.8-1.9 27.2-11.2 6.2-4.5-18.7 13.7-20.5-12.5-1.3-14.2 13.1-1.7 17.9-12.5 13.4-22.1-14-9.2 34.2-19.2 9.9-33-25.3-27.2 35.3-32.5 20.4-1.6-3.6 23.8 42.3-4.3 31.7 23.2 10.8 13.2 40.5 3 39.7 21.5 15.8 1.1 21.2 14.3 36 15.3 15.4 7 43.2 12.4 48.4 29.7-15.2 12.1-50.5-24.8-52.2 8.5 4.6 49.2 3.4 100 21.4 146.9 8.6 28.4 29.2 50.8 47.9 72.9 17.8 21.7 42 36.9 66.7 49.8 21.7 10.2 45 16.9 68.6 21.2 9.5-7.3 26.4-34.5 41.3-23 .7 12.8-29.6 26.9-1.4 25.5 16.5-5 28 12.8 41.7-3.2 12.5 14.8 52.2-9.5 43.2 20.9-12.1 7.7-29.7 3.1-41.8 13.7-19.9-9.9-35.8 8.9-57.9 6.6-24.5 4.3-49.5 6.2-74.3 6.2-40.8-3.2-82.4-4.6-121.2-18.7-22-6.5-43.3-18.9-62.5-31.3zm34.4 14.9c21.3 9.2 42.3 18.9 65.7 21.9 37.1 5.1 75.4 13.1 112.7 5.8-16.8-7.7-34.3 3-51.1-5.5-20.2 4.3-41.7-1.1-62.3-3.7-23.2-10.3-48.4-17.5-70.3-31-27.2-9.9 14.1 12.7 21.5 14.7 17 9.7-18.8-5-23.7-9-14.2-8-16.1-6.3-1.4 1.7 2.9 1.7 5.8 3.6 8.9 5.1zm-40.6-28.8c20.7 7.7-.1-14.5-9.6-13.2-4.2-7.2-16-11.9-7.7-15.7-15.1 5.2-15.7-19.8-22.8-16.3-15.9-5-6.2-22.7-25.1-33.7-1.7-11.6-18.8-21.6-24.3-39-2.4-8.8-19.2-34.4-8.9-10.7 8.8 22.9 24.4 42.5 37.3 62.1 10.1 18.6 21.9 38.1 40.3 49.7 6.1 5.9 12.1 15 20.8 16.8zm-59.6-65.4c.7-3.1 3.8 6.8 0 0zm84.3 74.6c4.6-2-6.5-2.5 0 0zm11.3 4.1c-1.2-5.6-5.2 3.1 0 0zm14.1 5.9c6.6-6.4-10.4-4 0 0zm24.1 13.4c4.1-6-13.1-2.2 0 0zm-46.3-32.2c10.4-6.8-13.5-.1 0 0zm10.5 5.2c-.2-3.6-3.7 1.6 0 0zm52.7 32.9c8.5 5.3 49.5 11.7 23.8 2.2-4.2.9-47.6-12.3-23.8-2.2zm-83.6-65.1c-.8-3.6-13.2-4 0 0zm24.5 14.2c6.4-4.4-13.3-3.4 0 0zm20.7 12.7c9.1-3.4-14.9-3.5 0 0zm-55.2-37.9c9.9 7.7 40.1 1 15.2-4.5-11.3-6.1-36.8-10.2-19.5 3.6zm69.1 42.3c4.1-7.1-17.3-4.1 0 0zm-21-16.8c24.3 6.9-20.4-15.3-6-2.5l3.2 1.4zm42.1 24.4c23 .2-20.8-3.2 0 0zm-99-63.2c-.9-4.2-5.7.4 0 0zm138 85c.5-7.7-7.5 5.8 0 0zm-98.8-60.9c-1.4-4.1-7.2-.2 0 0zm-37.1-26.8c13.2-.7-18-5.8 0 0zm-44-28.4c-1.5-6.3-14.3-11.3 0 0zm115.5 73.4c-2.5-2.9-1.2.5 0 0zm71.7 43.9c-.2-4.1-3.8 1.6 0 0zm-78.1-50.5c1.3-5.5-11.3-1.7 0 0zm-53.5-34c9.8-1-15.7-6.6 0 0zm90.5 56.2c15.3-6-15-3 0 0zm-47.1-31.9c17.7 2.2-21-12-3.9-1.2zm61.4 37.8c16.5-9.9 11.1 23.1 28 2.7 16.7-12.2-14.4 15.1 6.2 2.2 14.8-9.9 36.8 4.7 50.7 9.5 10-.5 19.7 8.7 29.9 3.1 19.7-5.3-38.5-7.8-23.2-17.2-18 5.2-31.3-6.3-40.2-17.8-20.3-4.7-43.6-15-53.7-32.9-4.2-6.7 5.9 1-3.6-10-12.2-10.8-18.3-23.2-26.4-36.3-9.7-5.2-10.9-20.5-11.9-.5.1-12.7-11.8-21.2-14.7-17.6-.1-12.2 12.7-6.1 3.7-15.1-1.9-12.7-8.3-25.8-10.2-40.1-2.9-6.8-.4-21.5-10.1-6-3.5 16.4-1.2-20.2 4.3-8.1 7.2-12.3-2.6-10.9-3-9.2 4.7-10.4 3-25.2-1.2-19.6 2.5-11 4-40.6-3.7-35.3 4.7-11.5 8.8-52.7-11.3-37-8.2.1-22.4 3-29.1 6.3 21 11.6-2.2 4.2-10.7 2.3-1.1 10.7-9.6 6.1-20.2 6.2 16.9 2.1-8.3 17.2-18 11.4-12.6 6 10.9 21 .2 25.7 1.3 7-19.2-2.5-17.7 13.7-12.2-5.2-1.7 19.2 4.4 11 20.8 5.6 14.7 18.4 15.2 30.7-3.3 7.1-16.7-16.7-2.9-15.7-10.8-17.6-12-6.3-21.1 1.8-2.1.6 23.1 11.7 7.3 17.2 13.8 2.1 14.3 14.3 17 21.9 8.3 8.7 6.7-9.6 16.7.9-6.3-9.3-33.4-26.2-11.7-20.8-.1-9.3-3.9-16.9 2.7-16.7 6.7-12-6.9 29.6 8 14.3 4.2-1.8 5.2-12 12.7.9 10.8 10.7 3.8 18.3-11.3 8.6 2.7 9.2 20.3 12.6 17 27 3.5 12.8 8.4 8 12.7 7.3 3.3 12.3 5.2 3.2 5.4-2.7 15.4 3.3 11.7 12.4 16.6 18.8 10.6 4.7-15.2-32.5 3.1-11.2 19.1 17.3 7.2 24.5-10.1 21.7 10.9-.8 14.4 14.8 28 14.2 12.4 5.9 20.8 28.6-.6 19.2-7.4-6.7-33.7-15-12.2-2.2 19.8 9.2 35.5 14.7 54.7 26.2 13.6 9.7 19.6 21 24.7 23.2-11.5 5.5-34.7-4.4-17.5-7.4-10.7-1.9-22.7-7.3-12.5 6 8.7 7.3 30.9 6.5 34.9 7.3-3.4 7.4-9.2 8 .2 8.6-10.1 5.4 3.6 6.3 4.5 9.5zm-21.2-60c-6.3-6.7-8-19-1.2-8.3 3.5 1.5 11.3 20.3 1.2 8.3zm69.1 43.9c3.9-.2.1 3 0 0zm-79.1-60.1c-.3-9.9 2.3 7.7 0 0zm-6.9-9.2c-7.9-15.3 10.1 4.4 0 0zm-83.2-57.5c4.7-1.2 2.3 8 0 0zm66.3 36c2.8-10.8 3.3 9 0 0zm-46.9-32.5c-3.2-6 6.9 5.5 0 0zm40.2 12.8c-7.5-16.8 5.3-9.2 1.7 2.8zm-69.2-46.2c-3.3-5.5-8.9-21.7-7.1-26.7 1.6 8 17.1 34.7 7.6 11-10.5-19.8 12.6 6.4 15 11.4 1.1 4.9-6.5-1.3-1.4 10.2-9.4-13.1-5.6 7.3-14.1-5.9zm-21.5-14.7c.9-12.9 4.9 8.8 0 0zm9.7 3.3c4.6-9.7 7.7 13.5 0 0zm-23.2-17.9c-8-7.9-13.7-15.2.3-4.9 5.5.2-12-16.6 1.3-5.3 14.2 2.5 7 23-1.6 10.2zm12.2-.3c4.7-4.6 2.4 4.5 0 0zm7.5 2.4c-7-13.2 8.5 5.5 0 0zm-14.9-14.3c-23.2-20.6 29.2 10.8 3.7 3.8zm66.4 38.6c-10.1-6-2.7-42.3.7-17.5 9.7-3.2-.6 12.8 6.7 12.7-1.1 10.1-4.3 13.7-7.4 4.8zm24.5 14.5c1-10.9 2.1 7.5 0 0zm-4.3-4.2c1.1-4.7.1 5.5 0 0zm-82-55.6c-14.9-20.6 43.2 20.7 9.5 5.2-3.5-1-7.8-1.3-9.5-5.2zm47.2 25.1c-1.4-17.4 3.2 2.8 0 0zm35.9 23c2.8-9.9.2 6.5 0 0zm-80.9-56c8.8-1.9 36.7 15.5 11.1 5-2.8-3.1-8.8-1.7-11.1-5zm75.9 37.9c1-17.7 5.3-10.6.1 2.5zm-69.3-44c3.6-5.2-9.6-23.9 1.9-6.7 4.9 3.9 14.3 6.6 6 8.3 13.1 11.5-3.1 3.1-7.9-1.6zm65.6 38.5c2.5-20.2 2.2 11.7 0 0zm-73.1-57.1c2.8-1.2 1.4 3.7 0 0zm17.1 10.2c4.4-9.3 8.1 10.3 0 0zm48.2 26.9c0-3.6.9 5.1 0 0zm-2.7-6.3c-6.7-16.5 6.3 8.8 0 0zm-4.2-10.8c-1.1-6.8 3.9 8.6 0 0zm6.8-10.9c-4.6-8.1 5.8-35.7 6.9-18.6-4.8 13.3-1.3 20.8 2 2.9 6.2-14.1-1.4 27.9-8.9 15.7zm6.8-41c2-2.5.5 2.9 0 0zm-11.4 226.4c-2.8-2.4.3 1.5 0 0zm23.7 11.9c13.1 3.4 13.1-2 1.2-3.6-6.4-6-26.6-12.3-8.5-.8 1.1 3.1 4.9 3 7.3 4.4zm-46.8-31c7.2 5.4 27.2 15.3 10.2 2 5.7-6.6-10.9-10.2-5.4-14.6-14-8.7-11.1-7.8-1.2-7.6-17-7.6 2.4-7 1.5-10.9-6.6-1.2-32.4-11.5-17.2.8-15.5-7.8-3.7 3-8.4 1.8-15.8-4.3 14.1 12.1-2.5 8 9.1 7.2 24.5 18.4 3.8 7.6-2.6 4 14.9 9.9 19.2 12.9zm24.8 14.2c30 9.7-14.8-11.9 0 0zm126.6 76.8c.4-6-4.1 5.1 0 0zm13.1 5.5c6.9-6.7.3 10.7 11.5-1.7.1-8.8-.3-14.1-12.9-3.3-3.5 1.9-5 10.1 1.4 5zm-206.8-129.9c-2.1-8.4-14.9-8.4 0 0zm13.9 9.2c-5.2-8.6-18.4-7.8 0 0zm79.2 47.7c7.7 6.8 35.5 5 9.4.8-3.9-5.7-24.6-4.3-9.4-.8zm108.7 67.1c11.9-10-11.5 4.5 0 0zm24.7 17c.1-3.2-5.1 1.4 0 0zm0-4.4c13.2-14-12.7.8 0 0zm-260.7-165.2c-11.2-16-7-23.2-17.8-36.2-2-10.1-18.5-32.8-8.5-8.7 9.2 14 11.9 35.7 26.3 44.9zm256.7 160.6c24.2-15.5-10-6.7 0 0zm18.5 7.3c12.1-10.3-7.7-2.1 0 0zm-245.1-157c3.5-5.1-8.9-.7 0 0zm241.1 152.1c11.7-7.6-2.7-6.4-2.1.7zm-159.3-100.5c-.4-5.1-6.2.4 0 0zm9.8 5.7c-3.1-6.4-4.8 1 0 0zm168.5 100c15-10.9-9.2-2.2-3.2 2zm-5.8-2.9c12.3-10.2-13 4.6 0 0zm29.4 19.6c8.3-5.5-10-1.7 0 0zm-276.1-177.7c11 2.5 44.1 27.2 24.6 1.7-10-3-4-27.4-14.3-23.1 6.8 11.4 5.7 16.3-8.7 9.1-18.1-8.7-10.2 4.4-6.7 8-4.7 1.1 6.5 4.2 5.1 4.3zm-50.3-39.7c1.9-8.2-18.2-44.9-9.6-18.4 3.2 5.5 2.9 16.1 9.6 18.4zm92.2 56.9c-5.7-4.7-.3-.7 0 0zm14 3.3c0-8.7-15.4-3.5 0 0zm121.2 76.4c-2.3-5.9-9.1-.2 0 0zm5.9 4.2c-.9-3.3-3.4.6 0 0zm48 30.3c4.6-3.5-5.7-.4 0 0zm-256.2-164.7c13.3-5.1-14.1-3.6 0 0zm191.7 120.8c-.2-8.6-8.5 2.1 0 0zm-196.9-132.9c8.5-3-7.9-2 0 0zm24.6 11.9c-.1-2.9-2.6 1.1 0 0zm300.6 184.3c10.9-2.2 35.8 5.6 39.8-2.9-13.2-.3-45.9-9.3-47.4 2.2l2.9.5zm-292.7-182.3c.1-8.7-6.8-.4 0 0zm-64.9-45c-2.9-16.5-11.1-2.5 0 0zm15.5 3.9c.2-5.3-14.1-4.8 0 0zm8.9 4.3c-2.6-2.1-2 2.6 0 0zm55.4 35.6c2.7-2.3-6.1-1.7 0 0zm-61.4-45.3c-1.5-12.5-17.9-1.9 0 0zm-31.6-20.6c-.4-5.8-3.1 2.2 0 0zm4.6-3.6c-.7-6.8-4 .8 0 0zm26.1 15.6c11-4.3-20.1-9-2.2-.8zm348.4 215.1c7.1-6.4-8.9-2 0 0zm42.2 21.9c2.7-8.4-7.2 1.1 0 0zm-387.9-250.7c1.2-8.1-8.8 1.6 0 0zm-37.1-24.8c-2-11.4-1.7-31.4 17.3-24.7-25.4 5.1 17.6 31.6 12.2 10.7 10.7.5 20.9-6.3 15.2 4.1 21.1-2.3 35.7-20.6 56-18.1 15.8-2.1 33.2-3.7 50.3-10 14-1.1 27.5-16.2 19.8-25.1-19.2-1.7-39.2.8-60.3 4.9-23.4 4.9-44.7 14.2-68.3 18.2-23.1 3.1 4.6 8.5-2 9.7-12 4.2 14.3 7-1.6 11.3-9.7-1.8-20-5.2-15.8-15.6-22.1 2.8-41.5 12.1-24 34.5zm53.3-27.1c5.2-19.1 27.7 15.7 8.5 2.5-2.4-1.7-6.1-3.1-8.5-2.5zm1-9.2c7.4-5.5 3.9 3.1 0 0zm9.5.1c.7-8.7 21.7 4.7 3.4 3.2zm12.9-5.2c4.7-5.5 1.4 5 0 0zm3.3-2.2c7.9-9.5 44.7-6.1 17.7-.9-7.1-5.4-12.7 3.2-17.7.9zm48.1-7.4c-1.3-25.9 23.8 9.2 0 0zm13.6-.1c5-13.1 19.3-5.2 2.3-2.7.3 1.5-.5 6.8-2.3 2.7zm-110 69.3c14.9-9.2-15.8-8 0 0zm11 3c5.2-5.5-11.4-2.3 0 0zm-32.4-23c8.5-6.5-10-2.5 0 0zm439.5 274.9c.3-7.5-6.5 3.5 0 0zm-44.6-30.4c1.2-8.8-5.8.7 0 0zm56.9 33.4c11.9 0 36-3.7 10.2-3.7-4.2.7-23.7.5-10.2 3.7zm-409.8-260.3c9.7-.7 15.1-10.6-1.8-10-26.3-2.7 23.1 8.9-3.3 5.6-3.6 2.4 5 5.1 5.1 4.4zm8.5 4.4c-1-6.3-3 3.2 0 0zm10-26.9c4.3-5.1-5.7-1.4 0 0zm-31.9-53.5c17.2-5.8 40.7-12.4 48.8 2.8-8.3-9.9-3.3-19.7 4.5-5.2 11 14.7 16.5-6.7 9.3-11.6 8.2 10.2 17.4 14.9 5.5.6 13-15.6-26.1 2.1-35 1.9-4.3 2-44.2 10.3-33.1 11.5zm10-19.2c9.8-7.4 33.9 4.3 18.4-7.4-1.4-1.3-33.8 8.9-18.4 7.4zm35.8 1.4c11.5.3-4.9-15.3 8.7-8.3-2.2-7.3-15.9-8.7-22.7-11.7-3.7 6.8 7.8 20.1 14 20zm-29.4-32.4c3.9-5.3-7 2.7 0 0zm14.5 3.5c18.4-2.4-4.8-7.9-3.7-.2zm-27.2-21.3c-13-17 24.4 2.9 11.2-14.9-11.1-8.9-21.8 9.9-11.2 14.9zm166.9 89.9c6-10.6-24.7-14.3-4-3.7 1.9.6 1.4 4.4 4 3.7z"/></svg>