<svg enable-background="new 0 0 512 512" viewBox="0 0 512 512" xmlns="http://www.w3.org/2000/svg" xmlns:xlink="http://www.w3.org/1999/xlink"><clipPath id="a"><path d="m317.6 379.9-72.1 72.1z"/></clipPath><clipPath id="b"><path d="m317.6 379.9-72.1 72.1 65.6-21.7z"/></clipPath><clipPath id="c"><path d="m317.6 379.9-72.1 72.1z"/></clipPath><path d="m304.6 0-255 255 78.9 78.9 333.9-333.9z" fill="#47c5fb"/><path d="m302.8 235.1-136.5 136.5 79.2 80.4 78.8-78.7 138.1-138.2z" fill="#47c5fb"/><path d="m245.5 452 60 60h156.9l-138.1-138.7z" fill="#00569e"/><path d="m165.4 372.5 78.9-78.9 80 79.7-78.8 78.7z" fill="#00b5f8"/><g clip-path="url(#a)"><image height="96" overflow="visible" transform="matrix(.7762 0 0 -.7762 244.3244 453.3864)" width="96" xlink:href="F9E80863.jpg"/></g><g clip-path="url(#b)"><image height="96" overflow="visible" transform="matrix(.7762 0 0 -.7762 244.3244 453.3864)" width="96" xlink:href="F9E80861.jpg"/></g><g clip-path="url(#c)"><image height="96" overflow="visible" transform="matrix(.7762 0 0 -.7762 244.3244 453.3864)" width="96" xlink:href="F9E80867.jpg"/></g></svg>