<svg enable-background="new 0 0 512 512" viewBox="0 0 512 512" xmlns="http://www.w3.org/2000/svg"><g fill="#f6d2a2"><path d="m72.93 277.22c.7 15.15 15.85 8.14 22.58 3.37 6.45-4.49 8.42-.7 8.98-9.54.42-5.89.98-11.64.7-17.53-9.82-.84-20.48 1.4-28.48 7.29-4.2 3.09-11.91 12.77-3.78 16.41"/><path d="m374.39 463.23c11.64 7.15 32.97 28.9 15.43 39.56-16.69 15.29-26.09-16.83-40.82-21.32 6.31-8.7 14.31-16.69 25.39-18.24z"/><path d="m166.78 487.64c-13.61 2.1-21.32 14.45-32.83 20.76-10.66 6.31-14.87-2.1-15.71-3.79-1.68-.7-1.4.7-4.07-1.96-9.96-15.71 10.24-27.21 20.9-34.93 14.6-2.94 23.85 9.82 31.71 19.92z"/><path d="m438.92 275.26c-.7 15.15-15.85 8.14-22.58 3.37-6.45-4.49-8.42-.7-8.98-9.54-.42-5.89-.98-11.64-.7-17.53 9.82-.84 20.48 1.4 28.48 7.29 4.06 3.08 11.92 12.76 3.78 16.41"/></g><path d="m398.8 90.79c52.46-18.52 11.5-90.34-34.23-58.64-30.02-25.66-71.26-30.43-114.61-30.43-42.5 3.37-82.9 11.22-111.1 35.77-45.59-29.32-87.53 41.1-34.09 58.92-15.01 58.22 2.1 117.55-.28 176.75-2.24 53.17-16.13 124.43 13.33 172.12 25.11 40.82 79.12 55.41 123.73 56.95 56.81 2.1 125.69-11.92 153.32-66.91 26.37-52.46 19.08-117.83 15.71-174.37-3.22-57.09 3.09-115.03-11.78-170.16z" fill="#69d7e2"/><path d="m442.85 266.28c-1.4-3.09-4.21-6.59-6.87-8.56-6.73-4.91-15.43-7.43-24.41-7.72-.28-9.12-.56-19.08-.56-31.7v-11.5c-.14-36.19-.56-52.04-2.67-71.82-1.68-15.57-4.07-30.02-7.58-43.49 11.92-4.49 19.64-12.06 22.73-21.74 2.95-8.98 1.4-19.08-3.51-28.06-5.19-8.84-13.33-15.43-22.87-18.1-10.24-2.81-21.46-.7-32.12 6.45-9.54-8.14-20.62-14.31-32.97-18.94-21.88-8.14-47.27-11.22-81.78-11.22v1.4l-.14-1.4c-36.89 2.95-64.25 8.7-86.83 19.64-9.12 4.35-17.25 9.68-24.27 15.85-10.8-6.73-22.16-8.42-32.54-5.19-9.68 2.95-18.1 9.82-23.01 18.8-5.05 8.98-6.17 19.22-2.81 28.06 3.37 8.84 11.22 15.71 22.73 19.92-3.65 14.87-5.61 30.58-5.89 47.83-.28 16.83.42 30.44 3.09 61.02 1.96 22.73 2.67 33.25 2.95 45.87-9.96-.42-19.92 2.24-27.49 7.58-2.67 1.96-5.61 5.33-6.87 8.56-1.96 4.07-1.12 7.72 2.67 9.96.56 7.01 4.49 10.24 10.52 9.68 4.35-.42 9.68-2.81 14.31-6.03.98-.7 2.1-1.26 3.09-1.82.42-.14.7-.28 1.12-.42 0 0 .84-.28 1.12-.42.42-.14.84-.28 1.12-.56-.28 6.87-.84 14.17-2.24 30.58-1.4 18.52-2.24 28.62-2.53 39.98-1.26 41.94 3.65 72.52 18.66 96.79 4.77 7.57 10.38 14.45 17.25 20.62-1.26.84-6.87 5.05-8.7 6.31-6.17 4.77-10.38 8.7-12.91 13.05-3.23 5.75-3.23 11.5.42 17.53l.14.14.14.14c1.68 1.68 2.53 2.1 3.65 2.1h.14.28c.14.28.28.42.42.7.42.7.84 1.26 1.26 1.96 3.65 4.21 8.84 5.33 15.71 1.12 3.65-1.96 6.31-4.07 11.92-8.84.14-.14.14-.14.28-.28 8.98-7.58 13.33-10.38 19.92-11.5l2.38-.42c.84.42 1.82.7 2.81 1.12 20.9 8.42 45.03 12.91 69.58 13.75 31.7 1.12 62.28-2.81 88.09-12.2 6.87-2.52 13.33-5.47 19.5-8.7 3.79 1.4 7.01 4.49 13.19 11.78.28.28.28.28.42.56.28.28.28.42.42.56.28.42.7.7.98 1.12 4.91 5.75 8.14 8.56 11.78 10.1 4.91 2.1 9.54.98 14.45-3.37 8.56-5.33 9.12-13.47 3.51-22.87-3.93-6.59-10.8-13.47-17.39-17.96 7.58-7.43 14.31-16.41 19.36-26.65 14.17-28.2 19.5-61.16 19.22-103.38-.14-15.01-.7-28.06-2.38-53.03v-.7c.7.28 1.4.7 2.24 1.26 4.49 3.09 9.82 5.61 14.31 6.03 6.03.56 9.96-2.67 10.52-9.68 4.2-1.79 4.9-5.44 2.94-9.65zm-46.72-239.45c8.84 2.38 16.41 8.56 21.18 16.69 4.77 8.28 6.03 17.53 3.37 25.67-2.81 8.7-9.82 15.57-20.9 19.64-2.24-8-4.91-15.71-7.72-23.15 4.21-3.65 6.31-8.28 2.95-14.73s-9.26-7.15-15.29-5.33c-3.79-5.05-8.14-9.4-12.48-13.47 9.68-6.16 19.64-7.85 28.89-5.32zm-313.1 49.66c-3.09-8-2.1-17.39 2.67-25.53 4.77-8.28 12.34-14.73 21.46-17.39 9.4-2.81 19.5-1.4 29.46 4.35-5.75 5.19-10.8 11.08-15.29 17.53-7.58-3.93-15.43-4.77-19.78 3.37-4.49 8.7.7 14.17 8.28 18.24-.98 2.53-2.1 5.19-2.95 7.72-.98 3.23-2.1 6.59-2.95 9.96-10.8-4.09-17.81-10.4-20.9-18.25zm17.82 200.17c-.14 0-.98.28-.98.42-.42.14-.84.28-1.26.56-1.12.42-2.38 1.12-3.51 2.1-4.07 2.95-9.12 5.19-12.91 5.47-4.35.42-6.87-1.4-7.29-6.73 3.09-.98 4.35-1.82 5.61-3.51l-2.38-1.82c-.84 1.12-1.82 1.68-4.35 2.52-.14 0-.14 0-.28.14-2.38-1.26-2.81-3.37-1.4-6.31 1.12-2.67 3.79-5.75 6.03-7.29 7.01-5.19 16.41-7.57 25.81-7.01 0 3.65.14 7.29 0 10.8 0 .42 0 .7-.14 1.12-.14 2.1-.14 2.95-.28 3.93-.85 4.21-1.13 4.77-2.67 5.61zm44.33 221.64c-.14.14-.14.14-.28.28-5.47 4.77-8.14 6.59-11.5 8.56-5.61 3.37-9.4 2.67-12.06-.56-.42-.42-.7-.98-.98-1.4-.14-.14-.28-.42-.42-.56 0 0 0 0 0-.14.28-2.67 1.26-4.49 3.93-8.7.14-.14.14-.14.14-.28 1.68-2.38 2.38-3.65 3.09-5.33l-2.67-1.12c-.56 1.26-1.26 2.52-2.81 4.91-.14.14-.14.14-.14.28-2.67 3.79-3.79 6.17-4.35 8.84h-.14s0 0-.14 0h-.28c-.28-.14-.7-.42-1.26-.98-5.75-9.12-1.12-16.83 11.78-26.65 1.68-1.12 7.01-5.05 8.56-6.17.28 0 .56-.14.84-.28 8 6.73 17.25 12.62 27.49 17.53 0 .14.14.28.28.42-6.18 1.25-10.81 4.34-19.08 11.35zm246.61-15.99c4.49 7.58 4.35 13.75-1.26 18.1-.42-.84-.7-1.96-1.26-3.37 0-.14 0-.14-.14-.28-2.1-5.61-3.37-8-5.89-10.52l-2.1 2.1c2.24 2.1 3.23 4.21 5.33 9.4 0 .14 0 .14.14.28.7 1.96 1.12 3.09 1.68 4.07-3.79 3.23-7.15 3.79-10.66 2.24-3.09-1.26-6.03-4.07-10.66-9.4-.28-.28-.56-.7-.84-1.12-.14-.14-.28-.28-.42-.56-.28-.28-.28-.28-.42-.56-5.47-6.31-8.7-9.68-12.2-11.64 8.28-4.77 15.57-9.96 22.16-16.13 5.87 4.34 12.75 11.08 16.54 17.39zm2.1-47.69c-12.63 25.39-34.93 43.35-64.95 54.15-25.53 9.26-55.83 13.05-87.11 11.92-53.87-1.96-100.58-20.76-122.46-56.25-14.73-23.71-19.5-53.73-18.24-95.25.42-11.36.98-21.46 2.53-39.98 1.68-20.9 2.1-26.93 2.53-36.33.28-6.73.28-13.61.14-21.04-.28-12.91-.98-23.15-2.95-46.29-2.67-30.58-3.37-43.91-3.09-60.6.42-22.02 3.37-41.38 9.54-59.76 9.96-29.88 28.34-49.94 54.85-62.98 22.16-10.8 49.1-16.41 85.57-19.36 34.23 0 59.2 3.09 80.8 11.08 25.81 9.54 45.03 26.23 58.36 52.04 8.56 20.9 13.47 43.35 16.13 69.16 2.1 19.64 2.52 35.49 2.67 71.54v11.5c.14 17.82.42 30.3 1.12 42.78.28 4.91.42 6.87 1.12 18.52 1.68 24.97 2.24 37.88 2.38 52.88.28 42.09-5.05 74.63-18.94 102.27zm44.89-160.76c-.14 0-.28-.14-.42-.14-2.67-.84-3.51-1.4-4.35-2.52l-2.38 1.82c1.26 1.82 2.67 2.52 5.61 3.51-.56 5.33-3.09 7.15-7.29 6.73-3.79-.28-8.84-2.67-12.91-5.47-1.12-.84-2.38-1.4-3.51-2.1-.14 0-.28-.14-.42-.14-.56-8.14-.56-10.1-.84-14.45-.14-2.67-.28-5.33-.42-8 8.28.14 16.27 2.67 22.44 7.15 2.24 1.68 4.91 4.77 6.03 7.29 1.26 2.81.98 4.91-1.54 6.32z"/><path d="m272.27 153.22c.14 7.43 1.68 15.71.28 23.71-2.1 3.79-5.89 4.21-9.26 5.75-4.77-.7-8.7-3.79-10.52-8.28-1.12-8.98.28-17.53.7-26.37 0-.28 5.61.14 10.52 1.68 4.35 1.26 8.28 3.37 8.28 3.51z" fill="#fff"/><path d="m230.75 153.92c-4.07 15.57 5.47 40.96 21.18 20.06-1.12-8.84.14-17.39.56-25.95.14-.7-21.6 4.77-21.74 5.89z" fill="#fff"/><path d="m274.09 160.23c-.28-4.35-.42-6.17-.42-8.42v-.98l-.98-.28-18.52-5.75v-.98l-1.96.42h-.14v.14l-20.9 5.33-.7.14-.28.7c-3.23 7.72-2.52 19.5 1.68 26.79 4.77 8.28 12.34 8.42 20.06-.98 2.24 4.21 6.31 7.15 11.08 8h.42l.42-.14c.56-.28 1.12-.42 2.24-.84.14 0 .14 0 .28-.14 4.21-1.4 6.03-2.67 7.43-5.47l.14-.14v-.28c.42-2.67.56-5.47.56-8.56.01-2.39-.13-4.49-.41-8.56zm-23.56-5.47c-.14 2.67-.28 3.65-.42 5.19-.28 5.47-.28 9.54.14 13.61-6.87 8.84-12.34 8.84-15.99 2.24-3.51-6.17-4.21-16.55-1.68-23.57l18.52-4.77c-.15 1.97-.29 3.94-.57 7.3zm20.62 21.74c-.98 1.82-2.38 2.67-5.89 3.79-.14 0-.14 0-.28.14-.84.28-1.4.56-1.96.7-3.93-.7-7.29-3.37-8.98-7.01-.42-3.93-.42-8.14-.14-13.47.14-1.4.14-2.53.42-5.19.28-3.37.42-5.47.42-7.29l15.99 4.91c0 1.96.14 3.65.42 7.43.28 3.93.42 6.03.42 8.42.14 2.67 0 5.19-.42 7.57z"/><path d="m142.37 89.25c13.47 52.6 97.63 39.14 94.41-13.61-3.79-63.12-107.31-50.92-94.41 13.61" fill="#fff"/><path d="m238.18 75.5c-.84-15.29-7.57-27.21-18.8-34.65-9.96-6.73-23.15-9.4-36.33-7.72-13.05 1.82-25.11 7.58-33.11 16.83-8.84 10.24-12.2 23.85-9.12 39.42l1.26-.28-1.26.28c14.04 54.02 100.59 40.83 97.36-13.88zm-94.55 13.47c-2.95-14.87.28-27.49 8.56-37.03 7.43-8.7 18.8-14.45 31.28-15.99 12.48-1.68 24.97.84 34.37 7.29 10.38 7.01 16.69 18.1 17.68 32.54 3.08 51.35-78.84 63.69-91.89 13.19z"/><ellipse cx="165.52" cy="80.55" rx="14.31" ry="15.43"/><ellipse cx="171.97" cy="84.2" fill="#fff" rx="3.37" ry="3.93"/><path d="m260.35 79.43c10.38 60.32 109.14 44.33 94.83-16.41-12.77-54.71-98.34-39.56-94.83 16.41" fill="#fff"/><path d="m356.58 62.74c-13.05-56.25-101.14-40.82-97.63 16.83v.14c4.91 28.48 30.3 43.07 58.36 38.3 12.77-2.24 24.27-8.42 31.7-17.53 8.13-9.97 11.07-23.01 7.57-37.74zm-9.82 36.05c-7.01 8.56-17.82 14.45-30.02 16.41-26.65 4.35-50.36-9.26-55.13-36.05-3.23-54.29 79.96-68.88 92.3-15.99 3.23 14.03.56 26.23-7.15 35.63z"/><ellipse cx="284.61" cy="76.77" rx="13.89" ry="15.43"/><ellipse cx="291.07" cy="80.27" fill="#fff" rx="3.23" ry="3.93"/><path d="m233.83 122.08c-11.64.98-21.04 14.73-15.01 25.53 8 14.45 25.67-1.26 36.75.14 12.77.28 23.15 13.47 33.39 2.38 11.36-12.34-4.91-24.41-17.68-29.74z" fill="#f6d2a2"/><path d="m290.37 132.04c-3.93-5.05-10.8-9.54-18.38-12.63l-.28-.14h-.28l-37.59 1.4c-13.05 1.12-22.44 16.27-16.13 27.78 2.53 4.35 5.89 6.59 10.38 6.87 3.37.14 6.87-.56 12.34-2.53.42-.14.98-.28 1.82-.56 7.29-2.53 10.24-3.23 13.19-2.81h.14c3.51 0 6.45.98 12.06 3.23 6.17 2.53 8.14 3.23 11.22 3.51 4.21.28 8-1.12 11.36-4.91 5.48-6.17 5.2-12.9.15-19.21zm-2.53 17.25c-2.81 3.09-5.61 4.07-8.98 3.93-2.67-.14-4.35-.84-10.24-3.23-5.89-2.53-9.12-3.37-12.91-3.51-3.65-.42-6.73.28-14.59 2.95-.7.28-1.26.42-1.82.56-10.66 3.65-15.85 3.37-19.36-3.09-5.33-9.54 2.81-22.44 13.75-23.57l37.17-1.4c7.01 2.95 13.33 7.15 16.97 11.78 4.5 5.34 4.64 10.67.01 15.58z" fill="#231f20"/><path d="m274.23 115.76c-4.49-16.69-42.78-14.31-41.8 5.75 1.82 14.88 46.15 10.95 41.8-5.75z"/></svg>