<svg enable-background="new 0 0 512 512" viewBox="0 0 512 512" xmlns="http://www.w3.org/2000/svg"><path d="m460.58 321.62c-3.87-2.25-6.98-3.87-12.35-4.86v-121.61c5.36-1 8.61-2.62 12.47-4.86 21.83-12.72 29.44-40.54 16.84-62.36-12.72-21.83-40.41-29.31-62.24-16.71-3.87 2.25-7.36 5.11-10.35 8.23l-105.26-60.75c1.25-4.12 1.87-8.48 1.87-13.1 0-25.19-20.33-45.65-45.65-45.65s-45.65 20.33-45.65 45.65c0 4.49.62 8.86 1.87 12.97l-105.27 60.74c-2.99-3.12-6.36-5.86-10.35-8.11-21.83-12.6-49.77-5.11-62.36 16.71s-4.74 49.77 17.09 62.36c3.87 2.25 7.11 3.87 12.47 4.86v121.61c-5.36 1-8.48 2.62-12.35 4.86-21.83 12.72-29.44 40.54-16.84 62.36 12.6 21.83 40.29 29.31 62.24 16.71 3.87-2.25 7.23-4.99 10.23-7.98l105.14 60.74c-1.25 4.12-1.87 8.48-1.87 12.85 0 25.19 20.33 45.65 45.65 45.65 25.19 0 45.65-20.58 45.65-45.65 0-4.99-.75-9.85-2.25-14.34l104.65-60.37c3.12 3.49 6.98 6.61 11.23 9.1 21.83 12.6 49.64 5.11 62.24-16.71 12.71-21.81 5.1-49.62-16.85-62.34zm-373.68-4.24c-.62-.12-1.62-.37-1.62-.5v-121.73c10.73-2.87 21.95-10.35 28.31-21.45s7.48-23.82 4.24-35.3l105.39-60.87c.37.5.87.87 1.37 1.25zm202.93 118.24c-8.36-9.1-20.33-14.84-33.68-14.84-12.97 0-24.57 5.36-32.8 13.97l-105.27-60.87c.12-.62.37-1.75.5-1.75h275.39c.25 1.75.5 2 .87 2.99zm108.76-97.16c-2.25 3.87-3.87 8.61-4.86 12.1h-275.27c-1-3.62-2.62-8.23-4.86-12.1-2.25-3.87-4.99-7.36-7.98-10.23l137.82-238.6c3.99 1.12 8.36 1.75 12.72 1.75 4.37 0 8.73-.62 12.72-1.75l137.7 238.6c-3.12 2.87-5.74 6.36-7.99 10.23zm28.32-21.58c0 .12-1 .25-1.62.5l-137.7-238.73c.37-.37.87-.75 1.25-1.25l105.52 60.87c-3.24 11.47-2.25 24.2 4.24 35.3 6.36 11.23 17.71 18.58 28.31 21.45z" fill="#e535ab"/></svg>