<svg enable-background="new 0 0 512 512" viewBox="0 0 512 512" xmlns="http://www.w3.org/2000/svg"><path d="m465.57 0h-419.14c-25.67 0-46.43 20.76-46.43 46.43v419.14c0 25.67 20.76 46.43 46.43 46.43h419.14c25.67 0 46.43-20.76 46.43-46.43v-419.14c0-25.67-20.76-46.43-46.43-46.43z" fill="#f36"/><g fill="#fff"><path d="m171.13 161.03c16.97 0 31.28-13.33 31.28-30.86s-14.31-30.86-31.28-30.86-31.28 13.33-31.28 30.86 14.31 30.86 31.28 30.86z"/><path d="m106.33 326.14c-1.82 7.86-2.81 16.27-2.81 23.15 0 27.07 14.73 45.17 46.01 45.17 25.95 0 46.99-15.43 62.14-40.26l-9.26 37.17h51.48l29.46-118.11c7.29-29.88 21.6-45.45 43.2-45.45 16.97 0 27.63 10.52 27.63 28.05 0 5.05-.42 10.52-2.24 16.55l-15.14 54.29c-2.24 7.86-3.23 15.71-3.23 23 0 25.81 15.15 44.61 46.85 44.61 27.07 0 48.82-17.53 60.74-59.34l-20.2-7.86c-10.1 28.05-18.8 33.1-25.81 33.1-6.87 0-10.52-4.63-10.52-13.75 0-4.21.98-8.7 2.24-14.31l14.73-52.88c3.65-12.48 5.05-23.43 5.05-33.53 0-39.56-23.99-60.18-52.88-60.18-27.07 0-54.71 24.41-68.59 50.22l10.1-46.29h-78.69l-11.08 40.68h36.75l-22.72 90.76c-17.81 39.56-50.5 40.26-54.57 39.28-6.73-1.54-11.08-4.07-11.08-12.76 0-5.05.98-12.34 3.23-21.04l34.51-136.91h-87.39l-11.08 40.68h36.61z"/></g></svg>