<svg enable-background="new 0 0 512 512" viewBox="0 0 512 512" xmlns="http://www.w3.org/2000/svg"><path d="m0 0h512v512h-512z" fill="#f7df1e"/><path d="m134.66 427.84 39.14-23.71c7.57 13.47 14.45 24.69 30.86 24.69 15.85 0 25.81-6.17 25.81-30.3v-163.42h48.11v164.26c0 49.8-29.18 72.52-71.82 72.52-38.43 0-60.73-19.92-72.1-44.04"/><path d="m304.82 422.65 39.14-22.72c10.38 16.83 23.71 29.18 47.41 29.18 19.92 0 32.68-9.96 32.68-23.71 0-16.55-13.05-22.3-35.07-31.98l-12.06-5.19c-34.65-14.73-57.79-33.39-57.79-72.52 0-36.05 27.49-63.54 70.42-63.54 30.58 0 52.6 10.66 68.45 38.44l-37.45 23.99c-8.28-14.73-17.11-20.62-30.86-20.62-14.03 0-23 8.98-23 20.62 0 14.45 8.98 20.34 29.6 29.18l12.06 5.19c40.96 17.53 63.96 35.35 63.96 75.61 0 43.34-34.09 67.05-79.68 67.05-44.89.25-73.79-21.07-87.81-48.98"/></svg>