<svg enable-background="new 0 0 512 512" viewBox="0 0 512 512" xmlns="http://www.w3.org/2000/svg"><g fill="#1a1918"><path d="m490.55 206.45 21.46.14s-39.98 54.15-43.21 58.64c-1.12 1.4-2.67 2.95-3.51 4.91-2.1 4.77-4.21 15.29-4.21 15.29l-19.64.14s3.09-10.94 2.95-16.83c-.14-5.05-2.67-10.24-4.21-15.29-1.54-5.19-3.51-15.29-3.51-15.29h20.2l2.81 11.22z"/><path d="m449.87 217.81c3.93 2.38 6.45 15.57 6.45 15.57s-20.76.28-32.13.28h-9.82l-11.92 51.62h-18.1s11.22-56.11 13.89-66.21c.84-3.23 5.89-2.67 14.45-2.67h13.61c8.84-.13 19.22-1.25 23.57 1.41"/><path d="m365.42 242.93s.56-3.37-1.96-7.15c-2.1-3.23-4.07-4.07-9.68-4.21-15.71-.56-15.43 11.22-15.43 11.22zm17.11-13.33c2.24 8.28-2.1 27.92-2.1 27.92s-23.01-.42-35.63 0c-3.93.14-8.56-.42-9.82 1.4-1.68 2.53.56 6.45 2.53 8.14 2.24 1.96 6.45 2.1 8 2.38 10.24 1.26 31.56.28 31.56.28l-3.65 16.41s-30.16 1.54-45.31-2.1c-2.95-.7-5.75-2.1-7.72-4.21-.56-.56-.98-1.26-1.4-1.96-.42-.56-1.54-2.24-2.1-3.65-3.51-9.26.42-26.79 4.21-36.19.42-1.12.98-2.53 1.54-3.65.7-1.4 1.4-3.09 1.96-4.07.42-.56.84-.98 1.26-1.54.42-.7.98-1.26 1.54-1.96 1.4-1.68 2.95-2.81 4.91-4.21 6.31-4.77 17.68-8.42 31.42-7.01 5.19.56 12.91 2.38 16.69 7.72.99 1.39 1.55 4.19 2.11 6.3z"/><path d="m299.34 216.27 17.54-.14s-9.82 46.43-14.73 69.16h-20.2c-14.17 0-26.65 1.68-32.13-8.42-5.19-9.82-.28-25.95 2.1-36.9 1.68-7.72 5.05-23.71 5.05-23.71l18.24-.14s-5.19 24.69-7.29 37.04c-.7 4.49-2.38 8.56-.7 11.92 1.54 3.09 3.79 3.37 10.52 3.51h9.12z"/><path d="m216.99 249.8c1.82-6.59 4.49-13.61 4.21-19.5-.42-6.31-5.61-12.06-9.12-13.19-10.24-3.65-19.92 1.4-23.71 5.61-4.91 5.33-6.59 11.64-8.42 20.2-1.26 6.45-2.38 13.19 0 18.1 4.21 8.84 17.26 6.87 31.42 7.01 2.12-5.74 3.94-12.06 5.62-18.23zm24.41-25.81c1.96 14.59-5.75 30.72-10.94 44.75 5.47.42 10.1-.14 10.52.28.42.56-3.65 16.69-5.05 16.83-4.35.14-18.52.28-24.41.28-19.36 0-37.46 1.26-46.71-8.42-3.79-3.93-6.31-10.66-7.01-15.29-.98-7.86.28-16.55 2.1-23.71 1.68-6.45 3.79-12.49 7.01-18.1 8.14-14.17 22.31-24.69 46.01-22.31 4.63.42 11.22 2.53 15.29 4.91.28.14 1.26.98 1.54 1.12 5.48 3.38 10.67 11.8 11.65 19.66z"/><path d="m155.69 216.41c-1.12 5.33-2.38 11.36-3.65 16.69h-19.5c1.54-5.89 2.67-11.64 4.21-16.69 6.31-.14 12.21 0 18.94 0"/><path d="m131.98 237.88h18.8c-2.53 13.61-7.29 35.63-11.22 50.92-2.38 9.54-3.93 16.55-10.52 21.6-.56.42-.98.28-1.4.7-1.26 1.12-6.73 2.53-9.82 2.81-4.91.56-10.52 0-16.69 0 1.54-5.89 3.37-12.91 4.77-18.1 14.87 1.82 15.29-12.2 18.1-25.81 1.95-7.86 7-29.04 7.98-32.12"/></g><path d="m88.07 273.51-.42.98c-6.87 13.33-19.08 21.6-36.47 22.02-8.14.14-15.85-1.96-20.9-4.21-10.94-4.91-20.06-14.03-25.11-23.71-7.15-13.89-8.42-33.25 6.45-47.84.28 0-1.82 3.09-1.54 3.09l-.42 1.4c-10.8 33.67 22.45 62.57 54.71 59.34 7.71-.83 17.53-5.04 23.7-11.07" fill="#21609b"/><path d="m68.43 259.48c8.14 0 16.55-3.79 21.6-9.12-4.35 11.08-17.11 18.38-34.23 15.99-14.31-1.96-27.92-16.27-29.32-30.72-.98-10.52 2.67-16.69 8.7-24.27-2.1 3.93-2.81 7.01-3.09 8.98-2.1 22.73 18.25 39 36.34 39.14" fill="#21609b"/><path d="m89.34 231.28c-1.26 2.95-8.56 8.42-11.78 8.98-12.77 2.67-20.9-3.37-25.11-10.24-.7-.98-1.82-3.79-1.96-4.49-1.68-5.61-.84-14.17 4.07-18.52-1.54 4.21-1.68 8.98-.98 12.2.42 1.96 1.96 5.19 3.37 7.29 2.67 3.79 4.35 4.77 7.72 6.73 1.54.98 3.09 1.68 3.79 1.82 3.2 1.28 9.93 3.67 20.88-3.77" fill="#21609b"/></svg>