<svg enable-background="new 0 0 512 512" viewBox="0 0 512 512" xmlns="http://www.w3.org/2000/svg"><g fill="#252525"><path d="m99.59 365.43v-150.09l-44.47 12.2v159.63c0 8.42-.7 14.03-1.96 16.97-1.26 2.95-3.23 4.35-5.61 4.35-1.12 0-2.52-.42-3.93-1.4-1.4-.84-3.23-2.67-5.19-5.47-1.82-2.52-4.07-4.91-6.87-7.43-2.81-2.52-6.45-3.79-11.22-3.79-6.17 0-11.22 1.54-14.87 4.63-3.65 3.09-5.47 6.88-5.47 11.5 0 5.47 3.37 10.1 9.96 14.03s16.13 5.89 28.48 5.89c9.26 0 17.53-.7 25.11-2.24 7.57-1.54 13.89-4.49 19.36-8.84 5.33-4.35 9.54-10.52 12.48-18.52 2.8-7.99 4.2-18.51 4.2-31.42z"/><path d="m161.32 219.55h-44.19v102.68c0 6.31 1.26 12.34 3.93 17.81 2.67 5.61 6.31 10.38 10.94 14.59s10.1 7.43 16.27 9.82c6.17 2.38 12.91 3.65 20.2 3.65 6.17 0 12.62-1.54 19.22-4.49 6.59-2.95 12.76-6.87 18.66-11.78v13.61h44.33v-145.89h-44.33v105.21c-3.37 5.19-7.29 9.54-11.78 12.91s-8.42 5.19-11.78 5.19c-2.95 0-5.75-.56-8.42-1.68-2.52-1.12-4.91-2.52-6.73-4.35-1.96-1.82-3.51-3.93-4.63-6.45s-1.68-5.19-1.68-8z"/><path d="m312.25 365.43v-216.72l-44.19 12.2v204.52z"/><path d="m329.78 227.54v137.89h44.33v-150.09z"/><path d="m467.53 290.11v42.08c-4.49 3.37-8.7 6.17-12.34 8.42-3.65 2.24-7.29 3.37-10.94 3.37-1.82 0-3.51-.56-5.05-1.68s-2.95-2.52-4.21-4.35c-1.26-1.82-2.24-3.93-2.95-6.45-.7-2.52-1.12-5.19-1.12-7.86 0-3.51 1.12-6.87 3.37-10.1 2.24-3.23 5.05-6.31 8.7-9.12 3.51-2.81 7.57-5.47 11.78-7.86 4.21-2.53 8.55-4.63 12.76-6.45zm44.47 75.32v-109.27c0-6.03-1.12-11.64-3.51-16.55s-5.89-9.12-10.94-12.62c-4.91-3.51-11.22-6.17-18.8-8s-16.55-2.81-27.07-2.81c-8.56 0-16.69.84-24.27 2.67-7.57 1.82-14.31 4.21-20.2 7.43-5.89 3.09-10.52 6.87-13.89 11.22s-5.19 8.98-5.19 14.03c0 5.47 1.96 9.96 5.89 13.47s8.98 5.33 15.15 5.33c4.07 0 7.29-.56 9.96-1.68s4.63-2.67 6.17-4.63c1.4-1.96 2.38-4.21 2.95-6.73.56-2.52.84-5.19.84-8 0-4.77 1.4-8.84 4.07-12.2 2.67-3.37 7.57-5.05 14.59-5.05 5.89 0 10.66 1.96 14.31 5.89 3.51 3.93 5.33 10.52 5.33 19.78v14.31l-4.91 1.12c-5.89 1.82-11.92 3.79-18.1 5.75-6.03 1.96-11.92 4.21-17.53 6.59s-10.94 5.05-15.85 7.86-9.26 6.03-12.91 9.68-6.59 7.72-8.7 12.2c-2.1 4.49-3.23 9.54-3.23 15.15 0 5.47.98 10.52 2.95 15.01 1.96 4.63 4.91 8.56 8.7 11.92s8.28 6.03 13.75 8c5.33 1.96 11.36 2.95 18.1 2.95 4.91 0 9.26-.42 12.76-1.12 3.65-.7 6.87-1.68 9.82-2.95 2.95-1.26 5.47-2.81 7.86-4.63 2.38-1.68 4.77-3.65 7.15-5.75v11.64h44.75z"/></g><circle cx="76.87" cy="176.91" fill="#6682df" r="27.49"/><path d="m76.87 204.26v2.1c16.27 0 29.6-13.19 29.6-29.6 0-16.27-13.19-29.6-29.6-29.6-16.27 0-29.6 13.19-29.6 29.6 0 16.27 13.19 29.6 29.6 29.6v-2.1-2.1c-7.01 0-13.33-2.81-17.96-7.43s-7.43-10.94-7.43-17.96 2.81-13.33 7.43-17.96c4.63-4.63 10.94-7.43 17.96-7.43 7.01 0 13.33 2.81 17.96 7.43 4.63 4.63 7.43 10.94 7.43 17.96s-2.81 13.33-7.43 17.96c-4.63 4.63-10.94 7.43-17.96 7.43z" fill="#4063d8"/><circle cx="355.03" cy="176.91" fill="#d5635c" r="27.49"/><path d="m355.03 204.26v2.1c16.27 0 29.6-13.19 29.6-29.6 0-16.27-13.19-29.6-29.6-29.6-16.27 0-29.6 13.19-29.6 29.6 0 16.27 13.19 29.6 29.6 29.6v-2.1-2.1c-7.01 0-13.33-2.81-17.96-7.43-4.63-4.63-7.43-10.94-7.43-17.96s2.81-13.33 7.43-17.96c4.63-4.63 10.94-7.43 17.96-7.43 7.01 0 13.33 2.81 17.96 7.43 4.63 4.63 7.43 10.94 7.43 17.96s-2.81 13.33-7.43 17.96-10.94 7.43-17.96 7.43z" fill="#cb3c33"/><circle cx="391.08" cy="115.19" fill="#60ad51" r="27.49"/><path d="m391.08 142.54v2.1c16.27 0 29.6-13.19 29.6-29.6 0-16.27-13.19-29.6-29.6-29.6-16.27 0-29.6 13.19-29.6 29.6 0 16.27 13.19 29.6 29.6 29.6v-2.1-2.1c-7.01 0-13.33-2.81-17.96-7.43-4.63-4.63-7.43-10.94-7.43-17.96 0-7.01 2.81-13.33 7.43-17.96 4.63-4.63 10.94-7.43 17.96-7.43 7.01 0 13.33 2.81 17.96 7.43 4.63 4.63 7.43 10.94 7.43 17.96 0 7.01-2.81 13.33-7.43 17.96s-10.94 7.43-17.96 7.43z" fill="#389826"/><circle cx="426.99" cy="176.91" fill="#aa79c1" r="27.49"/><path d="m426.99 204.26v2.1c16.27 0 29.6-13.19 29.6-29.6 0-16.27-13.19-29.6-29.6-29.6-16.27 0-29.6 13.19-29.6 29.6 0 16.27 13.19 29.6 29.6 29.6v-2.1-2.1c-7.01 0-13.33-2.81-17.96-7.43s-7.43-10.94-7.43-17.96 2.81-13.33 7.43-17.96c4.63-4.63 10.94-7.43 17.96-7.43s13.33 2.81 17.96 7.43c4.63 4.63 7.43 10.94 7.43 17.96s-2.81 13.33-7.43 17.96-10.94 7.43-17.96 7.43z" fill="#9558b2"/></svg>