<svg enable-background="new 0 0 512 512" viewBox="0 0 512 512" xmlns="http://www.w3.org/2000/svg"><path d="m163.5 497.3c-11.9 0-23.2-5.3-30.8-14.9l-115.9-144c-7.6-9.6-10.6-21.8-7.6-33.8l41.4-179.8c2.6-11.9 10.6-21.5 21.5-26.8l167.5-80c5.3-2.6 11.3-4 17.2-4 6 0 11.9 1.3 17.2 4l167.5 79.8c10.9 5.3 18.9 14.9 21.5 26.8l41.4 179.8c2.6 11.9 0 24.2-7.6 33.8l-115.8 143.9c-7.6 9.3-18.9 14.9-30.8 14.9z" fill="#326de6"/><g fill="#fff"><path d="m256.5 22.3c4.6 0 9.3 1 13.6 3l167.5 79.7c8.6 4.3 15.2 12.2 17.2 21.5l41.4 179.8c2.3 9.6 0 19.5-6.3 27.1l-115.9 144.1c-6 7.6-15.2 11.9-24.8 11.9h-185.7c-9.6 0-18.9-4.3-24.8-11.9l-115.9-144c-6-7.6-8.3-17.5-6.3-27.1l41.4-179.8c2.3-9.6 8.6-17.5 17.2-21.5l167.5-80.1c4.3-1.7 9.3-2.7 13.9-2.7zm0-15.6c-7 0-13.9 1.7-20.5 4.6l-167.5 80.2c-13.2 6.3-22.5 17.9-25.8 32.1l-41.4 179.7c-3.3 14.2 0 28.8 9.3 40.4l115.9 144c8.9 11.3 22.5 17.5 36.7 17.5h185.7c14.2 0 27.8-6.3 36.7-17.5l115.9-144c9.3-11.3 12.6-26.2 9.3-40.4l-41.4-179.8c-3.3-14.2-12.6-25.8-25.8-32.1l-166.9-80.1c-6.3-2.9-13.3-4.6-20.2-4.6z"/><path d="m424.3 292.1c-.3 0-.3 0 0 0h-.3c-.3 0-.7 0-.7-.3-.7 0-1.3-.3-2-.3-2.3-.3-4.3-.7-6.3-.7-1 0-2 0-3.3-.3h-.3c-7-.7-12.6-1.3-17.9-3-2.3-1-3-2.3-3.6-3.6 0-.3-.3-.3-.3-.7l-4.3-1.3c2-15.2 1.3-31.1-2.3-46.7s-9.9-30.1-18.5-43.4l3.3-3v-.7c0-1.7.3-3.3 1.7-5 4-3.6 8.9-6.6 14.9-10.3 1-.7 2-1 3-1.7 2-1 3.6-2 5.6-3.3.3-.3 1-.7 1.7-1.3.3-.3.7-.3.7-.7 4.6-4 5.6-10.6 2.3-14.9-1.7-2.3-4.6-3.6-7.6-3.6-2.6 0-5 1-7.3 2.6-.3.3-.3.3-.7.7-.7.3-1 1-1.7 1.3-1.7 1.7-3 3-4.3 4.6-.7.7-1.3 1.7-2.3 2.3-4.6 5-8.9 8.9-13.2 11.9-1 .7-2 1-3 1-.7 0-1.3 0-2-.3h-.7l-4 2.6c-4.3-4.6-8.9-8.6-13.6-12.6-19.9-15.6-44-25.2-69.2-27.5l-.3-4.3c-.3-.3-.3-.3-.7-.7-1-1-2.3-2-2.6-4.3-.3-5.3.3-11.3 1-17.9v-.3c0-1 .3-2.3.7-3.3.3-2 .7-4 1-6.3v-2-1c0-6-4.6-10.9-10.3-10.9-2.6 0-5.3 1.3-7.3 3.3s-3 4.6-3 7.6v.7 2c0 2.3.3 4.3 1 6.3.3 1 .3 2 .7 3.3v.3c.7 6.6 1.7 12.6 1 17.9-.3 2.3-1.7 3.3-2.6 4.3-.3.3-.3.3-.7.7l-.3 4.3c-6 .7-11.9 1.3-17.9 2.6-25.5 5.6-48 18.5-65.5 37.1l-3.3-2.3h-.7c-.7 0-1.3.3-2 .3-1 0-2-.3-3-1-4.3-3-8.6-7.3-13.2-12.2-.7-.7-1.3-1.7-2.3-2.3-1.3-1.7-2.6-3-4.3-4.6-.3-.3-1-.7-1.7-1.3-.3-.3-.7-.3-.7-.7-2-1.7-4.6-2.6-7.3-2.6-3 0-6 1.3-7.6 3.6-3.3 4.3-2.3 10.9 2.3 14.9.3 0 .3.3.7.3.7.3 1 1 1.7 1.3 2 1.3 3.6 2.3 5.6 3.3 1 .3 2 1 3 1.7 6 3.6 10.9 6.6 14.9 10.3 1.7 1.7 1.7 3.3 1.7 5v.7l3.3 3c-.7 1-1.3 1.7-1.7 2.6-16.6 26.2-22.8 56.9-18.5 87.4l-4.3 1.3c0 .3-.3.3-.3.7-.7 1.3-1.7 2.6-3.6 3.6-5 1.7-10.9 2.3-17.9 3h-.3c-1 0-2.3 0-3.3.3-2 0-4 .3-6.3.7-.7 0-1.3.3-2 .3-.3 0-.7 0-1 .3-6 1.3-9.6 7-8.6 12.2 1 4.6 5.3 7.6 10.6 7.6 1 0 1.7 0 2.6-.3.3 0 .7 0 .7-.3.7 0 1.3-.3 2-.3 2.3-.7 4-1.3 6-2.3 1-.3 2-1 3-1.3h.3c6.3-2.3 11.9-4.3 17.2-5h.7c2 0 3.3 1 4.3 1.7.3 0 .3.3.7.3l4.6-.7c7.9 24.5 23.2 46.3 43.4 62.2 4.6 3.6 9.3 6.6 14.2 9.6l-2 4.3c0 .3.3.3.3.7.7 1.3 1.3 3 .7 5.3-2 5-5 9.9-8.6 15.6v.3c-.7 1-1.3 1.7-2 2.6-1.3 1.7-2.3 3.3-3.6 5.3-.3.3-.7 1-1 1.7 0 .3-.3.7-.3.7-2.6 5.6-.7 11.9 4.3 14.2 1.3.7 2.6 1 4 1 4 0 7.9-2.6 9.9-6.3 0-.3.3-.7.3-.7.3-.7.7-1.3 1-1.7 1-2.3 1.3-4 2-6 .3-1 .7-2 1-3 2.3-6.6 4-11.9 7-16.6 1.3-2 3-2.3 4.3-3 .3 0 .3 0 .7-.3l2.3-4.3c14.6 5.6 30.5 8.6 46.3 8.6 9.6 0 19.5-1 28.8-3.3 6-1.3 11.6-3 17.2-5l2 3.6c.3 0 .3 0 .7.3 1.7.3 3 1 4.3 3 2.6 4.6 4.6 10.3 7 16.6v.3c.3 1 .7 2 1 3 .7 2 1 4 2 6 .3.7.7 1 1 1.7 0 .3.3.7.3.7 2 4 6 6.3 9.9 6.3 1.3 0 2.6-.3 4-1 2.3-1.3 4.3-3.3 5-6 .7-2.6.7-5.6-.7-8.3 0-.3-.3-.3-.3-.7-.3-.7-.7-1.3-1-1.7-1-2-2.3-3.6-3.6-5.3-.7-1-1.3-1.7-2-2.6v-.3c-3.6-5.6-7-10.6-8.6-15.6-.7-2.3 0-3.6.3-5.3 0-.3.3-.3.3-.7l-1.7-4c17.5-10.3 32.4-24.8 43.7-42.7 6-9.3 10.6-19.5 13.9-29.8l4 .7c.3 0 .3-.3.7-.3 1.3-.7 2.3-1.7 4.3-1.7h.7c5.3.7 10.9 2.6 17.2 5h.3c1 .3 2 1 3 1.3 2 1 3.6 1.7 6 2.3.7 0 1.3.3 2 .3.3 0 .7 0 1 .3 1 .3 1.7.3 2.6.3 5 0 9.3-3.3 10.6-7.6-.5-3.5-4.1-8.8-10.1-10.4zm-153.2-16.2-14.6 7-14.6-7-3.6-15.6 9.9-12.6h16.2l9.9 12.6zm86.4-34.5c2.6 11.3 3.3 22.5 2.3 33.4l-50.7-14.6c-4.6-1.3-7.3-6-6.3-10.6.3-1.3 1-2.6 2-3.6l40.1-36.1c5.6 9.4 9.9 19.9 12.6 31.5zm-28.5-51.3-43.4 30.8c-3.6 2.3-8.6 1.7-11.6-2-1-1-1.3-2.3-1.7-3.6l-3-54c23 2.7 43.8 12.9 59.7 28.8zm-96-27.1c3.6-.7 7-1.3 10.6-2l-3 53c-.3 4.6-4 8.6-8.9 8.6-1.3 0-3-.3-4-1l-44-31.5c13.5-13.6 30.4-22.8 49.3-27.1zm-65.2 47 39.4 35.1c3.6 3 4 8.6 1 12.2-1 1.3-2.3 2.3-4 2.6l-51.3 14.9c-2-22.4 3-45.3 14.9-64.8zm-9 89.7 52.6-8.9c4.3-.3 8.3 2.6 9.3 7 .3 2 .3 3.6-.3 5.3l-20.2 48.7c-18.5-12-33.4-30.3-41.4-52.1zm120.9 65.9c-7.6 1.7-15.2 2.6-23.2 2.6-11.6 0-22.8-2-33.4-5.3l26.2-47.3c2.6-3 7-4.3 10.6-2.3 1.7 1 3 2.3 4 3.6l25.5 46c-3.1 1-6.4 1.7-9.7 2.7zm64.5-46c-8.3 13.2-19.2 23.8-31.8 32.1l-20.9-50c-1-4 .7-8.3 4.6-10.3 1.3-.7 3-1 4.6-1l53 8.9c-1.9 7.4-5.2 14-9.5 20.3z"/></g></svg>