<svg enable-background="new 0 0 512 512" viewBox="0 0 512 512" xmlns="http://www.w3.org/2000/svg"><path d="m504.4 115.8c.2.7.3 1.4.3 2.1v109.9c0 2.9-1.5 5.5-4 7l-92.2 53.1v105.3c0 2.9-1.5 5.5-4 7l-192.6 110.7c-.4.3-.9.4-1.4.6-.2.1-.4.2-.5.2-1.3.4-2.8.4-4.1 0-.2-.1-.4-.2-.6-.3-.4-.2-.9-.3-1.3-.5l-192.6-110.8c-2.5-1.4-4-4.1-4-7v-329.7c0-.7.1-1.4.3-2.1.1-.2.2-.4.3-.7.2-.4.3-.9.5-1.2.1-.3.4-.5.6-.7.2-.3.4-.7.7-.9.2-.2.5-.4.8-.6s.6-.5.9-.7l96.3-55.4c2.5-1.4 5.5-1.4 8 0l96.3 55.4c.3.2.6.5.9.7s.6.4.8.6c.3.3.5.6.7.9.2.2.4.5.5.7.2.4.4.8.5 1.2.1.2.2.4.3.7.2.7.3 1.4.3 2.1v205.9l80.2-46.2v-105.2c0-.7.1-1.4.3-2.1.1-.2.2-.5.3-.7.2-.4.3-.9.5-1.2.1-.3.4-.5.5-.7.2-.3.4-.7.7-.9.2-.2.5-.4.8-.6s.6-.5.9-.7l96.3-55.4c2.5-1.4 5.5-1.4 8 0l96.3 55.4c.3.2.6.5.9.7s.5.4.8.6c.3.3.5.6.7.9.2.2.4.5.5.7.2.4.4.8.5 1.2-.1.3 0 .5.1.7zm-15.8 107.4v-91.4l-33.7 19.4-46.5 26.8v91.4zm-96.2 165.3v-91.4l-45.8 26.1-130.7 74.6v92.3zm-369-311.2v311.2l176.5 101.6v-92.3l-92.2-52.2c-.3-.2-.6-.4-.9-.7-.3-.2-.5-.4-.8-.6-.3-.3-.4-.6-.7-.8-.2-.3-.4-.5-.6-.8-.2-.3-.3-.7-.4-1s-.3-.6-.4-.9c-.1-.4-.1-.8-.2-1.2 0-.3-.1-.6-.1-.9v-215.2l-46.5-26.8zm88.2-60-80.2 46.1 80.2 46.2 80.2-46.2zm41.7 288.1 46.5-26.8v-201.3l-33.7 19.4-46.5 26.8v201.3zm247.1-233.6-80.2 46.2 80.2 46.2 80.2-46.2zm-8 106.2-46.5-26.8-33.7-19.4v91.4l46.5 26.8 33.7 19.4zm-184.5 205.9 117.6-67.2 58.8-33.6-80.1-46.1-92.3 53.1-84.1 48.4z" fill="#ff2d20"/></svg>