<svg enable-background="new 0 0 512 512" viewBox="0 0 512 512" xmlns="http://www.w3.org/2000/svg"><path d="m391.93 45.85c.14 0 .28.14.28.14l3.23-4.91c-.14-.14-.28-.14-.28-.28zm-38.58-20.34c6.73 2.81 13.19 5.89 19.78 9.4l2.81-5.19c-6.59-3.51-13.33-6.73-20.2-9.54zm-41.38-13.47c7.01 1.68 14.17 3.51 21.04 5.75l1.82-5.61c-7.15-2.24-14.31-4.21-21.6-5.89zm-43.21-6.03c7.29.42 14.45 1.12 21.74 2.1l.84-5.75c-7.43-.98-14.87-1.68-22.3-2.1zm-43.62 1.68c7.29-.84 14.45-1.54 21.74-1.68l-.28-5.89c-7.43.28-14.87.84-22.3 1.82zm-42.64 9.12c7.01-2.1 14.03-3.93 21.18-5.47l-1.26-5.75c-7.29 1.54-14.45 3.37-21.6 5.61zm-40.4 16.41c.14 0 .28-.14.28-.14 6.45-3.23 12.91-6.17 19.5-8.98l-2.24-5.47c-6.73 2.81-13.47 5.75-19.92 9.12-.14 0-.28.14-.28.14zm-37.03 23.01c5.75-4.35 11.78-8.42 17.96-12.34l-3.09-5.05c-6.31 3.93-12.48 8.14-18.38 12.62zm-32.41 29.32c4.91-5.33 10.1-10.38 15.57-15.29l-3.93-4.35c-5.61 5.05-10.8 10.24-15.85 15.71zm-26.65 34.36c3.93-6.03 8.14-12.06 12.62-17.81l-4.63-3.65c-4.63 5.89-8.84 11.92-12.91 18.24zm-20.48 38.58c2.81-6.73 5.89-13.33 9.4-19.78l-5.19-2.81c-3.51 6.59-6.73 13.33-9.54 20.2zm-13.47 41.38c1.68-7.15 3.51-14.17 5.75-21.04l-5.61-1.82c-2.24 7.15-4.35 14.31-5.89 21.46zm-6.03 43.2c.42-7.29 1.12-14.59 2.1-21.74l-5.75-.84c-.98 7.43-1.68 14.73-2.1 22.3zm1.54 43.63c-.84-7.29-1.4-14.45-1.68-21.74l-5.89.14c.28 7.43.84 14.87 1.82 22.3zm9.12 42.64c-2.1-7.01-3.93-14.03-5.47-21.18l-5.75 1.26c1.54 7.29 3.37 14.45 5.61 21.6zm16.41 40.4c0-.14-.14-.14-.14-.28-3.37-6.45-6.31-13.05-8.98-19.64l-5.47 2.24c2.81 6.73 5.75 13.47 9.12 20.06 0 .14.14.14.14.28zm23.15 37.03c-4.35-5.75-8.42-11.78-12.34-17.96l-5.05 3.09c3.93 6.31 8.14 12.48 12.62 18.38zm29.18 32.41c-5.33-4.91-10.38-10.1-15.29-15.57l-4.35 3.93c5.05 5.61 10.24 10.8 15.71 15.85zm34.36 26.79c-6.03-3.93-12.06-8.14-17.81-12.62l-3.65 4.63c5.89 4.63 11.92 8.84 18.24 12.91zm38.58 20.34c-6.73-2.81-13.33-5.89-19.78-9.4l-2.81 5.19c6.59 3.51 13.33 6.73 20.2 9.54zm41.52 13.47c-7.15-1.68-14.17-3.65-21.04-5.89l-1.82 5.61c7.01 2.24 14.31 4.35 21.46 6.03zm43.2 6.17c-7.29-.42-14.59-1.12-21.74-2.1l-.84 5.75c7.43.98 14.73 1.82 22.3 2.1zm43.49-1.54c-7.29.84-14.45 1.4-21.74 1.68l.14 5.89c7.43-.28 14.87-.84 22.3-1.82zm42.64-9.12c-7.01 2.1-14.03 3.93-21.18 5.47l1.26 5.75c7.29-1.54 14.45-3.37 21.6-5.61zm40.54-16.41c-6.59 3.37-13.19 6.31-19.92 9.12l2.24 5.47c6.87-2.81 13.61-5.89 20.2-9.26h.14zm36.89-23.15c-5.75 4.35-11.78 8.42-17.96 12.34l3.09 5.05c6.31-3.93 12.48-8.14 18.38-12.62zm32.41-29.18c-4.91 5.33-10.1 10.38-15.57 15.29l3.93 4.35c5.61-5.05 10.8-10.24 15.99-15.71zm26.79-34.36c-3.93 6.03-8.14 12.06-12.62 17.81l4.63 3.65c4.63-5.89 8.98-11.92 12.91-18.24zm20.48-38.44c-2.81 6.73-6.03 13.33-9.4 19.64l5.19 2.81c3.51-6.59 6.73-13.33 9.54-20.2zm13.47-41.52c-1.68 7.15-3.65 14.17-5.89 21.04l5.61 1.82c2.24-7.01 4.35-14.31 6.03-21.46zm6.17-43.2c-.42 7.29-1.12 14.59-2.1 21.74l5.75.84c.98-7.29 1.82-14.73 2.1-22.3zm-1.54-43.63c.84 7.29 1.4 14.45 1.68 21.74l5.89-.14c-.28-7.43-.84-14.87-1.68-22.3zm-9.12-42.64c2.1 7.01 3.93 14.03 5.47 21.18l5.75-1.26c-1.54-7.29-3.37-14.45-5.61-21.6zm-16.41-40.4c3.37 6.59 6.31 13.19 9.12 19.92l5.47-2.24c-2.81-6.87-5.89-13.61-9.26-20.34z" fill="#808080"/><circle cx="256" cy="255.98" fill="#000080" r="195.82"/><circle cx="337.08" cy="174.9" fill="#fff" r="57.37"/><circle cx="451.82" cy="60.16" fill="#000080" r="57.37"/><g fill="#fff"><path d="m202.98 353.89v-14.45h-63.41v-114.04h-16.41v128.49z"/><path d="m291.07 353.89v-92.3h-14.59v50.92c0 18.8-9.82 31.14-25.25 31.14-11.64 0-19.08-7.01-19.08-18.1v-63.96h-14.59v69.86c0 15.29 11.5 25.25 29.46 25.25 13.61 0 22.16-4.77 30.86-16.97v14.31z"/><path d="m398.52 353.47v-11.08c-1.54.42-2.24.42-3.23.42-5.05 0-8-2.67-8-7.29v-51.48c0-16.41-11.92-25.25-34.65-25.25-22.44 0-36.19 8.7-37.03 30.02h14.87c1.26-11.22 8-16.41 21.74-16.41 13.19 0 20.62 4.91 20.62 13.75v3.93c0 6.17-3.65 8.84-15.29 10.24-20.76 2.67-23.99 3.37-29.6 5.61-10.8 4.35-16.27 12.62-16.27 23.99 0 16.69 11.64 26.65 30.3 26.65 11.78 0 23.29-4.91 31.42-13.61 1.54 7.01 8 12.2 15.15 12.2 2.81-.15 5.2-.43 9.97-1.69m-25.81-31.56c0 13.19-13.33 21.74-27.63 21.74-11.5 0-18.1-4.07-18.1-14.17 0-9.68 6.45-13.89 22.16-16.27 15.57-2.1 18.66-2.81 23.57-5.05z"/></g></svg>