<svg enable-background="new 0 0 512 512" viewBox="0 0 512 512" xmlns="http://www.w3.org/2000/svg"><path d="m500.8 86c-7.9.3-5.4 2.5-22.5 6.7-17.3 4.2-38.4 2.9-56.9 10.7-55.5 23.3-66.6 102.8-117.1 131.3-37.7 21.3-75.8 23-110 33.7-22.5 7-47.1 21.5-67.4 39.1-15.8 13.6-16.2 25.6-32.7 42.7-17.7 18.3-70.2.3-94 28.3 7.7 7.8 11 9.9 26.2 7.9-3.1 5.9-21.6 10.9-18 19.7 3.8 9.2 48.4 15.4 89-9.1 18.9-11.4 33.9-27.8 63.4-31.8 38.1-5.1 81.9 3.3 126 9.6-6.5 19.5-19.7 32.4-30.2 48-3.3 3.5 6.5 3.9 17.7 1.8 20.1-5 34.6-9 49.7-17.8 18.6-10.8 21.5-38.7 44.3-44.7 12.7 19.6 47.4 24.2 68.9 8.5-18.9-5.3-24.1-45.5-17.7-63.2 6-16.7 12-43.5 18.1-65.7 6.5-23.8 8.9-53.7 16.8-65.8 11.9-18.2 25-24.5 36.4-34.7 11.4-10.3 21.8-20.3 21.5-43.8-.4-7.4-4.3-11.6-11.5-11.4z" fill="#002b64"/><path d="m483.8 99.9c1.9 6.5 4.9 9.4 17.7 10.6-1.9 16.3-12.7 25.2-24.9 33.7-10.7 7.5-22.4 14.7-30 26.5-7.7 12-12.6 53.1-24.6 93.7-10.3 35.1-26 69.8-53.2 85-2.9-7.2.4-20.4-5.3-24.8-3.7 10.5-7.8 20.4-12.7 29.7-16 30.6-39.7 53.5-79.3 60.5 18.8-25.4 36.8-51.7 37.2-95.5-13.2 2.9-12.9 34.1-26.5 42.5-8.7.9-17.5.9-26.4.4-36.5-2.2-73.9-13.2-108-2.2-23.2 7.5-42.2 25.1-61.9 33.6-23.1 10-40.6 14.2-69.4 10-3.7-4.9 21.1-11.3 19.6-22-11.3-1.2-17.8 1.5-27.6-3 1.1-2 2.7-3.7 4.7-5 18-12.4 69-2.9 82.6-16.3 8.4-8.3 14-16.9 19.7-25.3 5.5-8.2 11.3-16.1 20-23.2 3.2-2.6 6.7-5.2 10.5-7.8 14.9-10.2 33.3-19.4 51.5-25.8 24.7-8.7 49.7-9.4 76.1-19.5 16.3-6.2 34-13.9 48.4-24.6 3.4-2.6 6.7-5.3 9.7-8.2 41.2-40.1 49.3-110.9 113.6-117.5 7.8-.8 14.1-.5 19.9-.7 6.3-.4 12.2-1.1 18.6-4.8zm-78.3 226.6c.8 12.3 7.9 36.6 14.2 42.5-12.3 3-33.5-2-39-10.6 2.8-12.5 17.4-24 24.8-31.9z" fill="#c49a6c"/><path d="m488.4 113.7c-2.5 5.2-7.2 11.9-7.2 25.1 0 2.3-1.7 3.8-1.8.3.1-12.9 3.5-18.5 7.2-25.8 1.7-3 2.8-1.8 1.8.4zm-2.5-2c-2.9 5-10 14-11.1 27.2-.2 2.3-2.1 3.7-1.8.2 1.3-12.9 6.9-20.9 11.2-27.9 1.9-2.9 2.9-1.6 1.7.5zm-2.2-2.6c-3.3 4.7-14.2 15.5-16.4 28.6-.4 2.2-2.4 3.5-1.8 0 2.3-12.7 11.7-22.7 16.5-29.3 2.2-2.7 2.9-1.3 1.7.7zm-2.1-2.9-1.1 1.2c-4.8 5.2-16.1 17.8-19.8 29.4-.7 2.2-2.8 3.1-1.8-.2 4.1-12.3 15.4-25.4 21.1-31.3 2.6-2.4 3.2-.9 1.6.9zm-58.1 26.3c2.5-10.8 10.9-15.7 25.3-14.5 3.6 16.1-15.9 22.5-25.3 14.5z" fill="#002b64"/></svg>