<svg enable-background="new 0 0 512 512" viewBox="0 0 512 512" xmlns="http://www.w3.org/2000/svg"><path d="m477.19 243.38c-.42.14-.98 1.12-.98 1.68-.14 3.65-.14 13.46-.14 20.2 0 .14.28.56.56.56 1.4.14 4.77.14 7.57.14 3.93 0 6.31-.56 7.57-1.12 3.37-1.68 4.91-5.33 4.91-9.26 0-8.98-6.31-12.34-15.57-12.34-.69-.14-2.52-.14-3.92.14zm23.84 41.37c0-9.12-6.73-14.17-18.93-14.17-.56 0-4.49-.14-5.33.14-.28.14-.7.28-.7.56 0 6.59-.14 16.97.14 21.04.14 1.82 1.54 4.21 3.09 5.05 1.68.98 5.47 1.12 7.99 1.12 7.43-.27 13.74-4.34 13.74-13.74zm-42.63-46.42c.98 0 3.65.28 10.8.28 6.73 0 12.06-.14 18.65-.14 7.99 0 19.07 2.81 19.07 14.87 0 5.89-4.21 10.66-9.54 12.9-.28.14-.28.28 0 .42 7.71 1.96 14.59 6.73 14.59 15.85 0 8.84-5.61 14.45-13.6 17.95-4.91 2.1-10.94 2.81-17.25 2.81-4.77 0-17.39-.56-24.4-.42-.7-.28.7-3.65 1.26-4.21 1.68-.14 2.95-.14 4.77-.7 2.52-.7 2.81-1.4 3.09-5.19.14-3.23.14-14.73.14-22.86 0-11.22.14-18.79 0-22.44-.14-2.81-1.12-3.79-3.09-4.35-1.54-.28-4.21-.7-6.31-.98-.29-.29 1.25-3.37 1.82-3.79zm-53.3 57.5c2.24 1.82 6.59 2.52 10.38 2.52 5.05 0 9.96-.98 14.73-5.33 4.91-4.49 8.27-11.22 8.27-22.16 0-10.38-3.93-18.93-12.06-23.98-4.63-2.81-10.52-4.07-17.39-4.07-1.96 0-3.93.14-5.19.7-.28.14-.98.98-.98 1.54-.14 1.82-.14 16.13-.14 24.4 0 8.56 0 20.62.14 22.02.14 1.28.84 3.38 2.24 4.36zm-21.04-57.5c1.82 0 8.56.28 11.78.28 5.75 0 9.96-.28 21.04-.28 9.26 0 16.97 2.52 22.58 7.15 6.73 5.75 10.24 13.89 10.24 23.7 0 13.89-6.31 22.02-12.76 26.65-6.31 4.77-14.73 7.43-26.51 7.43-6.31 0-17.11-.14-26.09-.28h-.14c-.42-.84.7-4.07 1.54-4.21 2.38-.28 3.09-.42 4.21-.84 1.96-.7 2.24-1.82 2.52-5.19.28-6.31.14-14.03.14-22.72 0-6.17.14-18.23-.14-22.16-.28-3.23-1.68-4.07-4.49-4.63-1.4-.28-3.23-.7-5.75-.98-.27-.56 1.41-3.36 1.83-3.92z" fill="#8e714e"/><path d="m272.42 299.34c-2.24-.28-3.93-.7-6.03-1.54-.28-.14-.7-1.12-.7-1.54-.14-3.23-.14-12.48-.14-18.65 0-5.05-.84-9.4-2.95-12.34-2.52-3.51-6.03-5.61-10.66-5.61-4.07 0-9.54 2.81-14.03 6.59-.14.14-.84.7-.7-.28 0-.98.14-3.09.28-4.49.14-1.26-.7-1.96-.7-1.96-2.95 1.54-11.22 3.37-14.31 3.65-2.24.42-2.81 2.52-.42 3.37h.14c2.52.7 4.21 1.54 5.47 2.38.98.7.84 1.82.84 2.52.14 6.87.14 17.53-.14 23.42-.14 2.24-.7 3.09-2.38 3.51l.14-.14c-1.26.28-2.24.56-3.93.7-.56.56-.56 3.51 0 4.21.98 0 6.31-.28 10.8-.28 6.03 0 9.26.28 10.8.28.7-.7.84-3.51.42-4.21-1.82-.14-3.09-.28-4.21-.7-1.68-.42-2.1-1.26-2.24-3.09-.14-4.91-.14-15.29-.14-22.3 0-1.96.56-2.81 1.12-3.37 2.1-1.82 5.61-3.09 8.56-3.09s4.91.98 6.31 2.1c1.96 1.68 2.66 4.07 2.95 5.75.42 3.93.28 11.78.28 18.65 0 3.65-.28 4.63-1.68 5.05-.7.28-2.24.7-4.21.84-.7.7-.42 3.51 0 4.21 2.66 0 5.75-.28 10.38-.28 5.75 0 9.4.28 10.94.28.28-.14.42-2.94.14-3.64zm25.53-35.21c-4.91 0-7.99 3.79-7.99 9.68 0 6.03 2.66 12.9 10.24 12.9 1.26 0 3.65-.56 4.77-1.82 1.82-1.68 2.95-5.05 2.95-8.56.12-7.57-3.66-12.2-9.97-12.2zm-.7 40.82c-1.82 0-3.09.56-3.93.98-3.93 2.52-5.61 4.91-5.61 7.71 0 2.66.98 4.77 3.23 6.59 2.66 2.24 6.31 3.37 11.08 3.37 9.4 0 13.6-5.05 13.6-10.1 0-3.51-1.82-5.75-5.33-7.15-2.67-.84-7.29-1.4-13.04-1.4zm.7 23.98c-5.61 0-9.68-1.26-13.18-3.93-3.37-2.52-4.91-6.45-4.91-9.12 0-.7.14-2.81 1.82-4.63.98-1.12 3.23-3.23 8.56-6.87.14-.14.28-.14.28-.42s-.14-.42-.42-.42c-4.35-1.68-5.61-4.35-6.03-5.75v-.14c-.14-.56-.28-1.12.56-1.68.7-.42 1.54-.98 2.52-1.68 1.54-.98 3.23-1.96 4.21-2.81.14-.14.14-.42.14-.56s-.14-.42-.42-.42c-6.45-2.1-9.68-6.87-9.68-14.17 0-4.77 2.1-8.98 5.89-11.64 2.52-1.96 9.12-4.49 13.32-4.49h.28c4.35.14 6.73.98 10.1 2.24 1.82.7 3.65.98 6.03.98 3.65 0 5.19-1.12 6.45-2.38.14.14.28.7.42 1.82.14 1.26-.28 2.95-1.26 4.21-.7.98-2.38 1.82-4.07 1.82h-.42c-1.68-.14-2.38-.42-2.38-.42l-.42.14c-.14.14 0 .42.14.7l.14.14c.14.84.56 3.37.56 3.93 0 7.57-3.09 10.94-6.31 13.32-3.09 2.24-6.73 3.79-10.8 4.21-.14 0-.42 0-1.26.14-.42 0-1.12.14-1.26.14h.14c-.7.14-2.52 1.12-2.52 2.66 0 1.4.84 3.09 4.77 3.37.84.14 1.68.14 2.52.14 5.33.42 11.78.84 14.87 1.82 4.21 1.54 6.87 5.33 6.87 9.82 0 6.87-4.91 13.18-13.04 17.11-3.94 1.84-7.87 2.82-12.21 2.82zm52.59-64.37c-1.96 0-3.65.42-5.05 1.4-3.65 2.24-5.47 6.59-5.47 13.18 0 12.06 6.03 20.62 14.73 20.62 2.52 0 4.63-.7 6.31-2.24 2.66-2.24 4.07-6.59 4.07-12.9.28-12.07-5.75-20.06-14.59-20.06zm1.68 39.55c-15.71 0-21.32-11.5-21.32-22.3 0-7.57 3.09-13.46 9.12-17.53 4.35-2.66 9.54-4.21 14.17-4.21 12.06 0 20.48 8.56 20.48 21.04 0 8.42-3.37 15.01-9.68 19.07-3.09 1.96-8.42 3.93-12.77 3.93zm-164.51-39.55c-1.96 0-3.65.42-5.05 1.4-3.65 2.24-5.47 6.59-5.47 13.18 0 12.06 6.03 20.62 14.73 20.62 2.52 0 4.63-.7 6.31-2.24 2.66-2.24 4.07-6.59 4.07-12.9.13-12.07-5.76-20.06-14.59-20.06zm1.54 39.55c-15.71 0-21.32-11.5-21.32-22.3 0-7.57 3.09-13.46 9.12-17.53 4.35-2.66 9.54-4.21 14.17-4.21 12.06 0 20.48 8.56 20.48 21.04 0 8.42-3.37 15.01-9.68 19.07-2.95 1.96-8.28 3.93-12.77 3.93zm-105.47-.99c-.14-.28-.42-1.12-.28-2.1 0-.7.14-1.26.28-1.4 1.96-.28 2.95-.56 4.07-.84 1.82-.42 2.52-1.54 2.66-3.79.28-5.61.28-16.13.14-23.42v-.14c0-.84 0-1.82-.98-2.52-1.54-.98-3.23-1.82-5.61-2.38-.84-.28-1.4-.7-1.26-1.26 0-.56.56-1.26 1.82-1.4 3.09-.28 10.94-2.24 14.17-3.65.14.14.42.7.42 1.54l-.14.98c-.14.98-.14 2.24-.14 3.37 0 .42.42.7.7.7.14 0 .42-.14.56-.14 5.89-4.63 11.22-6.31 14.03-6.31 4.49 0 7.99 2.1 10.66 6.59.14.28.42.42.7.42.14 0 .42-.14.56-.28 5.47-4.21 10.94-6.59 14.45-6.59 8.56 0 13.6 6.31 13.6 17.25 0 3.09 0 7.01-.14 10.66 0 3.23-.14 6.17-.14 8.27 0 .42.7 1.96 1.68 2.24 1.26.7 3.09.98 5.33 1.26h.14c.14.7-.14 3.09-.56 3.51-.56 0-1.4 0-2.24-.14-1.82-.14-4.21-.14-7.01-.14-5.75 0-8.7.14-11.5.28-.14-.7-.28-2.95 0-3.51 1.68-.28 2.52-.56 3.51-.84 1.82-.56 2.24-1.4 2.38-3.79 0-1.82.42-16.69-.14-20.34s-3.37-7.99-9.4-7.99c-2.24 0-5.89.98-9.4 3.65-.14.14-.42.7-.42.98v.14c.42 1.96.42 4.21.42 7.57v6.03c0 4.21-.14 7.99 0 10.94 0 1.96 1.26 2.52 2.24 2.81.56.14.98.14 1.4.28.84.14 1.68.42 2.95.7.14.42.14 1.54-.14 2.52-.14.56-.28.84-.42.98-3.09-.14-6.31-.14-11.08-.14-1.4 0-3.79.14-5.75.14-1.68 0-3.23.14-4.21.14-.14-.14-.28-.84-.28-1.82 0-.84.14-1.54.42-1.68.42-.14.84-.14 1.26-.14 1.12-.14 1.96-.42 2.95-.56 1.54-.42 2.1-1.26 2.24-3.37.28-4.63.56-17.81-.14-21.18-1.12-5.33-4.21-7.99-9.12-7.99-2.81 0-6.45 1.4-9.4 3.65-.42.42-.84 1.26-.84 2.1v5.47c0 6.59 0 15.01.14 18.51.14 1.12.42 2.38 2.52 2.81.42.14 1.26.28 2.1.42l1.68.28c.14.56.14 2.81-.28 3.51-.98 0-1.96-.14-3.37-.14-1.96-.14-4.49-.14-7.15-.14-3.23 0-5.61.14-7.43.14-1.11-.71-2.09-.71-3.21-.71z" fill="#442d22"/><path d="m35.11 325.28-3.79-1.26s.42-19.35-6.45-20.76c-4.63-5.33.7-227.21 17.39-.7 0 0-5.75 2.81-6.73 7.71-1.12 4.92-.42 15.01-.42 15.01z" fill="#fff"/><path d="m35.11 325.28-3.79-1.26s.42-19.35-6.45-20.76c-4.63-5.33.7-227.21 17.39-.7 0 0-5.75 2.81-6.73 7.71-1.12 4.92-.42 15.01-.42 15.01z" fill="#a6a385"/><path d="m37.22 306.63s33.1-21.74 25.39-67.18c-7.43-32.96-25.11-43.76-27.07-47.97-2.1-2.95-4.21-8.13-4.21-8.13l1.4 91.73c0 .13-2.81 28.19 4.49 31.55" fill="#fff"/><path d="m37.22 306.63s33.1-21.74 25.39-67.18c-7.43-32.96-25.11-43.76-27.07-47.97-2.1-2.95-4.21-8.13-4.21-8.13l1.4 91.73c0 .13-2.81 28.19 4.49 31.55" fill="#499d4a"/><path d="m29.36 307.89s-31.14-21.18-29.31-58.63 23.7-55.82 28.05-59.19c2.81-2.95 2.81-4.07 3.09-7.01 1.96 4.21 1.54 62.13 1.82 69 .84 26.38-1.54 50.78-3.65 55.83z" fill="#fff"/><path d="m29.36 307.89s-31.14-21.18-29.31-58.63 23.7-55.82 28.05-59.19c2.81-2.95 2.81-4.07 3.09-7.01 1.96 4.21 1.54 62.13 1.82 69 .84 26.38-1.54 50.78-3.65 55.83z" fill="#58aa50"/></svg>