<svg enable-background="new 0 0 512 512" viewBox="0 0 512 512" xmlns="http://www.w3.org/2000/svg"><path d="m123.16 398.93h-19.78c-.7-33.39-2.67-64.67-5.75-94.12h-.14l-30.02 94.12h-15.01l-29.88-94.13h-.14c-2.24 28.2-3.65 59.62-4.21 94.12h-18.23c1.12-41.94 4.07-81.36 8.7-117.97h24.55l28.48 86.69h.14l28.62-86.69h23.43c5.17 42.93 8.26 82.35 9.24 117.98" fill="#6a7e91"/><path d="m208.73 311.82c-8 43.63-18.66 75.33-31.84 95.11-10.24 15.29-21.46 22.86-33.81 22.86-3.23 0-7.29-.98-12.06-2.95v-10.52c2.38.28 5.05.56 8.28.56 5.75 0 10.38-1.54 13.75-4.77 4.21-3.79 6.31-8.14 6.31-12.91 0-3.23-1.68-9.96-4.91-20.06l-21.74-67.33h19.36l15.57 50.36c3.51 11.5 4.91 19.36 4.35 23.99 8.56-22.72 14.45-47.55 17.81-74.35z" fill="#6a7e91"/><g fill="#fa8a3b"><path d="m471.74 398.93h-56.11v-118.11h18.94v103.52h37.17z"/><path clip-rule="evenodd" d="m400.9 401.73-21.74-10.66c1.96-1.54 3.79-3.23 5.47-5.33 9.26-10.8 13.89-26.79 13.89-48.11 0-39-15.29-58.63-46.01-58.63-15.01 0-26.79 4.91-35.21 14.87-9.26 10.8-13.75 26.79-13.75 47.97 0 20.76 4.07 35.91 12.2 45.59 7.43 8.7 18.66 13.05 33.81 13.05 5.61 0 10.8-.7 15.43-2.1l28.2 16.41zm-70.27-26.51c-4.77-7.72-7.15-20.06-7.15-37.03 0-29.74 8.98-44.61 27.07-44.61 9.4 0 16.41 3.51 20.76 10.66 4.77 7.72 7.15 19.92 7.15 36.75 0 30.02-8.98 44.89-27.07 44.89-9.4.14-16.28-3.5-20.76-10.66" fill-rule="evenodd"/><path d="m295.28 366.24c0 9.96-3.65 18.24-10.94 24.69s-17.25 9.68-29.6 9.68c-11.5 0-22.72-3.65-33.53-11.08l5.05-10.1c9.26 4.63 17.81 7.01 25.39 7.01 7.15 0 12.62-1.54 16.69-4.77 4.07-3.09 6.45-7.57 6.45-13.05 0-7.01-4.91-13.05-13.89-17.96-8.28-4.49-24.83-14.03-24.83-14.03-8.98-6.59-13.47-13.61-13.47-25.11 0-9.54 3.37-17.25 10.1-23.15s15.43-8.84 25.95-8.84c10.94 0 20.9 2.95 29.88 8.7l-4.63 10.1c-7.72-3.23-15.29-4.91-22.72-4.91-6.03 0-10.66 1.4-14.03 4.35-3.23 2.95-5.33 6.59-5.33 11.22 0 7.01 5.05 13.05 14.17 18.24 8.42 4.49 25.39 14.17 25.39 14.17 9.41 6.33 13.9 13.34 13.9 24.84"/></g><path clip-rule="evenodd" d="m495.45 241.4c-11.36-.28-20.2.84-27.63 3.93-2.1.84-5.61.84-5.89 3.51 1.12 1.12 1.26 2.95 2.24 4.63 1.68 2.81 4.63 6.73 7.43 8.7 2.95 2.24 6.03 4.49 9.12 6.59 5.61 3.51 11.78 5.47 17.25 8.84 3.09 1.96 6.31 4.49 9.4 6.73 1.54 1.12 2.52 2.95 4.49 3.65v-.42c-.98-1.26-1.26-3.09-2.24-4.63-1.4-1.4-2.81-2.67-4.35-4.07-4.21-5.61-9.26-10.38-14.87-14.45-4.63-3.09-14.59-7.43-16.41-12.62l-.28-.28c3.09-.28 6.87-1.4 9.82-2.24 4.91-1.26 9.26-.98 14.31-2.24 2.24-.56 4.63-1.26 6.87-1.96v-1.26c-2.52-2.52-4.49-6.03-7.15-8.42-7.29-6.31-15.29-12.34-23.57-17.53-4.49-2.81-10.1-4.63-14.87-7.15-1.68-.84-4.49-1.26-5.61-2.67-2.52-3.09-4.07-7.29-5.89-10.94-4.07-7.86-8.14-16.55-11.64-24.83-2.52-5.61-4.07-11.08-7.29-16.27-14.73-24.27-30.72-39-55.13-53.3-5.33-2.95-11.5-4.35-18.24-5.89-3.51-.14-7.15-.42-10.66-.56-2.24-.98-4.63-3.65-6.59-5.05-8.14-5.19-29.04-16.27-35.07-1.54-3.79 9.26 5.75 18.38 8.98 23.15 2.38 3.23 5.61 7.01 7.29 10.66.98 2.38 1.26 5.05 2.24 7.57 2.24 6.31 4.35 13.33 7.43 19.08 1.54 2.95 3.23 6.17 5.33 8.84 1.12 1.54 3.09 2.24 3.51 4.91-1.96 2.81-2.1 7.15-3.23 10.66-5.19 16.13-3.09 36.05 4.21 47.97 2.24 3.51 7.72 11.36 15.01 8.42 6.45-2.52 5.05-10.66 6.87-17.81.42-1.68.14-2.81.98-3.93v.28c1.96 3.93 3.93 7.86 5.89 11.78 4.49 7.01 12.06 14.31 18.52 19.08 3.37 2.52 6.17 7.01 10.38 8.56v-.42h-.28c-.84-1.26-2.1-1.82-3.23-2.81-2.52-2.52-5.47-5.75-7.43-8.56-6.03-8-11.22-16.83-15.99-25.95-2.24-4.49-4.35-9.26-6.17-13.75-.84-1.68-.84-4.21-2.24-5.19-2.1 3.09-5.33 5.89-6.87 9.68-2.67 6.17-2.95 13.75-4.07 21.6-.56.14-.28 0-.56.28-4.49-1.12-6.17-5.89-7.86-9.82-4.21-10.1-5.05-26.37-1.26-38.15.98-2.95 5.33-12.34 3.51-15.29-.84-2.67-3.65-4.21-5.33-6.45-1.82-2.67-3.93-6.17-5.19-9.12-3.37-8-5.19-16.83-8.84-24.83-1.68-3.65-4.77-7.57-7.15-10.94-2.67-3.79-5.75-6.59-7.86-11.08-.7-1.54-1.68-4.21-.56-5.89.28-1.12.84-1.54 1.96-1.82 1.82-1.54 7.15.42 8.98 1.26 5.33 2.1 9.68 4.21 14.17 7.15 1.96 1.4 4.21 4.07 6.73 4.91h2.95c4.63.98 9.68.28 14.03 1.54 7.57 2.38 14.45 6.03 20.48 9.82 18.66 11.78 34.09 28.62 44.47 48.82 1.68 3.23 2.38 6.31 4.07 9.68 2.95 7.01 6.73 14.17 9.68 21.04 2.95 6.73 5.89 13.61 10.1 19.08 2.1 2.95 10.66 4.49 14.59 6.17 2.81 1.26 7.29 2.38 9.82 3.93 4.91 2.95 9.68 6.45 14.31 9.68 2.5 1.5 9.66 5 10.08 7.95" fill="#6a7e91" fill-rule="evenodd"/><path clip-rule="evenodd" d="m349.98 117.4c-2.38 0-4.07.28-5.89.7v.28h.28c1.12 2.24 3.09 3.79 4.63 5.89 1.12 2.24 2.1 4.49 3.23 6.87l.28-.28c1.96-1.4 2.95-3.65 2.95-7.15-.84-.98-.98-1.96-1.68-2.95-.85-1.54-2.67-2.24-3.8-3.36" fill="#6a7e91" fill-rule="evenodd"/><path d="m509.05 398.93h2.95v-14.45h-4.49l-3.65 9.82-3.93-9.82h-4.21v14.45h2.81v-11.08h.14l4.07 10.94h2.1l4.07-10.94v11.08zm-23.84 0h3.09v-12.06h4.07v-2.52h-11.5v2.52h4.21v12.06z" fill="#fa8a3b"/></svg>