<svg enable-background="new 0 0 512 512" viewBox="0 0 512 512" xmlns="http://www.w3.org/2000/svg"><path d="m301.5 1c-3.7 0-7.1.8-10.3 1.9 6.7 4.5 10.4 10.4 12.3 17.2.1.9.4 1.6.5 2.5.1.8.3 1.6.3 2.4.5 11.6-3 13.1-5.6 20-3.8 8.9-2.8 18.4 1.9 26 .4.9.9 2 1.6 2.9-5-33.5 22.9-38.5 28-48.9.4-9.1-7.1-15.2-13.1-19.4-5.7-3.5-10.9-4.6-15.6-4.6zm42 7.5c-.5 3-.1 2.2-.3 3.8-.1 1.1-.1 2.4-.3 3.4-.3 1.1-.5 2.1-.9 3.2-.3 1.1-.7 2.1-1.1 3.2-.5 1.1-.9 2-1.5 3-.4.5-.7 1.1-1.1 1.6-.3.4-.5.8-.8 1.2-.7.9-1.3 1.9-2 2.6-.8.8-1.5 1.7-2.4 2.4v.1c-.8.7-1.6 1.5-2.5 2.1-2.8 2.1-5.9 3.7-8.9 5.7-.9.7-1.9 1.2-2.6 2-.9.7-1.7 1.3-2.5 2.1-.9.8-1.6 1.6-2.4 2.5-.7.8-1.5 1.7-2 2.6-.7.9-1.3 1.9-1.9 2.8-.5 1.1-.9 2-1.5 3-.4 1.1-.8 2-1.1 3-.4 1.2-.7 2.2-.9 3.3-.1.5-.1 1.2-.3 1.7-.1.5-.1 1.1-.3 1.6 0 1.1-.1 2.2-.1 3.3 0 .8 0 1.6.1 2.4 0 1.1.1 2.1.4 3.3.1 1.1.4 2.1.7 3.2.4 1.1.7 2.1 1.1 3.2.3.7.7 1.3.9 1.9l-30.4-11.8c-5.2-1.5-10.2-2.8-15.3-4-2.8-.7-5.6-1.3-8.3-2-7.9-1.6-16-2.8-24.1-3.6-.3 0-.4-.1-.7-.1-7.9-.8-15.7-1.2-23.7-1.2-5.8 0-11.6.3-17.3.7-8.1.5-16.1 1.6-24.2 2.9-2 .3-4 .7-5.9 1.1-4.1.8-8.1 1.7-11.9 2.6-2 .5-4 1.1-6 1.6-2 .8-3.8 1.7-5.7 2.5-1.5.7-2.9 1.3-4.4 2-.3.1-.5.1-.7.3-1.3.7-2.5 1.2-3.7 1.9-.4.1-.7.3-.9.4-1.5.7-2.9 1.5-4.1 2.1-.9.4-1.9.9-2.6 1.3-.4.3-.9.5-1.2.7-1.2.7-2.4 1.3-3.4 2-1.2.7-2.2 1.3-3.2 2s-1.9 1.2-2.6 1.9l-.4.3c-.8.5-1.7 1.2-2.5 1.9l-.3.3c-.7.5-1.3 1.1-2 1.6-.3.1-.5.4-.8.5-.7.5-1.3 1.2-2 1.7-.1.3-.4.4-.5.5-.8.8-1.6 1.5-2.4 2.2l-.3.3c-.8.7-1.6 1.5-2.4 2.2l-.3.3c-.7.7-1.3 1.3-2 2.1-.3.3-.7.5-.9.8-.7.8-1.5 1.6-2.2 2.4-.1.3-.4.4-.5.7-1.1 1.1-2 2.1-3 3.2l-.4.4c-2.1 2.2-4.4 4.5-6.7 6.5-2.4 2.1-4.9 4.1-7.4 5.8-2.6 1.9-5.2 3.4-7.9 5-2.6 1.5-5.4 2.8-8.3 4-2.8 1.2-5.7 2.2-8.6 3.2-5.6 1.2-11.2 3.4-16.1 3.8-1.1 0-2.2.3-3.3.4-1.2.3-2.2.5-3.3.8-1.1.4-2.1.8-3.2 1.2s-2.1.9-3.2 1.5c-.9.7-2 1.2-2.9 1.9s-1.9 1.5-2.6 2.2c-.9.7-1.9 1.6-2.6 2.4-.8.9-1.6 1.7-2.2 2.6-.7 1.1-1.5 2-2 3-.7.9-1.3 2-1.9 3-.5 1.2-1.1 2.2-1.5 3.4-.4 1.1-.8 2.2-1.2 3.4-.3 1.1-.5 2.1-.7 3.2l-.1.4c-.3 1.2-.3 2.8-.4 3.6-.1.9-.3 1.7-.3 2.6 0 .5 0 1.2.1 1.7.1.9.3 1.7.5 2.5s.5 1.6.9 2.4v.1c.4.8.9 1.6 1.5 2.4.5.8 1.1 1.6 1.7 2.4.7.7 1.5 1.5 2.2 2.1.8.8 1.6 1.5 2.5 2.1 3.2 2.8 4 3.7 8.1 5.8.7.4 1.3.7 2.1 1.1l.4.1c0 .3 0 .4.1.7.1 1.1.4 2.1.7 3.2.3 1.2.7 2.2 1.1 3.2.4.8.7 1.6 1.1 2.4.1.3.3.5.4.7.5 1.1 1.1 2 1.6 2.9.7.9 1.3 1.9 2 2.8.7.8 1.5 1.7 2.2 2.5.8.8 1.6 1.5 2.5 2.2l.3.1c.8.7 1.6 1.3 2.4 1.9.9.7 1.9 1.2 2.9 1.7.9.5 2 1.1 3 1.5.8.4 1.7.7 2.6.9.1.1.3.1.5.3.5.1 1.2.3 1.7.4-.4 7.1-.5 13.9.5 16.3 1.2 2.6 7-5.4 12.8-14.7-.8 9.1-1.3 19.8 0 23 1.5 3.3 9.4-7 16.3-18.4 93.7-21.7 179.3 43.1 188.3 134.6-1.7-14.3-19.3-22.2-27.4-20.2-4 9.8-10.7 22.3-21.6 30.1.9-8.7.5-17.7-1.3-26.4-2.9 12.2-8.6 23.5-16.4 33.3-12.6.9-25.1-5.2-31.7-14.3-.5-.4-.7-1.2-1.1-1.7-.4-.9-.8-1.8-1.1-2.8-.4-.9-.7-1.9-.8-2.8s-.1-1.9-.1-2.9c0-.7 0-1.3 0-2 .1-.9.4-1.9.7-2.8s.5-1.8.9-2.8c.5-.9.9-1.9 1.6-2.8 2.2-6.3 2.2-11.5-1.9-14.5-.8-.5-1.6-.9-2.5-1.3-.5-.1-1.2-.4-1.7-.5-.4-.1-.7-.3-1.1-.4-.9-.3-1.9-.5-2.8-.7-.9-.3-1.9-.4-2.8-.4-.9-.1-2-.3-2.9-.3-.7 0-1.3.1-2 .1-1.1 0-2 .1-2.9.4-.9.1-1.9.3-2.8.5s-1.9.5-2.8.9-1.7.8-2.6 1.2c-.8.4-1.6.9-2.5 1.3-30.8 20.1-12.4 67.2 8.6 80.8-7.9 1.5-16 3.2-18.2 4.9l-.3.3c5.7 3.4 11.6 6.3 17.9 8.9 8.5 2.8 17.5 5.3 21.4 6.3v.1c11 2.2 22.1 3 33.3 2.4 58.6-4.1 106.6-48.7 115.3-107.4.3 1.2.5 2.2.8 3.4.4 2.4.9 4.9 1.2 7.4v.1c.3 1.2.4 2.4.5 3.4v.5c.1 1.2.3 2.4.3 3.4.1 1.5.3 2.9.3 4.4v2.1c0 .7.1 1.5.1 2.1 0 .8-.1 1.6-.1 2.4v1.9c0 .9-.1 1.7-.1 2.6 0 .5 0 1.1-.1 1.7 0 .9-.1 1.9-.1 2.9-.1.4-.1.8-.1 1.2-.1 1.1-.3 2-.4 3 0 .4 0 .8-.1 1.2-.1 1.3-.4 2.5-.5 3.8v.1.1c-.3 1.2-.5 2.5-.8 3.7v.4c-.3 1.2-.5 2.4-.8 3.6l-.1.5c-.3 1.2-.5 2.4-.9 3.6v.4c-.4 1.3-.8 2.5-1.1 3.7l-.1.3c-.4 1.3-.8 2.6-1.2 4-.5 1.3-.9 2.5-1.5 3.8s-.9 2.6-1.5 3.8c-.5 1.3-1.1 2.5-1.6 3.8h-.1c-.5 1.2-1.1 2.5-1.7 3.7-.1.4-.3.7-.4.9l-.3.4c-8.6 17.3-21.3 32.5-37.2 44.4-1.1.7-2.1 1.5-3.2 2.2-.3.3-.7.4-.9.7-.9.7-1.9 1.3-2.9 2l.4.8h.1c1.9-.3 3.7-.5 5.6-.8h.1c3.4-.5 6.9-1.2 10.3-1.8.9-.1 2-.4 2.9-.7.7-.1 1.2-.3 1.9-.4.9-.1 1.9-.4 2.8-.5.8-.3 1.6-.4 2.4-.7 13.2-3.2 26-7.5 38.3-12.7-21 28.7-49.2 51.8-82.1 67 15.2-1.1 30.4-3.6 45.1-7.8 53.3-15.7 98.1-51.6 125-99.8-5.4 30.5-17.6 59.6-35.6 85 12.8-8.5 24.6-18.2 35.3-29.4 29.6-30.9 49.1-70.2 55.7-112.4 4.5 20.9 5.8 42.4 3.8 63.7 95.5-133.2 7.9-271.2-28.7-307.6-.1-.3-.3-.4-.3-.7l-.1.3-.1-.3c0 1.6-.1 3.2-.3 4.8-.4 3-.8 6-1.3 8.9-.7 2.9-1.5 5.8-2.2 8.7-.9 2.8-2 5.7-3.2 8.5-1.2 2.6-2.5 5.4-4 8.1-1.5 2.5-3 5.2-4.8 7.5-1.7 2.5-3.6 4.9-5.4 7.1-2 2.4-4.1 4.5-6.2 6.6-1.3 1.2-2.5 2.2-3.8 3.3-1.1.9-2 1.7-3 2.6-2.4 1.9-4.8 3.6-7.4 5.2-2.5 1.6-5.2 3.2-7.8 4.5-2.8 1.3-5.6 2.5-8.3 3.7-2.8 1.1-5.7 2-8.6 2.8s-6 1.5-8.9 2c-3 .5-6.1.8-9 1.1-2.1.1-4.2.3-6.3.3-3 0-6.1-.3-9-.5-3-.3-6.1-.7-9-1.3-3-.5-6-1.3-8.9-2.2h-.1c2.9-.3 5.8-.5 8.7-1.1 3-.5 6-1.2 8.9-2s5.8-1.7 8.6-2.8c2.9-1.1 5.7-2.4 8.3-3.7 2.8-1.3 5.3-2.8 7.9-4.4 2.5-1.7 5-3.4 7.4-5.3s4.6-3.8 6.7-6c2.2-2 4.2-4.2 6.2-6.5 2-2.4 3.8-4.8 5.6-7.1.3-.4.5-.9.8-1.3 1.3-2.1 2.6-4.2 3.8-6.3 1.5-2.6 2.8-5.3 4-8.1s2.2-5.6 3.2-8.5c.9-2.8 1.6-5.7 2.2-8.6.5-3 1.1-6 1.3-8.9.3-3 .5-6.1.5-9 0-2.1-.1-4.2-.3-6.3-.3-3-.7-6-1.1-8.9-.5-3-1.2-6-2-8.9-.9-2.8-1.9-5.7-2.9-8.5-1.1-2.8-2.4-5.6-3.7-8.2-1.5-2.6-2.9-5.3-4.5-7.8-1.7-2.5-3.4-4.9-5.3-7.3-2-2.2-4-4.5-6.1-6.7-1.1-1.1-2.2-2.2-3.4-3.3-6-4.6-12.2-9-18.4-13-.9-.5-1.7-.9-2.6-1.3-3.9-2.1-8-3.5-12.1-4.9z" fill="#e0234e"/></svg>