<svg enable-background="new 0 0 512 512" viewBox="0 0 512 512" xmlns="http://www.w3.org/2000/svg"><path d="m0 0h512v512h-512z" fill="#672a7a"/><g fill="#fff"><path d="m329.5 195.68c2.67-2.38 3.93-5.19 3.93-8.7 0-3.23-1.12-5.75-3.09-7.86-1.54-1.68-4.21-3.23-7.86-4.77-3.23-1.4-5.47-2.52-6.45-3.51-1.12-1.12-1.68-2.52-1.68-4.49 0-1.82.7-3.23 2.1-4.35s3.23-1.68 5.47-1.68c3.65 0 6.87.98 9.68 3.09v-6.87c-2.67-1.4-5.75-1.96-9.12-1.96-4.49 0-8 1.12-10.94 3.51-2.81 2.38-4.21 5.33-4.21 8.84 0 3.23.84 5.75 2.67 7.72 1.54 1.68 4.07 3.23 7.72 4.91 3.51 1.54 5.89 2.81 7.01 3.93 1.26 1.12 1.82 2.52 1.82 4.07 0 3.93-2.67 6.03-8.14 6.03-4.07 0-7.72-1.4-11.08-4.07v7.43c3.09 1.68 6.59 2.52 10.66 2.52 4.64 0 8.57-1.26 11.51-3.79z"/><path d="m394.03 198.35h6.87v-37.03h10.1v-5.75h-10.1v-6.59c0-6.03 2.38-9.12 7.15-9.12 1.68 0 3.23.42 4.49 1.12v-6.17c-1.26-.56-2.81-.7-4.91-.7-3.65 0-6.73 1.12-9.26 3.51-2.95 2.67-4.35 6.31-4.35 11.08v7.01h-7.29v5.75h7.29v36.89z"/><path d="m175.34 144.62c1.26 0 2.38-.42 3.23-1.26.84-.84 1.26-1.96 1.26-3.23 0-1.26-.42-2.24-1.26-3.09-.84-.84-1.96-1.26-3.23-1.26-1.26 0-2.24.42-3.23 1.26-.84.84-1.26 1.96-1.26 3.09 0 1.26.42 2.38 1.26 3.23.99.84 2.11 1.26 3.23 1.26z"/><path d="m209.71 199.47c4.49 0 8.42-.98 11.78-2.95v-6.45c-3.23 2.52-6.73 3.65-10.52 3.65-4.49 0-8-1.4-10.66-4.35-2.67-2.95-3.93-6.87-3.93-11.78 0-5.19 1.4-9.4 4.35-12.48 2.81-3.09 6.31-4.63 10.66-4.63 3.65 0 7.01 1.12 10.24 3.37v-7.01c-2.95-1.4-6.17-2.24-9.96-2.24-6.73 0-12.2 2.1-16.27 6.45s-6.03 9.96-6.03 16.97c0 6.31 1.82 11.36 5.47 15.29 3.79 4.06 8.7 6.16 14.87 6.16z"/><path d="m453.51 158.93h1.26c.98 0 1.82.84 2.67 2.67l1.54 3.51h2.52l-1.96-3.93c-.84-1.54-1.54-2.52-2.38-2.67 1.12-.28 2.1-.7 2.67-1.4.7-.7.98-1.54.98-2.52 0-1.12-.42-1.96-1.12-2.81-.98-.84-2.24-1.26-4.07-1.26h-4.07v14.59h2.1v-6.17h-.14zm0-6.59h1.82c1.26 0 2.1.28 2.67.7.42.42.7.98.7 1.82 0 1.68-.98 2.52-2.95 2.52h-2.24z"/><path d="m421.94 186.7c0 8.42 3.79 12.62 11.22 12.62 2.67 0 4.77-.42 6.45-1.4v-5.89c-1.26.98-2.67 1.4-4.49 1.4-2.24 0-3.93-.56-4.91-1.82-.98-1.12-1.4-3.23-1.4-6.17v-24.13h10.8v-5.75h-10.8v-12.62c-2.38.84-4.63 1.54-6.87 2.24v10.52h-7.29v5.75h7.29z"/><path d="m455.89 169.17c3.23 0 5.89-1.12 8.14-3.23 2.24-2.1 3.37-4.91 3.37-8.14s-1.12-6.03-3.37-8.14c-2.1-2.1-4.91-3.09-8-3.09-3.23 0-6.03 1.12-8.14 3.23-2.24 2.24-3.23 4.91-3.23 8 0 3.23 1.12 5.89 3.23 8.14s4.77 3.23 8 3.23zm-7.15-18.38c1.96-1.96 4.35-2.95 7.15-2.95s5.19.98 7.15 2.81c1.96 1.96 2.95 4.35 2.95 7.15 0 2.81-.98 5.33-2.95 7.15-1.96 1.96-4.35 2.95-7.15 2.95s-5.19-.98-7.15-2.81c-1.96-1.96-2.95-4.35-2.95-7.29.14-2.66 1.12-5.04 2.95-7.01z"/><path d="m171.84 155.56h6.87v42.78h-6.87z"/><path d="m278.16 199.47c6.45 0 11.64-2.1 15.57-6.17 3.79-4.07 5.75-9.54 5.75-16.41s-1.82-12.34-5.33-16.41c-3.65-3.93-8.56-5.89-15.01-5.89s-11.64 1.96-15.57 5.75c-4.21 4.07-6.31 9.82-6.31 17.25 0 6.59 1.82 11.78 5.47 15.71 3.79 4.07 8.98 6.17 15.43 6.17zm-9.82-34.93c2.52-2.81 6.03-4.21 10.24-4.21 4.35 0 7.72 1.4 10.1 4.07 2.52 2.81 3.65 7.01 3.65 12.48 0 5.19-1.12 9.26-3.51 12.2-2.38 2.95-5.75 4.35-10.38 4.35-4.35 0-7.86-1.4-10.38-4.35-2.67-2.81-3.93-6.87-3.93-12.06.15-5.32 1.55-9.53 4.21-12.48z"/><path d="m376.64 193.16c3.79-4.07 5.75-9.54 5.75-16.41s-1.82-12.34-5.33-16.41c-3.65-3.93-8.56-5.89-15.01-5.89s-11.64 1.96-15.57 5.75c-4.21 4.07-6.31 9.82-6.31 17.25 0 6.59 1.82 11.78 5.47 15.71 3.79 4.07 8.84 6.17 15.29 6.17 6.59.14 11.78-1.96 15.71-6.17zm-29.46-15.99c0-5.47 1.4-9.68 4.07-12.62 2.52-2.81 6.03-4.21 10.24-4.21 4.35 0 7.72 1.4 10.1 4.07 2.52 2.81 3.79 7.01 3.79 12.48 0 5.19-1.12 9.26-3.51 12.2-2.38 2.95-5.75 4.35-10.38 4.35-4.35 0-7.86-1.4-10.38-4.35-2.53-2.67-3.93-6.73-3.93-11.92z"/><path d="m275.78 303.83h56.81v-16.69h-56.81v-52.32h61.3v-16.69h-79.68v157.24h83.33v-16.69h-64.95z"/><path d="m357.98 234.82h45.45v140.55h18.37v-140.55h45.31v-16.69h-109.13z"/><path d="m56.67 353.21c-3.37 0-6.17 1.26-8.56 3.65-2.38 2.38-3.51 5.33-3.51 8.84 0 3.37 1.12 6.31 3.51 8.7 2.38 2.38 5.19 3.65 8.56 3.65 3.51 0 6.31-1.26 8.84-3.65 2.38-2.38 3.65-5.33 3.65-8.7s-1.26-6.31-3.65-8.7c-2.53-2.67-5.47-3.79-8.84-3.79z"/><path d="m243.52 157.11c-2.1 1.68-3.65 4.07-4.63 7.29h-.14v-8.84h-6.87v42.78h6.87v-21.88c0-4.91 1.12-8.84 3.23-11.64 1.96-2.52 4.21-3.79 7.01-3.79 2.24 0 4.07.42 5.19 1.4v-7.15c-.98-.42-2.24-.56-4.07-.56-2.39.14-4.63.84-6.59 2.39z"/><path d="m102.4 146.45h.14l22.3 51.9h3.37l22.3-51.9h.14l-.56 51.9h7.02v-59.9h-8.84l-21.6 48.96h-.42l-21.04-48.96h-9.26v59.9h6.73z"/><path d="m204.24 350.97-84.45-132.84h-23.98v157.24h18.51v-134.8l85.85 134.8h22.3v-157.24h-18.23z"/></g></svg>