<svg enable-background="new 0 0 512 512" viewBox="0 0 512 512" xmlns="http://www.w3.org/2000/svg" xmlns:xlink="http://www.w3.org/1999/xlink"><clipPath id="a"><path d="m185.96 171.67-48.83 28.2c-1.82 1.12-2.95 2.95-2.95 5.05v56.41c0 2.1 1.12 4.07 2.95 5.05l48.83 28.2c1.82.98 4.07.98 5.89 0l48.83-28.2c1.82-1.12 2.95-2.95 2.95-5.05v-56.41c0-2.1-1.12-4.07-2.95-5.05l-48.83-28.2c-.98-.56-1.96-.84-2.95-.84s-1.95.28-2.94.84"/></clipPath><linearGradient id="b" gradientTransform="matrix(-81.162 165.5699 165.5699 81.162 -83035.2344 -41939.168)" gradientUnits="userSpaceOnUse" x1="6.2666" x2="7.1353" y1="505.9374" y2="505.9374"><stop offset="0" stop-color="#3e863d"/><stop offset=".3" stop-color="#3e863d"/><stop offset=".5" stop-color="#55934f"/><stop offset=".8" stop-color="#5aad45"/><stop offset="1" stop-color="#5aad45"/></linearGradient><clipPath id="c"><path d="m135.45 264.84c.42.56.98 1.12 1.68 1.54l41.81 24.13 7.02 4.07c.98.56 2.25.84 3.37.7.42 0 .84-.14 1.12-.28l51.49-94.15c-.42-.42-.84-.84-1.4-1.12l-31.99-18.38-16.84-9.68c-.42-.28-.98-.42-1.54-.56z"/></clipPath><linearGradient id="d" gradientTransform="matrix(147.809 -109.2133 -109.2133 -147.809 54515.457 75705.9922)" gradientUnits="userSpaceOnUse" x1="5.8621" x2="6.7304" y1="505.9582" y2="505.9582"><stop offset="0" stop-color="#3e863d"/><stop offset=".57" stop-color="#3e863d"/><stop offset=".72" stop-color="#619857"/><stop offset="1" stop-color="#76ac64"/></linearGradient><clipPath id="e"><path d="m188.35 170.83c-.84.14-1.68.28-2.39.7l-48.69 28.06 52.48 95.55c.7-.14 1.4-.28 2.1-.7l48.83-28.2c1.54-.84 2.53-2.39 2.81-4.07l-53.46-91.2c-.42-.14-.84-.14-1.12-.14s-.42 0-.56 0"/></clipPath><linearGradient id="f" gradientTransform="matrix(122.2438 0 0 -122.2438 -577.9164 62060.3242)" gradientUnits="userSpaceOnUse" x1="5.8517" x2="6.7194" y1="505.7708" y2="505.7708"><stop offset="0" stop-color="#6bbf47"/><stop offset=".16" stop-color="#6bbf47"/><stop offset=".38" stop-color="#79b461"/><stop offset=".47" stop-color="#75ac64"/><stop offset=".7" stop-color="#659e5a"/><stop offset=".9" stop-color="#3e863d"/><stop offset="1" stop-color="#3e863d"/></linearGradient><path d="m253.03 412.87c-1.68 0-3.37-.42-4.91-1.26l-15.43-9.12c-2.25-1.26-1.12-1.68-.42-1.96 3.09-1.12 3.65-1.26 7.02-3.23.28-.14.84-.14 1.12.14l11.93 7.02c.42.28.98.28 1.4 0l46.3-26.66c.42-.28.7-.7.7-1.26v-53.32c0-.56-.28-.98-.7-1.26l-46.16-26.66c-.42-.28-.98-.28-1.4 0l-46.16 26.66c-.42.28-.7.7-.7 1.26v53.32c0 .56.28.98.7 1.26l12.63 7.3c6.88 3.51 11.08-.56 11.08-4.63v-52.9c0-.7.56-1.26 1.4-1.26h5.89c.7 0 1.26.56 1.26 1.26v52.76c0 9.12-5.05 14.45-13.75 14.45-2.67 0-4.77 0-10.66-2.95l-12.07-7.02c-2.95-1.68-4.91-4.91-4.91-8.42v-53.32c0-3.51 1.82-6.73 4.91-8.42l46.3-26.66c2.95-1.68 6.88-1.68 9.68 0l46.3 26.66c2.95 1.68 4.91 4.91 4.91 8.42v53.32c0 3.51-1.82 6.73-4.91 8.42l-46.3 26.66c-1.68.84-3.36 1.4-5.05 1.4" fill="#689f63"/><path d="m267.35 376.11c-20.2 0-24.41-9.26-24.41-17.12 0-.7.56-1.26 1.4-1.26h6.03c.7 0 1.26.42 1.26 1.12.84 6.03 3.65 9.12 15.86 9.12 9.68 0 13.89-2.25 13.89-7.44 0-2.95-1.12-5.19-16.28-6.73-12.63-1.26-20.49-4.07-20.49-14.17 0-9.4 7.86-14.87 21.05-14.87 14.87 0 22.17 5.19 23.01 16.14 0 .42-.14.7-.42.98s-.56.42-.98.42h-6.03c-.56 0-1.12-.42-1.26-.98-1.4-6.45-4.91-8.42-14.45-8.42-10.66 0-11.93 3.65-11.93 6.45 0 3.37 1.4 4.35 15.86 6.31 14.17 1.82 20.91 4.49 20.91 14.59-.01 10.1-8.43 15.86-23.02 15.86m56.26-56.55h1.54c1.26 0 1.54-.84 1.54-1.4 0-1.4-.98-1.4-1.4-1.4h-1.54zm-1.96-4.49h3.51c1.12 0 3.51 0 3.51 2.67 0 1.82-1.12 2.25-1.82 2.39 1.4.14 1.4.98 1.68 2.24.14.84.28 2.24.56 2.67h-2.1c0-.42-.42-2.95-.42-3.09-.14-.56-.28-.84-.98-.84h-1.68v4.07h-1.96v-10.1h-.3zm-4.07 5.05c0 4.21 3.37 7.44 7.44 7.44 4.21 0 7.44-3.37 7.44-7.44 0-4.21-3.37-7.44-7.44-7.44-4.08.01-7.44 3.23-7.44 7.44m16.41 0c0 4.91-4.07 8.98-8.98 8.98s-8.98-3.93-8.98-8.98 4.21-8.98 8.98-8.98c4.77.14 8.98 3.93 8.98 8.98" fill="#689f63"/><path d="m109.77 203.94c0-2.1-1.12-4.07-2.95-5.19l-48.97-28.2c-.84-.42-1.82-.7-2.67-.84h-.56c-.98 0-1.82.28-2.67.84l-48.95 28.2c-1.82 1.12-2.95 3.09-2.95 5.19l.14 76.05c0 1.12.56 2.1 1.4 2.53.84.56 2.1.56 2.95 0l29.04-16.7c1.82-1.12 2.95-3.09 2.95-5.19v-35.5c0-2.1 1.12-4.07 2.95-5.19l12.35-7.16c.98-.56 1.96-.84 2.95-.84s2.1.28 2.95.84l12.35 7.16c1.82 1.12 2.95 2.95 2.95 5.19v35.5c0 2.1 1.12 4.07 2.95 5.19l29.18 16.7c.98.56 2.1.56 2.95 0 .84-.56 1.4-1.54 1.4-2.53zm231.38 39.57c0 .56-.28.98-.7 1.26l-16.84 9.68c-.42.28-.98.28-1.54 0l-16.84-9.68c-.42-.28-.7-.7-.7-1.26v-19.5c0-.56.28-.98.7-1.26l16.84-9.68c.42-.28.98-.28 1.54 0l16.84 9.68c.42.28.7.7.7 1.26zm4.63-143.96c-.98-.56-2.1-.56-2.95 0s-1.4 1.54-1.4 2.53v75.35c0 .7-.42 1.4-.98 1.82-.7.42-1.4.42-2.1 0l-12.35-7.02c-1.82-1.12-4.07-1.12-5.89 0l-49.11 28.34c-1.82 1.12-2.95 2.95-2.95 5.05v56.69c0 2.1 1.12 4.07 2.95 5.19l49.11 28.34c1.82 1.12 4.07 1.12 5.89 0l49.11-28.34c1.82-1.12 2.95-2.95 2.95-5.19v-141.29c0-2.1-1.12-4.07-3.09-5.19zm163.32 124.04c1.82-1.12 2.95-2.95 2.95-5.05v-13.75c0-2.1-1.12-4.07-2.95-5.19l-48.69-28.34c-1.82-1.12-4.07-1.12-5.89 0l-49.11 28.34c-1.82 1.12-2.95 2.95-2.95 5.19v56.55c0 2.1 1.12 4.07 2.95 5.19l48.69 27.78c1.82.98 3.93.98 5.75 0l29.47-16.42c.98-.56 1.54-1.54 1.54-2.53 0-1.12-.56-2.1-1.54-2.53l-49.39-28.34c-.98-.56-1.54-1.54-1.54-2.53v-17.82c0-1.12.56-2.1 1.54-2.53l15.29-8.84c.98-.56 2.1-.56 2.95 0l15.29 8.84c.98.56 1.54 1.54 1.54 2.53v14.03c0 1.12.56 2.1 1.54 2.53.98.56 2.1.56 2.95 0z" fill="#404137"/><path d="m456.63 220.92c.28-.14.84-.14 1.12 0l9.4 5.47c.42.14.56.56.56.98v10.8c0 .42-.28.84-.56.98l-9.4 5.47c-.42.14-.84.14-1.12 0l-9.4-5.47c-.42-.14-.56-.56-.56-.98v-10.8c0-.42.14-.84.56-.98z" fill="#689f63"/><path clip-path="url(#a)" d="m292.88 194.96-137.5-67.35-70.44 143.82 137.51 67.35z" fill="url(#b)"/><path clip-path="url(#c)" d="m76.1 214.89 96.96 131.33 128.38-94.71-97.1-131.47z" fill="url(#d)"/><path clip-path="url(#e)" d="m137.42 170.83h106.08v124.32h-106.08z" fill="url(#f)"/></svg>