<svg enable-background="new 0 0 512 512" viewBox="0 0 512 512" xmlns="http://www.w3.org/2000/svg"><g fill="#4dabcf"><path d="m220.04 104.02-85.55-43.18-93.89 46.85 87.86 44.13z"/><path d="m259.25 123.81 89.7 45.28-93.06 46.73-88-44.2z"/><path d="m379.05 61.49 92.14 46.2-82.41 41.39-89.88-45.33z"/><path d="m339.39 41.59-82.96-41.59-82.06 40.95 85.48 43.11z"/><path d="m274.53 398.8v113.2l100.5-50.15-.12-113.25z"/><path d="m374.88 309.08-.11-112.06-100.24 49.83v112.09z"/><path d="m495.52 288.08v113.64l-85.71 42.78-.06-113.13z"/><path d="m495.52 248.34v-111.35l-85.87 42.69.07 112.28z"/></g><path d="m239.05 246.85-67.69-34.03v147.09s-82.78-176.14-90.45-191.96c-.99-2.04-5.06-4.28-6.1-4.82-14.84-7.79-58.34-29.82-58.34-29.82v259.87l60.17 32.16v-135.84s81.9 157.39 82.73 159.1c.83 1.72 9.05 18.31 17.84 24.13 11.7 7.74 61.85 37.9 61.85 37.9z" fill="#4d77cf"/></svg>