<svg enable-background="new 0 0 512 512" viewBox="0 0 512 512" xmlns="http://www.w3.org/2000/svg"><path d="m205.35 180.25c-37.87-21.88-56.39-66.49-45.03-108.71s49.66-71.54 93.28-71.54c43.77 0 82.06 29.32 93.28 71.54 11.36 42.22-7.15 86.83-45.03 108.71l-29.04-50.36c15.01-8.7 22.44-26.37 17.96-43.2s-19.77-28.48-37.17-28.48-32.68 11.64-37.17 28.48c-4.49 16.83 2.81 34.51 17.96 43.2z" fill="#ff0101"/><path d="m412.25 203.68c37.87 21.88 56.39 66.49 45.03 108.71s-49.66 71.54-93.28 71.54-82.06-29.32-93.28-71.54c-11.36-42.22 7.15-86.83 45.03-108.71l29.04 50.36c-15.01 8.7-22.44 26.37-17.96 43.2 4.49 16.83 19.78 28.48 37.17 28.48s32.68-11.64 37.17-28.48c4.49-16.83-2.81-34.51-17.96-43.2z" fill="#0101ff"/><path d="m242.1 287.28c0 43.77-29.32 82.06-71.54 93.28-42.22 11.36-86.83-7.15-108.71-45.03s-15.57-85.71 15.29-116.57 78.69-37.17 116.57-15.29l-29.04 50.36c-15.01-8.7-34.09-6.17-46.43 6.17s-14.87 31.28-6.17 46.43c8.7 15.01 26.37 22.44 43.2 17.96 16.83-4.49 28.48-19.78 28.48-37.17h58.35z" fill="#01ff01"/><path d="m76.44 407.08c8.14-.7 16.41-.7 24.55.42 5.05.84 10.38 2.24 14.17 5.89 3.93 4.35 4.91 10.52 5.75 16.13 1.4 11.64 1.26 23.57 0 35.21-.84 5.75-1.68 11.92-5.47 16.55-4.07 4.21-10.1 5.33-15.71 6.17-8.14.98-16.41 1.26-24.69.42-5.61-.56-11.36-1.54-16.13-4.77-3.09-1.96-4.77-5.33-5.75-8.7-2.24-6.87-2.52-14.31-2.81-21.46 0-9.54.14-19.22 1.96-28.48.98-4.35 2.24-9.26 5.89-12.06 5.47-3.78 12.06-4.62 18.24-5.32zm1.4 13.04c-3.51.56-7.72.84-9.82 4.07-1.82 4.77-1.68 9.96-2.1 15.01-.14 8.98-.56 17.96.7 26.93.56 2.95 1.54 6.59 4.91 7.43 7.29 2.24 15.01 1.82 22.44 1.4 3.65-.56 8.7-.84 10.52-4.77 2.1-5.89 1.96-12.34 2.24-18.52-.14-8.7.42-17.53-1.68-26.09-.56-3.09-3.65-4.35-6.31-4.91-6.87-1.25-14.03-1.11-20.9-.55zm73.08 14.03c4.91-3.09 11.08-3.65 16.83-3.09 5.33.42 11.22 2.24 14.17 7.15 3.37 6.17 3.65 13.47 3.79 20.34-.14 7.15-.28 14.45-3.23 21.04-1.68 4.07-5.47 6.59-9.68 7.72-6.31 1.54-13.19 1.68-19.22-.84-3.23-1.26-5.61-4.07-7.43-6.87v32.4h-13.89c0-26.79 0-53.58 0-80.38h13.47c-.14 2.81-.28 5.47-.42 8.28 1.68-2.1 3.23-4.35 5.61-5.75zm4.49 7.29c-3.37.28-6.87 1.82-7.86 5.33-1.82 6.03-1.4 12.48-1.26 18.8.42 4.07.98 9.4 5.33 11.22 4.63 1.82 10.1 1.68 14.87.14 4.07-1.4 4.63-6.31 5.05-9.96.42-6.17.56-12.48-.56-18.52-.42-2.38-1.68-4.77-3.93-5.75-3.64-1.68-7.71-1.54-11.64-1.26zm46.85-7.15c6.87-3.51 14.87-3.65 22.3-3.23 6.17.56 13.75 1.54 17.25 7.57 3.93 7.15 3.23 15.71 3.79 23.57h-37.87c.42 4.07-.14 8.42 1.96 12.2 1.82 2.95 5.47 3.51 8.7 3.79 3.93 0 8.14.28 11.64-1.4 2.1-1.54 2.1-4.49 2.38-6.87h13.33c-.14 4.63-.7 9.82-4.49 13.05-5.61 5.05-13.61 5.47-20.76 5.61-6.31-.14-12.91-.56-18.66-3.65-4.63-2.67-6.03-8.28-6.87-13.19-.98-7.29-1.26-14.59-.42-21.88.71-5.89 2.25-12.63 7.72-15.57zm8.14 8.84c-2.95 2.67-2.67 7.01-2.81 10.66h24.41c0-3.23.28-6.73-1.4-9.68-1.68-2.38-4.91-2.52-7.57-2.81-4.07 0-8.84-.56-12.63 1.83zm64.81-8.84c4.77-3.37 10.94-3.79 16.69-3.09 4.77.56 9.96 2.38 12.76 6.45 2.52 3.51 3.23 7.86 3.23 11.92v38.15c-4.35 0-8.84 0-13.19 0 0-12.06 0-24.13 0-36.05-.14-2.67 0-5.61-1.96-7.72-2.1-2.24-5.47-2.67-8.42-2.67-3.51 0-7.43.56-10.1 3.09-2.67 2.24-3.65 6.03-3.65 9.4v34.09c-4.35 0-8.84 0-13.19 0 0-18.66 0-37.45 0-56.11h12.91c0 3.23-.28 6.59-.42 9.82 1.13-2.79 2.67-5.6 5.34-7.28zm56.39-24.69c7.29-2.38 15.01-2.81 22.58-3.09 7.43 0 15.01.14 21.88 3.09 3.51 1.4 5.89 4.63 7.15 8.14 1.96 5.33 1.96 10.94 1.96 16.55-5.05 0-10.1 0-15.15 0-.14-3.93.28-8.28-2.24-11.64-2.38-2.52-6.31-2.52-9.54-2.81-6.59-.14-13.47-.56-19.78 1.68-2.24.7-3.51 2.95-3.93 5.19-1.26 5.89-1.26 11.92-1.26 17.96.14 8 0 16.13 1.68 23.99.42 2.95 3.09 4.63 5.75 5.33 6.17 1.54 12.62 1.26 18.94.98 3.23-.42 7.29-.7 9.4-3.65 2.24-3.65 1.82-8 1.68-12.06h15.29c0 6.31-.14 12.91-2.52 18.94-1.26 3.09-3.65 5.89-6.87 7.01-6.31 2.52-13.19 2.67-19.78 3.09-7.72.14-15.57 0-23-1.82-4.35-1.12-9.26-3.23-11.22-7.57-2.67-5.75-3.09-12.2-3.79-18.52-.56-8.28-.98-16.55-.7-24.83.42-6.73.98-13.75 4.63-19.64 1.96-3.09 5.33-5.06 8.84-6.32zm57.09-2.24c5.33 0 10.52-.14 15.85.14 5.19 16.27 10.8 32.4 15.99 48.68 1.96 6.31 3.51 12.62 5.47 18.94 2.38-6.73 3.79-13.75 6.17-20.48 5.05-15.71 10.24-31.42 15.29-47.13 5.19-.28 10.38 0 15.71-.14v1.68c-8.56 26.23-16.97 52.46-25.39 78.69-7.86.14-15.71.14-23.57 0-8.41-26.94-17.25-53.59-25.52-80.38z" fill="#050505"/></svg>