<svg enable-background="new 0 0 512 512" viewBox="0 0 512 512" xmlns="http://www.w3.org/2000/svg"><path d="m512 256c0 141.4-114.6 256-256 256s-256-114.6-256-256 114.6-256 256-256 256 114.6 256 256" fill="#3a3c5b"/><g fill="#fff"><path d="m434.29 274.94c-8.56-54.43-65.79-89.64-108.29-116.29-18.52-11.64-48.68-26.79-52.6-51.2-1.54-10.1-1.54-20.48-1.82-30.72-.14-4.07-.14-8-.56-12.06-.42-5.19-5.75 1.26-8.56-3.37-7.15-11.08-4.35 3.37-3.65 9.26 1.68 13.75 3.65 27.49 3.51 41.38-.28 26.51-4.49 51.9-11.08 77.57-15.57 59.9-27.77 121.34-12.34 182.64 3.23 12.76 7.29 25.25 12.76 37.17 1.68 3.65 4.77 13.61 9.26 14.87 16.27 4.35 28.62 5.61 41.66 17.67 8.14 7.57 14.17 3.37 23.71-.42 28.9-11.64 54.01-26.09 74.49-49.94 28.6-33.38 40.52-72.66 33.51-116.56m-30.58 54.84c-2.52 22.44-16.55 42.5-31 59.06-10.38 12.06-24.41 27.63-39.84 33.24-5.61 1.96.98-9.12 1.82-10.38 4.77-7.15 10.66-13.47 16.13-20.2 8.14-9.82 15.01-20.06 19.78-31.98 15.71-39.42 12.06-87.25-11.08-122.74-12.62-19.36-30.02-35.77-47.55-50.64-8.42-7.15-16.97-14.03-24.13-22.58-1.68-1.96-16.13-21.04-11.64-23.85 1.4-.84 33.24 32.54 36.61 35.07 13.19 9.96 26.65 19.08 38.86 30.3 16.41 15.15 33.39 31.98 42.78 52.6 10.38 22.31 12.06 47.7 9.26 72.1"/><path d="m246.6 6.87c4.77 3.23 5.89 21.74 5.89 38.72s1.54 90.06-3.65 109.55c-5.33 19.64-17.53 41.24-30.72 60.32s-28.62 59.34-28.05 84.16c.56 24.83 14.87 65.65 25.95 82.62 11.22 16.97 30.16 40.68 25.95 46.01-7.43 9.54-37.59-23.29-53.44-42.36s-31.84-57.79-32.26-87.95c-.56-30.16 16.41-58.21 28.62-75.19 12.2-16.97 36.05-46.01 42.36-59.34 6.31-13.19 13.19-27.49 15.29-46.01s0-84.73 0-84.73-.71-28.88 4.06-25.8"/><path d="m233.84 38.15c4.77 2.1 5.33 8 5.33 13.75 0 5.89-1.54 29.6-3.23 53.02-1.54 23.29-20.06 42.92-33.95 56.67-13.75 13.75-53.44 56.67-68.31 77.85s-22.16 49.1-20.62 72.52c1.54 23.85 7.43 47.13 29.6 71.96 22.3 24.83 37.59 36.47 49.24 42.36 11.64 5.89 23.29 10.1 20.62 15.29-2.67 5.33-13.75 1.54-25.95-2.67s-53.44-21.18-77.29-48.25-36.05-62.98-34.93-97.49c1.12-34.37 10.66-48.68 26.51-70.98s59.9-55.13 73.64-63.54c13.75-8.42 32.26-22.72 41.24-34.37s13.75-21.18 13.19-37.03 1.12-30.16.56-35.49c-.42-5.18-.42-15.7 4.35-13.6"/><path d="m235.24 453.23c2.1-.14.84 9.26-2.95 13.89s-10.38 7.43-11.08 5.61c-.84-1.82 4.77-2.95 8.7-7.43 3.65-4.22 2.66-11.93 5.33-12.07"/><path d="m278.02 452.94c-2.1-.14-.84 9.26 2.95 13.89s10.38 7.43 11.08 5.61c.84-1.82-4.77-2.95-8.7-7.43-3.64-4.21-2.66-11.93-5.33-12.07"/><path d="m258.95 463.18c0 8.14.42 14.73-1.4 14.73-2.24 0-1.4-6.59-1.4-14.73s-.7-14.73 1.4-14.73c1.96-.13 1.4 6.6 1.4 14.73"/></g></svg>