<svg enable-background="new 0 0 512 512" viewBox="0 0 512 512" xmlns="http://www.w3.org/2000/svg" xmlns:xlink="http://www.w3.org/1999/xlink"><clipPath id="a"><path d="m256 413.63c141.4 0 256-60.32 256-134.66s-114.6-134.67-256-134.67-256 60.32-256 134.66 114.6 134.67 256 134.67"/></clipPath><clipPath id="b"><path d="m-.42 145.14h512.98v269.05h-512.98z"/></clipPath><clipPath id="c"><path d="m-.42 145.14h512.98v269.05h-512.98z"/></clipPath><clipPath id="d"><path d="m-.42 145.14h512.98v269.05h-512.98z"/></clipPath><radialGradient id="e" cx="33.7691" cy="528.9632" gradientTransform="matrix(229.071 154.49 154.49 -229.071 -89301.3516 116144.8125)" gradientUnits="userSpaceOnUse" r="1.2167"><stop offset="0" stop-color="#4a659b"/><stop offset="1" stop-color="#231f20"/></radialGradient><clipPath id="f"><path d="m-.42 145.14h512.98v269.05h-512.98z"/></clipPath><clipPath id="g"><path d="m-.42 145.14h512.98v269.05h-512.98z"/></clipPath><radialGradient id="h" cx="33.1989" cy="528.9549" gradientTransform="matrix(114.5355 77.2449 77.2449 -114.5355 -44507.8516 58211.3203)" gradientUnits="userSpaceOnUse" r="1.2167"><stop offset="0" stop-color="#fff"/><stop offset="1" stop-color="#4a659b"/></radialGradient><clipPath id="i"><path d="m256 413.63c141.4 0 256-60.32 256-134.66s-114.6-134.67-256-134.67-256 60.32-256 134.66 114.6 134.67 256 134.67"/></clipPath><clipPath id="j"><path d="m-.42 145.14h512.98v269.05h-512.98z"/></clipPath><clipPath id="k"><path d="m-.42 145.14h512.98v269.05h-512.98z"/></clipPath><clipPath id="l"><path d="m-.42 145.14h512.98v269.05h-512.98z"/></clipPath><clipPath id="m"><path d="m-.42 145.14h512.98v269.05h-512.98z"/></clipPath><clipPath id="n"><path d="m-.42 145.14h512.98v269.05h-512.98z"/></clipPath><clipPath id="o"><path d="m-.42 145.14h512.98v269.05h-512.98z"/></clipPath><g clip-path="url(#a)"><path clip-path="url(#b)" d="m256 413.63c141.4 0 256-60.32 256-134.66s-114.6-134.67-256-134.67-256 60.32-256 134.66 114.6 134.67 256 134.67" fill="#231f20"/><path clip-path="url(#c)" d="m432.32 379.54c-103.8 153.88-312.81 194.56-466.69 90.76s-194.56-312.81-90.75-466.69 312.95-194.42 466.83-90.76c153.74 103.8 194.42 312.81 90.61 466.69" fill="#231f20"/><path clip-path="url(#d)" d="m-.42 145.14h512.98v269.05h-512.98z" fill="url(#e)"/><path clip-path="url(#f)" d="m293.03 285.7c-51.9 76.87-156.41 97.21-233.28 45.31s-97.2-156.41-45.3-233.28 156.4-97.21 233.27-45.31c76.87 51.76 97.21 156.27 45.31 233.28" fill="#4a659b"/><path clip-path="url(#g)" d="m-.42 145.14h512.98v269.05h-512.98z" fill="url(#h)"/></g><g clip-path="url(#i)"><path clip-path="url(#j)" d="m256 403.67c135.93 0 246.04-55.83 246.04-124.7s-110.11-124.71-246.04-124.71-246.04 55.83-246.04 124.7 110.11 124.71 246.04 124.71" fill="#617cbe"/><path clip-path="url(#k)" d="m305.8 319.22 12.2-62.84c2.81-14.17.42-24.69-6.87-31.42-7.01-6.45-18.94-9.54-36.47-9.54h-21.18l6.03-31.14c.28-1.12-.14-2.38-.84-3.37-.7-.98-1.82-1.4-3.09-1.4h-29.04c-1.96 0-3.51 1.4-3.93 3.23l-12.91 66.63c-1.12-7.43-4.07-13.89-8.7-19.22-8.56-9.82-22.02-14.73-40.26-14.73h-56.53c-1.96 0-3.51 1.4-3.93 3.23l-26.22 134.94c-.28 1.12.14 2.38.84 3.37.7.98 1.82 1.4 3.09 1.4h29.46c1.96 0 3.51-1.4 3.93-3.23l6.31-32.68h21.88c11.5 0 21.18-1.26 28.62-3.65 7.72-2.52 14.73-6.73 21.04-12.62 5.05-4.63 9.26-9.82 12.48-15.43l-5.19 26.93c-.28 1.12.14 2.38.84 3.37.7.98 1.82 1.4 3.09 1.4h29.18c1.96 0 3.51-1.4 3.93-3.23l14.44-74.06h20.06c8.56 0 11.08 1.68 11.64 2.38s1.96 2.95.42 10.38l-11.64 59.76c-.28 1.12.14 2.38.84 3.37.7.98 1.82 1.4 3.09 1.4h29.6c1.82 0 3.51-1.26 3.79-3.23zm-135.23-51.9c-1.82 9.4-5.33 16.13-10.24 19.92-5.05 3.93-13.19 5.89-23.99 5.89h-13.04l9.4-48.53h16.83c12.34 0 17.39 2.67 19.36 4.91 2.81 3.08 3.37 9.26 1.68 17.81" fill="#fff"/><path clip-path="url(#l)" d="m430.5 230.15c-8.56-9.82-22.02-14.73-40.26-14.73h-56.53c-1.96 0-3.51 1.4-3.93 3.23l-26.09 134.94c-.28 1.12.14 2.38.84 3.37.7.98 1.82 1.4 3.09 1.4h29.46c1.96 0 3.51-1.4 3.93-3.23l6.17-32.68h21.88c11.5 0 21.18-1.26 28.62-3.65 7.72-2.52 14.73-6.73 21.04-12.62 5.19-4.77 9.54-10.1 12.76-15.99 3.23-5.75 5.61-12.34 6.87-19.22 3.51-17.25.85-30.86-7.85-40.82zm-30.44 37.17c-1.82 9.4-5.33 16.13-10.24 19.92-5.05 3.93-13.19 5.89-23.99 5.89h-13.05l9.4-48.53h16.83c12.34 0 17.39 2.67 19.36 4.91 2.81 3.08 3.37 9.26 1.69 17.81" fill="#fff"/><g fill="#08090d"><path clip-path="url(#m)" d="m149.53 240.67c11.22 0 18.66 2.1 22.3 6.17 3.79 4.07 4.63 11.22 2.67 21.18-1.96 10.38-5.89 17.96-11.78 22.3-5.75 4.49-14.59 6.73-26.51 6.73h-17.81l10.94-56.53h20.2v.15zm-71.68 113.76h29.46l7.01-35.91h25.25c11.08 0 20.2-1.12 27.49-3.51 7.15-2.38 13.75-6.31 19.5-11.78 4.91-4.49 8.98-9.54 11.92-15.01 3.09-5.47 5.19-11.5 6.45-18.1 3.09-15.99.7-28.48-7.01-37.45-7.86-8.98-20.2-13.33-37.17-13.33h-56.53z"/><path clip-path="url(#n)" d="m226.54 183.58h29.18l-7.01 35.91h25.95c16.41 0 27.63 2.81 33.81 8.56 6.17 5.75 8.14 15.01 5.61 27.77l-12.2 62.84h-29.6l11.64-59.76c1.26-6.73.84-11.36-1.4-13.89-2.24-2.52-7.15-3.65-14.59-3.65h-23.29l-15.01 77.29h-29.18z"/><path clip-path="url(#o)" d="m379.02 240.67c11.22 0 18.66 2.1 22.3 6.17 3.79 4.07 4.63 11.22 2.67 21.18-1.96 10.38-5.89 17.96-11.78 22.3-5.75 4.49-14.59 6.73-26.51 6.73h-17.81l10.94-56.53h20.2v.15zm-71.68 113.76h29.46l7.01-35.91h25.25c11.08 0 20.2-1.12 27.49-3.51 7.15-2.38 13.75-6.31 19.5-11.78 4.91-4.49 8.98-9.54 11.92-15.01 3.09-5.47 5.19-11.5 6.45-18.1 3.09-15.99.7-28.48-7.01-37.45-7.86-8.98-20.2-13.33-37.17-13.33h-56.53z"/></g></g></svg>