<svg enable-background="new 0 0 512 512" viewBox="0 0 512 512" xmlns="http://www.w3.org/2000/svg"><path d="m503.02 306.6c-2.95-8.98-10.8-15.29-20.9-16.83-4.77-.7-10.24-.42-16.69.98-11.22 2.38-19.64 3.23-25.67 3.37 23-38.86 41.8-83.18 52.46-124.84 17.39-67.47 8.14-98.19-2.81-112.08-28.75-36.75-70.83-56.53-121.47-57.09-27.07-.28-50.78 5.05-63.12 8.84-11.5-1.96-23.99-3.23-36.89-3.37-24.41-.42-45.87 4.91-64.38 15.85-10.24-3.51-26.51-8.28-45.45-11.36-44.47-7.3-80.24-1.55-106.47 16.83-31.7 22.44-46.43 61.3-43.63 115.72.84 17.25 10.52 69.71 25.67 119.51 8.7 28.62 18.09 52.32 27.63 70.7 13.61 25.95 28.33 41.1 44.75 46.57 9.26 3.09 25.95 5.19 43.48-9.4 2.24 2.67 5.19 5.33 9.12 7.86 5.05 3.23 11.08 5.75 17.25 7.29 22.02 5.47 42.64 4.07 60.32-3.65.14 3.09.14 6.17.28 8.7.14 4.21.28 8.28.42 12.2.98 25.95 2.81 46.29 8 60.32.28.84.7 1.96 1.12 3.23 2.67 8 7.01 21.46 18.09 31.98 11.5 10.94 25.39 14.17 38.15 14.17 6.45 0 12.48-.84 17.81-1.96 19.08-4.07 40.82-10.38 56.53-32.68 14.87-21.18 22.02-52.88 23.29-103.1.14-1.4.28-2.81.42-4.07.14-.84.14-1.82.28-2.67l3.51.28h.84c19.5.84 43.2-3.23 57.79-9.96 11.93-5.33 48.97-24.97 40.27-51.34"/><path d="m469.77 311.79c-57.79 11.92-61.86-7.71-61.86-7.71 61.02-90.62 86.55-205.64 64.52-233.69-60.04-76.73-164.12-40.4-165.8-39.56l-.56.14c-11.36-2.38-24.27-3.79-38.57-4.07-26.23-.42-46.01 6.87-61.02 18.24 0 0-185.58-76.45-176.88 96.09 1.82 36.75 52.6 277.88 113.2 204.94 22.16-26.65 43.48-49.09 43.48-49.09 10.66 7.01 23.29 10.66 36.75 9.4l.98-.84c-.28 3.37-.14 6.59.42 10.38-15.57 17.39-11.08 20.48-42.22 26.93-31.56 6.45-13.05 18.09-.98 21.18 14.73 3.65 48.67 8.84 71.54-23.29l-.98 3.65c6.17 4.91 10.38 31.84 9.68 56.25s-1.26 41.24 3.65 54.28c4.77 13.05 9.68 42.64 50.64 33.81 34.23-7.29 52.04-26.37 54.57-58.07 1.68-22.58 5.75-19.22 6.03-39.42l3.23-9.54c3.65-30.58.56-40.4 21.74-35.91l5.19.42c15.57.7 35.91-2.52 47.83-8 25.52-11.79 40.67-31.71 15.42-26.52z" fill="#336791"/><g fill="#fff"><path d="m217.29 157.77c-5.19-.7-9.96 0-12.34 1.68-1.4.98-1.82 2.24-1.82 2.95-.28 2.1 1.26 4.49 2.1 5.75 2.67 3.51 6.45 5.89 10.24 6.31.56.14 1.12.14 1.68.14 6.31 0 12.06-4.91 12.48-8.56.7-4.34-5.89-7.43-12.34-8.27"/><path d="m389.96 157.91c-.56-3.51-6.87-4.63-12.9-3.79s-11.78 3.51-11.36 7.15c.42 2.81 5.33 7.57 11.36 7.57.56 0 .98 0 1.54-.14 3.93-.56 6.87-3.09 8.28-4.49 2.1-2.23 3.22-4.61 3.08-6.3"/><path d="m488.99 310.39c-2.24-6.73-9.26-8.84-21.04-6.31-35.07 7.29-47.55 2.24-51.62-.84 27.21-41.52 49.66-91.6 61.72-138.31 5.75-22.16 8.84-42.78 9.12-59.47.28-18.38-2.81-31.98-9.26-40.12-26.09-33.24-64.24-51.2-110.67-51.62-31.84-.42-58.77 7.86-63.96 10.1-10.94-2.67-23-4.35-35.91-4.63-23.85-.42-44.61 5.33-61.72 16.97-7.43-2.81-26.65-9.4-50.08-13.19-40.54-6.59-72.8-1.54-95.81 14.73-27.63 19.36-40.26 54.14-37.87 103.24.84 16.55 10.24 67.33 25.11 116.14 19.5 64.1 40.82 100.43 63.26 107.87 2.67.84 5.61 1.54 8.98 1.54 8.14 0 18.24-3.65 28.62-16.13 17.25-20.76 33.38-38.29 39.42-44.61 8.84 4.77 18.52 7.29 28.33 7.57v.84c-1.96 2.38-3.65 4.35-5.05 6.17-6.87 8.7-8.28 10.52-30.3 15.01-6.31 1.26-22.86 4.77-23.14 16.41-.28 12.76 19.64 18.09 22.02 18.66 7.86 1.96 15.57 2.95 22.86 2.95 17.67 0 33.24-5.75 45.73-17.11-.42 45.45 1.54 90.33 7.01 103.94 4.49 11.22 15.43 38.43 49.94 38.43 5.05 0 10.66-.56 16.83-1.96 36.05-7.71 51.62-23.71 57.65-58.77 3.23-18.8 8.84-63.54 11.36-87.53 5.47 1.68 12.62 2.52 20.34 2.52 15.99 0 34.51-3.37 46.01-8.84 12.9-5.88 36.33-20.75 32.12-33.65zm-85.84-162.3c-.14 7.15-1.12 13.47-2.1 20.2-1.12 7.29-2.24 14.73-2.52 23.71-.28 8.84.84 17.95 1.82 26.93 2.1 17.95 4.35 36.33-4.21 54.57-1.26-2.38-2.67-4.91-3.79-7.86-1.12-2.52-3.37-6.73-6.59-12.48-12.48-22.3-41.52-74.62-26.65-95.95 4.48-6.03 15.84-12.62 44.04-9.12zm-34.23-120.07c41.52.98 74.34 16.41 97.49 46.15 17.81 22.72-1.82 126.38-58.63 215.74-.56-.7-1.12-1.4-1.68-2.1-.28-.28-.42-.56-.7-.84 14.73-24.27 11.78-48.25 9.26-69.43-.98-8.7-2.1-16.97-1.82-24.69.28-8.28 1.4-15.29 2.38-22.02 1.26-8.42 2.67-17.11 2.24-27.35.28-1.12.42-2.38.28-3.79-.98-9.82-12.06-39.14-34.93-65.79-12.48-14.59-30.72-30.86-55.55-41.8 10.66-2.4 25.25-4.5 41.66-4.08zm-232.15 313.09c-11.5 13.75-19.36 11.08-22.02 10.24-16.97-5.61-36.61-41.52-54-98.47-15.01-49.24-23.85-98.76-24.55-112.64-2.24-43.9 8.42-74.48 31.7-90.9 37.73-26.79 99.73-10.8 124.7-2.67-.42.42-.7.7-1.12.98-40.96 41.39-39.98 111.95-39.84 116.15 0 1.68.14 4.07.28 7.29.7 11.92 1.96 33.95-1.54 59.05-3.23 23.29 3.93 46.01 19.64 62.42 1.68 1.68 3.37 3.37 5.05 4.77-6.88 7.59-22.03 24.28-38.3 43.78zm43.77-58.36c-12.62-13.19-18.52-31.7-15.85-50.5 3.65-26.37 2.38-49.52 1.54-61.86-.14-1.68-.14-3.23-.28-4.49 6.03-5.33 33.67-20.2 53.44-15.57 8.98 2.1 14.45 8.14 16.83 18.8 11.78 54.71 1.54 77.43-6.73 95.66-1.68 3.79-3.37 7.29-4.63 11.08l-1.12 2.81c-2.67 7.15-5.19 13.89-6.73 20.34-13.47-.14-26.52-5.89-36.47-16.27zm1.96 73.65c-3.93-.98-7.43-2.67-9.54-4.07 1.68-.84 4.77-1.96 10.24-3.09 25.95-5.33 29.88-9.12 38.71-20.2 1.96-2.52 4.35-5.47 7.43-8.98 4.63-5.19 6.87-4.35 10.66-2.81 3.09 1.26 6.17 5.19 7.43 9.54.56 2.1 1.26 5.89-.98 8.98-18.22 25.82-44.73 25.39-63.95 20.63zm135.78 126.38c-31.7 6.73-42.92-9.4-50.36-27.91-4.77-11.92-7.15-65.79-5.47-125.26 0-.84-.14-1.54-.28-2.24-.14-1.4-.42-2.81-.84-4.21-2.52-8.7-8.56-15.85-15.71-18.94-2.95-1.12-8.14-3.37-14.45-1.82 1.4-5.61 3.65-11.92 6.31-18.66l1.12-2.81c1.26-3.23 2.67-6.59 4.35-10.1 8.56-19.22 20.48-45.45 7.57-104.64-4.77-22.16-20.76-32.96-45.17-30.58-14.59 1.54-27.91 7.43-34.51 10.8-1.4.7-2.81 1.4-3.93 2.1 1.82-22.3 8.84-64.1 35.07-90.62 16.13-16.69 38.15-24.97 64.95-24.55 52.74.84 86.55 27.91 105.76 50.5 16.41 19.5 25.39 39 28.9 49.66-26.79-2.67-44.89 2.52-54.14 15.71-20.06 28.62 10.94 84.3 25.95 111.09 2.67 4.91 5.05 9.12 5.89 10.94 4.91 11.78 11.08 19.64 15.71 25.39 1.4 1.82 2.81 3.51 3.79 4.91-8.14 2.38-22.58 7.71-21.32 34.65-1.12 13.47-8.7 76.87-12.48 99.31-5.19 29.61-16.13 40.69-46.71 47.28zm132.42-151.63c-8.28 3.79-22.16 6.73-35.35 7.29-14.59.7-21.88-1.68-23.71-3.09-.84-16.83 5.47-18.52 12.06-20.48.98-.28 2.1-.56 3.09-.98.56.56 1.26.98 1.96 1.4 11.64 7.71 32.54 8.56 62 2.52h.28c-3.92 3.94-10.65 8.85-20.33 13.34z"/></g></svg>