<svg enable-background="new 0 0 512 512" viewBox="0 0 512 512" xmlns="http://www.w3.org/2000/svg" xmlns:xlink="http://www.w3.org/1999/xlink"><linearGradient id="a" gradientTransform="matrix(126.2799 125.5782 -125.2988 126.5615 64049.7422 -64670.543)" gradientUnits="userSpaceOnUse" x1=".2852" x2="2.2901" y1="511.0804" y2="511.0804"><stop offset="0" stop-color="#387eb8"/><stop offset="1" stop-color="#366994"/></linearGradient><linearGradient id="b" gradientTransform="matrix(135.625 128.783 -128.4964 135.9275 65764.5781 -69385.4766)" gradientUnits="userSpaceOnUse" x1=".8921" x2="2.8969" y1="511.1571" y2="511.1571"><stop offset="0" stop-color="#ffe052"/><stop offset="1" stop-color="#ffc331"/></linearGradient><path d="m254.2 1.3c-130 0-121.9 56.4-121.9 56.4l.1 58.4h124v17.5h-173.2s-83.2-9.4-83.2 121.7 72.6 126.5 72.6 126.5h43.3v-60.8s-2.3-72.6 71.4-72.6h123s69.1 1.1 69.1-66.8v-112.3c.1 0 10.6-68-125.2-68zm-68.4 39.3c12.3 0 22.3 10 22.3 22.3s-10 22.3-22.3 22.3-22.3-10-22.3-22.3c-.1-12.3 9.9-22.3 22.3-22.3z" fill="url(#a)"/><path d="m257.8 510.7c130 0 121.9-56.4 121.9-56.4l-.1-58.4h-124v-17.5h173.3s83.2 9.4 83.2-121.7-72.6-126.5-72.6-126.5h-43.3v60.8s2.3 72.6-71.4 72.6h-123s-69.1-1.1-69.1 66.8v112.3c-.2 0-10.7 68 125.1 68zm68.4-39.3c-12.3 0-22.3-10-22.3-22.3s10-22.3 22.3-22.3 22.3 10 22.3 22.3c.1 12.3-9.9 22.3-22.3 22.3z" fill="url(#b)"/></svg>