<svg enable-background="new 0 0 512 512" viewBox="0 0 512 512" xmlns="http://www.w3.org/2000/svg" xmlns:xlink="http://www.w3.org/1999/xlink"><linearGradient id="a" gradientTransform="matrix(136.0596 99.8487 151.8774 -89.4496 -77466.1016 44865.75)" gradientUnits="userSpaceOnUse" x1="5.5194" x2="7.5193" y1="506.0621" y2="506.0621"><stop offset="0" stop-color="#c9cbce"/><stop offset="1" stop-color="#7b7a81"/></linearGradient><path d="m298.64 361.75c-106.61 0-197.37-53.44-197.37-117.41s79.96-117.27 186.7-117.27c134.66 0 197.08 51.76 197.08 115.87.16 63.96-68.72 118.81-186.41 118.81m-42.64-298.65c-138.73 0-256 74.63-256 170.72 0 90.62 116.57 165.94 255.3 165.94s256.7-70 256.7-165.94-117.27-170.72-256-170.72" fill="url(#a)"/><path d="m211.95 166.77v282.23h85.29v-109.7c21.32 0 34.09-4.63 47.97 20.9 21.32 36.61 47.97 88.79 47.97 88.79h101.28s-63.96-104.5-69.3-109.69c-9.82-10.52-21.32-10.52-37.31-15.71 31.98-5.19 61.86-18.52 72.1-46.99 9.12-26.09 8-59.34-11.36-81.64-16.83-17.67-34.09-28.2-76.73-28.2zm85.29 58.77h55.97c13.33 0 23.99 13.05 23.99 26.09s-10.66 26.09-23.99 26.09h-55.97z" fill="#2165b6"/></svg>