<svg enable-background="new 0 0 512 512" viewBox="0 0 512 512" xmlns="http://www.w3.org/2000/svg"><g fill="#c00"><path d="m219.39 316.86s22.58-1.96 22.58-31.14-27.35-31.84-27.35-31.84h-49.38v92.16h24.83v-22.16l21.46 22.16h36.75zm-9.54-18.8h-19.78v-21.04h19.92s5.61 2.1 5.61 10.52-5.75 10.52-5.75 10.52zm93.42-43.62h-25.25c-17.96 0-23.99 16.27-23.99 23.99v67.47h25.25v-16.13h23.71v16.13h24.41v-67.47c-.14-19.5-17.96-23.99-24.13-23.99zm-.42 49.23h-23.71v-22.3s0-5.05 7.86-5.05h8.7c7.01 0 7.15 5.05 7.15 5.05zm35.91-49.23h26.23v91.46h-26.23zm63.12 67.89v-67.75h-26.09v67.75 23.71h26.09 35.21v-23.71zm43.91.28v23.43h42.22c8.7 0 23.57-6.31 23.99-23.99v-8.98c0-15.15-12.34-23.99-23.99-23.99h-21.04v-10.8h41.66v-23.57h-39.98c-10.38 0-24.13 8.56-24.13 24.41v8.14c0 15.85 13.75 23.99 24.13 23.99 29.04.14-7.01 0 19.92 0v11.36z"/><path d="m8.98 345.76h101.98s-19.5-88.93 45.03-124.98c14.03-6.87 58.92-32.4 132.28 21.88 2.38-1.96 4.49-3.51 4.49-3.51s-67.19-67.05-141.96-59.48c-37.59 3.37-83.88 37.59-110.96 82.76-26.93 45.17-30.86 83.33-30.86 83.33zm212.65-158.94.56-8.7c-1.12-.7-4.35-2.24-12.48-4.49l-.56 8.56c4.21 1.41 8.41 2.95 12.48 4.63zm-12.2 27.36-.56 8.14c4.21.14 8.56.7 12.76 1.54l.56-8c-4.48-.84-8.69-1.4-12.76-1.68zm-47.83-40.26h1.26l-2.52-7.86c-4.07 0-8.14.28-12.34.84l2.38 7.57c3.64-.41 7.43-.55 11.22-.55zm6.17 47.55 2.95 8.98c3.79-1.82 7.43-3.37 11.22-4.49l-2.81-8.56c-4.35 1.13-8.14 2.67-11.36 4.07zm-58.64-33.94-5.75-8.98c-3.23 1.68-6.59 3.51-10.1 5.61l5.89 8.98c3.37-2.11 6.6-4.07 9.96-5.61zm26.51 58.07 6.17 9.26c2.24-3.23 4.77-6.17 7.57-9.12l-5.75-8.84c-2.94 2.81-5.74 5.75-7.99 8.7zm-18.79 41.52 10.52 8.28c.56-5.05 1.4-10.1 2.67-15.15l-9.26-7.29c-1.69 4.76-2.81 9.53-3.93 14.16zm-56.53-61.3-9.12-8c-3.37 3.23-6.59 6.45-9.54 9.68l9.96 8.56c2.67-3.51 5.61-7.01 8.7-10.24zm-39 57.79-14.87-5.47c-2.38 5.61-5.19 12.06-6.45 15.43l14.87 5.47c1.68-4.34 4.35-10.66 6.45-15.43zm93.56 36.33c.28 6.87.84 12.34 1.54 16.27l15.43 5.61c-1.12-5.05-2.38-10.66-3.09-16.83z"/></g></svg>