<svg enable-background="new 0 0 512 512" viewBox="0 0 512 512" xmlns="http://www.w3.org/2000/svg"><path d="m420.92 175.9c-5.33-1.82-10.8-3.51-16.41-5.19.98-3.79 1.82-7.57 2.52-11.22 12.48-60.6 4.35-109.41-23.57-125.4-26.65-15.43-70.42.7-114.46 39-4.21 3.65-8.56 7.57-12.76 11.64-2.81-2.67-5.61-5.33-8.42-7.86-46.29-41.1-92.58-58.35-120.36-42.22-26.65 15.43-34.65 61.3-23.43 118.67 1.12 5.61 2.38 11.22 3.79 16.97-6.59 1.82-12.91 3.79-18.94 5.89-54.13 18.94-88.78 48.53-88.78 79.25 0 31.7 37.17 63.54 93.56 82.9 4.49 1.54 9.12 2.95 13.89 4.35-1.54 6.17-2.95 12.34-4.07 18.24-10.66 56.39-2.38 101.14 24.27 116.57 27.49 15.85 73.64-.42 118.53-39.7 3.51-3.09 7.15-6.45 10.66-9.82 4.63 4.49 9.26 8.7 13.89 12.62 43.48 37.45 86.55 52.6 113.06 37.17 27.49-15.85 36.33-63.96 24.83-122.6-.84-4.49-1.96-8.98-3.09-13.75 3.23-.98 6.45-1.96 9.54-2.95 58.63-19.5 96.93-50.92 96.93-83.04-.14-30.71-35.91-60.44-91.18-79.52zm-12.76 141.96c-2.81.98-5.61 1.82-8.56 2.67-6.45-20.48-15.29-42.36-25.95-64.81 10.24-22.02 18.66-43.48 24.97-63.96 5.19 1.54 10.38 3.09 15.29 4.77 47.41 16.27 76.31 40.4 76.31 59.06-.14 19.76-31.28 45.43-82.06 62.27zm-21.04 41.66c5.19 25.95 5.89 49.24 2.52 67.61-3.09 16.41-9.12 27.35-16.83 31.84-16.13 9.4-50.64-2.81-87.81-34.79-4.21-3.65-8.56-7.57-12.91-11.78 14.45-15.71 28.9-34.09 42.92-54.43 24.69-2.24 48.11-5.75 69.3-10.66 1.12 4.07 2.1 8.14 2.81 12.21zm-212.66 97.77c-15.71 5.61-28.34 5.75-35.91 1.4-16.13-9.26-22.86-45.31-13.75-93.56.98-5.47 2.24-11.22 3.79-16.97 21.04 4.63 44.19 8 69.01 9.96 14.17 19.92 29.04 38.29 43.91 54.29-3.23 3.09-6.45 6.17-9.82 8.98-19.78 17.38-39.7 29.73-57.23 35.9zm-73.78-139.57c-24.97-8.56-45.59-19.64-59.76-31.7-12.76-10.94-19.08-21.6-19.08-30.44 0-18.66 27.77-42.36 74.2-58.63 5.61-1.96 11.5-3.79 17.67-5.61 6.45 20.9 14.87 42.64 24.97 64.67-10.24 22.3-18.8 44.47-25.25 65.65-4.48-1.28-8.69-2.54-12.75-3.94zm24.68-168.47c-9.68-49.24-3.23-86.27 12.91-95.53 17.11-9.96 54.99 4.21 94.97 39.7 2.52 2.24 5.05 4.63 7.72 7.15-14.87 15.99-29.6 34.23-43.63 54.01-24.13 2.24-47.13 5.75-68.31 10.66-1.41-5.61-2.53-10.94-3.66-15.99zm220.94 54.42c-5.05-8.7-10.24-17.25-15.57-25.67 16.27 2.1 31.98 4.77 46.71 8.14-4.35 14.17-9.96 28.9-16.41 44.05-4.63-8.56-9.54-17.54-14.73-26.52zm-90.06-87.67c10.1 10.94 20.2 23.15 30.16 36.33-9.96-.42-20.2-.7-30.44-.7-10.1 0-20.2.28-30.16.7 9.96-13.04 20.2-25.25 30.44-36.33zm-90.62 87.95c-5.05 8.84-9.82 17.67-14.45 26.51-6.31-15.15-11.78-30.02-16.27-44.33 14.59-3.23 30.16-5.89 46.43-8-5.47 8.29-10.66 16.99-15.71 25.82zm16.13 130.6c-16.83-1.82-32.54-4.35-47.13-7.57 4.49-14.59 10.1-29.74 16.55-45.17 4.63 8.84 9.4 17.67 14.45 26.51 5.19 8.97 10.52 17.67 16.13 26.23zm75.05 62.14c-10.38-11.22-20.76-23.57-30.86-36.89 9.82.42 19.78.56 30.02.56 10.38 0 20.76-.28 30.86-.7-9.96 13.6-20.06 25.95-30.02 37.03zm104.37-115.73c6.87 15.57 12.62 30.72 17.25 45.03-14.87 3.37-30.86 6.17-47.69 8.14 5.33-8.42 10.52-17.11 15.71-26.09s10.1-17.96 14.73-27.08zm-33.81 16.28c-8 13.89-16.27 27.07-24.55 39.7-15.15 1.12-30.86 1.68-46.85 1.68s-31.42-.56-46.29-1.4c-8.7-12.62-17.11-25.95-24.97-39.7-8-13.75-15.29-27.49-21.88-41.24 6.59-13.75 13.89-27.63 21.74-41.24 7.86-13.75 16.27-26.93 24.83-39.56 15.29-1.12 30.86-1.68 46.57-1.68 15.85 0 31.42.56 46.71 1.82 8.42 12.48 16.69 25.67 24.69 39.42 8 13.89 15.43 27.63 22.02 41.1-6.59 13.32-14.03 27.21-22.02 41.1zm45.17-244.22c17.11 9.82 23.85 49.8 13.05 102.12-.7 3.37-1.4 6.73-2.24 10.24-21.18-4.91-44.33-8.56-68.45-10.8-14.03-20.06-28.62-38.29-43.34-54.01 3.93-3.79 7.86-7.43 11.78-10.8 37.72-33.1 73.07-46.01 89.2-36.75zm-116.57 156.82c25.25 0 45.73 20.48 45.73 45.73s-20.48 45.73-45.73 45.73-45.73-20.48-45.73-45.73 20.48-45.73 45.73-45.73z" fill="#00d8ff"/></svg>