<svg enable-background="new 0 0 512 512" viewBox="0 0 512 512" xmlns="http://www.w3.org/2000/svg"><path d="m491.88 374.09c-27.34 14.3-168.84 72.36-198.99 88.06-30.15 15.71-46.84 15.57-70.68 4.21s-174.43-72.21-201.5-85.11c-13.6-6.45-20.75-11.92-20.75-17.11v-51.74s196.04-42.63 227.73-53.99 42.63-11.78 69.55-1.96 187.91 38.98 214.55 48.66v51.04c.15 5.04-6.02 10.65-19.91 17.94" fill="#912626"/><path d="m491.88 322.63c-27.34 14.16-168.84 72.36-198.99 88.06-30.15 15.71-46.84 15.57-70.68 4.21s-174.29-72.22-201.5-85.12c-27.06-12.9-27.63-21.88-.98-32.25 26.64-10.38 176.41-69.13 208.1-80.49s42.63-11.78 69.55-1.96 167.57 65.91 194.22 75.58c26.51 9.81 27.63 17.81.28 31.97" fill="#c6302b"/><path d="m491.88 290.38c-27.34 14.3-168.84 72.36-198.99 88.06-30.15 15.71-46.84 15.57-70.68 4.21s-174.43-72.22-201.5-85.12c-13.6-6.45-20.75-11.92-20.75-17.11v-51.74s196.04-42.63 227.73-53.99 42.63-11.78 69.55-1.96 187.91 38.98 214.55 48.66v51.04c.15 5.19-6.02 10.8-19.91 17.95" fill="#912626"/><path d="m491.88 238.91c-27.34 14.3-168.84 72.36-198.99 88.06s-46.84 15.57-70.68 4.21-174.31-72.22-201.51-85.12c-27.06-12.9-27.63-21.88-.98-32.39 26.64-10.38 176.41-69.13 208.1-80.49s42.63-11.78 69.55-1.96 167.57 65.91 194.22 75.58c26.52 9.96 27.64 17.95.29 32.11z" fill="#c6302b"/><path d="m491.88 203.57c-27.34 14.3-168.84 72.36-198.99 88.06-30.15 15.71-46.84 15.57-70.68 4.21s-174.45-72.22-201.51-85.12c-13.6-6.45-20.75-11.92-20.75-17.11v-51.74s196.04-42.63 227.73-53.99 42.63-11.78 69.55-1.96 187.91 38.98 214.55 48.66v51.04c.16 5.05-6.01 10.66-19.9 17.95" fill="#912626"/><path d="m491.88 152.11c-27.34 14.3-168.84 72.36-198.99 88.06s-46.84 15.57-70.68 4.21-174.29-72.08-201.36-85.12c-27.06-12.9-27.63-21.88-.98-32.39 26.64-10.38 176.41-69.13 208.1-80.49s42.63-11.78 69.55-1.96 167.57 65.91 194.22 75.58c26.37 9.81 27.49 17.95.14 32.11" fill="#c6302b"/><g fill="#fff"><path d="m318.56 101.77-44.03 4.63-9.82 23.69-15.98-26.5-50.77-4.49 38-13.74-11.49-20.89 35.61 13.88 33.38-10.94-8.98 21.6z"/><path d="m262.05 216.9-82.04-34.08 117.66-18.09z"/><path d="m148.18 114.95c34.78 0 62.96 10.94 62.96 24.4s-28.19 24.4-62.96 24.4c-34.78 0-62.96-10.94-62.96-24.4.14-13.46 28.32-24.4 62.96-24.4"/></g><path d="m370.59 108.36 69.69 27.48-69.69 27.49z" fill="#621b1c"/><path d="m293.46 138.79 77.13-30.43v54.97l-7.58 2.94z" fill="#9a2928"/></svg>