<svg enable-background="new 0 0 512 512" viewBox="0 0 512 512" xmlns="http://www.w3.org/2000/svg" xmlns:xlink="http://www.w3.org/1999/xlink"><linearGradient id="a" gradientTransform="matrix(-73.8358 -130.361 -130.361 73.8358 66794.1797 -36116.4922)" gradientUnits="userSpaceOnUse" x1="5.2438" x2="6.7067" y1="505.958" y2="505.958"><stop offset="0" stop-color="#fb7655"/><stop offset=".41" stop-color="#e42b1e"/><stop offset=".99" stop-color="#900"/><stop offset="1" stop-color="#900"/></linearGradient><linearGradient id="b"><stop offset="0" stop-color="#871101"/><stop offset=".99" stop-color="#911209"/><stop offset="1" stop-color="#911209"/></linearGradient><linearGradient id="c" gradientTransform="matrix(-95.1574 -63.8563 -63.8563 95.1574 33307.5195 -47413.7617)" gradientUnits="userSpaceOnUse" x1="5.2145" x2="6.6774" xlink:href="#b" y1="505.9435" y2="505.9435"/><linearGradient id="d" gradientTransform="matrix(-95.1548 -63.8546 -63.8546 95.1548 33230.50390000001 -47298.9961)" gradientUnits="userSpaceOnUse" x1="5.2145" x2="6.6773" xlink:href="#b" y1="506.4956" y2="506.4956"/><linearGradient id="e" gradientTransform="matrix(14.7514 95.8704 95.8704 -14.7514 -48449.5742 7195.5093)" gradientUnits="userSpaceOnUse" x1="6.1609" x2="7.6238" y1="505.4604" y2="505.4604"><stop offset="0" stop-color="#fff"/><stop offset=".23" stop-color="#e57252"/><stop offset=".46" stop-color="#de3b20"/><stop offset=".99" stop-color="#a60003"/><stop offset="1" stop-color="#a60003"/></linearGradient><linearGradient id="f" gradientTransform="matrix(5.4353 97.8417 97.8417 -5.4353 -49289.6914 2380.2161)" gradientUnits="userSpaceOnUse" x1="5.8147" x2="7.2776" y1="505.9857" y2="505.9857"><stop offset="0" stop-color="#fff"/><stop offset=".23" stop-color="#e4714e"/><stop offset=".56" stop-color="#be1a0d"/><stop offset=".99" stop-color="#a80d00"/><stop offset="1" stop-color="#a80d00"/></linearGradient><linearGradient id="g" gradientTransform="matrix(16.2715 70.1222 70.1222 -16.2715 -35238.6016 7939.2144)" gradientUnits="userSpaceOnUse" x1="5.3126" x2="6.7755" y1="506.7197" y2="506.7197"><stop offset="0" stop-color="#fff"/><stop offset=".18" stop-color="#e46342"/><stop offset=".4" stop-color="#c82410"/><stop offset=".99" stop-color="#a80d00"/><stop offset="1" stop-color="#a80d00"/></linearGradient><linearGradient id="h" gradientTransform="matrix(70.1175 -35.0588 -35.0588 -70.1175 17610.2207 35791.6836)" gradientUnits="userSpaceOnUse" x1="6.5927" x2="8.0556" y1="506.7213" y2="506.7213"><stop offset="0" stop-color="#fff"/><stop offset=".54" stop-color="#c81f11"/><stop offset=".99" stop-color="#bf0905"/><stop offset="1" stop-color="#bf0905"/></linearGradient><linearGradient id="i" gradientTransform="matrix(5.771 57.7794 57.7794 -5.771 -29183.1055 2855.5315)" gradientUnits="userSpaceOnUse" x1="6.0737" x2="7.5366" y1="504.6465" y2="504.6465"><stop offset="0" stop-color="#fff"/><stop offset=".31" stop-color="#de4024"/><stop offset=".99" stop-color="#bf190b"/><stop offset="1" stop-color="#bf190b"/></linearGradient><linearGradient id="j" gradientTransform="matrix(271.2857 -278.9576 -278.9576 -271.2857 139573.0625 139299.7969)" gradientUnits="userSpaceOnUse" x1="5.7429" x2="7.2057" y1="506.0946" y2="506.0946"><stop offset="0" stop-color="#bd0012"/><stop offset=".07" stop-color="#fff"/><stop offset=".17" stop-color="#fff"/><stop offset=".27" stop-color="#c82f1c"/><stop offset=".33" stop-color="#820c01"/><stop offset=".46" stop-color="#a31601"/><stop offset=".72" stop-color="#b31301"/><stop offset=".99" stop-color="#e82609"/><stop offset="1" stop-color="#e82609"/></linearGradient><linearGradient id="k" gradientTransform="matrix(-81.7137 -20.1676 -20.1676 81.7137 10951.1055 -40842.5078)" gradientUnits="userSpaceOnUse" x1="5.8317" x2="7.2946" y1="506.6818" y2="506.6818"><stop offset="0" stop-color="#8c0c01"/><stop offset=".54" stop-color="#990c00"/><stop offset=".99" stop-color="#a80d0e"/><stop offset="1" stop-color="#a80d0e"/></linearGradient><linearGradient id="l" gradientTransform="matrix(-72.5918 -65.0618 -65.0618 72.5918 33753.19140000001 -36055.5352)" gradientUnits="userSpaceOnUse" x1="5.4101" x2="6.8729" y1="505.66" y2="505.66"><stop offset="0" stop-color="#7e110b"/><stop offset=".99" stop-color="#9e0c00"/><stop offset="1" stop-color="#9e0c00"/></linearGradient><linearGradient id="m" gradientTransform="matrix(-36.1593 -38.657 -38.657 36.1593 20200.4375 -17898.4961)" gradientUnits="userSpaceOnUse" x1="5.5759" x2="7.0387" y1="504.3957" y2="504.3957"><stop offset="0" stop-color="#79130d"/><stop offset=".99" stop-color="#9e120b"/><stop offset="1" stop-color="#9e120b"/></linearGradient><radialGradient id="n" cx="6.4115" cy="506.1783" gradientTransform="matrix(88.9575 0 0 -88.9575 -198.6643 45234.2188)" gradientUnits="userSpaceOnUse" r="1.4629"><stop offset="0" stop-color="#a80d00"/><stop offset=".99" stop-color="#7e0e08"/><stop offset="1" stop-color="#7e0e08"/></radialGradient><radialGradient id="o" cx="5.8273" cy="505.6753" gradientTransform="matrix(118.2575 0 0 -118.2575 -497.6597 60177.2539)" gradientUnits="userSpaceOnUse" r="1.4629"><stop offset="0" stop-color="#a30c00"/><stop offset=".99" stop-color="#800e08"/><stop offset="1" stop-color="#800e08"/></radialGradient><linearGradient id="p" gradientTransform="matrix(-29.4676 -99.9741 -99.9741 29.4676 50891.8125 -13880.6777)" gradientUnits="userSpaceOnUse" x1="5.419" x2="6.8819" y1="506.7628" y2="506.7628"><stop offset="0" stop-color="#8b2114"/><stop offset=".43" stop-color="#9e100a"/><stop offset=".99" stop-color="#b3100c"/><stop offset="1" stop-color="#b3100c"/></linearGradient><linearGradient id="q" gradientTransform="matrix(66.0641 29.1617 29.1617 -66.0641 -14798.0283 33352.2578)" gradientUnits="userSpaceOnUse" x1="6.1688" x2="7.6316" y1="507.1754" y2="507.1754"><stop offset="0" stop-color="#b31000"/><stop offset=".44" stop-color="#910f08"/><stop offset=".99" stop-color="#791c12"/><stop offset="1" stop-color="#791c12"/></linearGradient><path d="m396.73 337.77-292.43 173.5 378.59-25.6 29.11-381.66z" fill="url(#a)"/><path d="m483.47 485.38-32.47-224.55-88.65 117.03z" fill="url(#c)"/><path d="m483.91 485.38-238.3-18.73-139.99 44.18z" fill="url(#d)"/><path d="m105.91 510.83 59.54-195-130.93 27.94z" fill="url(#e)"/><path d="m362.35 378.44-54.86-214.6-156.82 147.02z" fill="url(#f)"/><path d="m499.57 166.91-148.19-121.12-41.25 133.56z" fill="url(#g)"/><path d="m430.23 2.63-87.19 48.28-55-48.86z" fill="url(#h)"/><path d="m0 409.31 36.57-66.71-29.55-79.29z" fill="url(#i)"/><path d="m4.97 260.83 29.7 84.26 129.17-28.96 147.46-137.08 41.55-132.1-65.54-46.22-111.33 41.69c-35.11 32.62-103.13 97.28-105.62 98.45-2.48 1.17-44.91 81.63-65.39 119.96z" fill="#fff"/><path d="m109.42 109.42c76.07-75.34 174.08-119.95 211.68-82.06 37.6 38.03-2.34 130.19-78.26 205.53s-172.92 122.44-210.51 84.55c-37.74-38.03 1.02-132.68 77.09-208.02z" fill="url(#j)"/><path d="m105.91 510.83 59.1-195.73 196.17 63.05c-70.95 66.56-149.8 122.73-255.27 132.68z" fill="url(#k)"/><path d="m311.59 178.76 50.32 199.53c59.25-62.32 112.49-129.32 138.53-212.11z" fill="url(#l)"/><path d="m499.86 167.06c20.19-60.85 24.87-148.04-70.22-164.28l-77.97 43.01z" fill="url(#m)"/><path d="m0 408.43c2.78 100.35 75.19 101.96 106.06 102.84l-71.24-166.62z" fill="#9e1209"/><path d="m311.88 179.05c45.49 27.94 137.36 84.26 139.12 85.28 2.93 1.61 39.5-61.88 47.84-97.72z" fill="url(#n)"/><path d="m165.01 315.1 78.99 152.43c46.67-25.31 83.24-56.17 116.74-89.23z" fill="url(#o)"/><path d="m34.52 344.94-11.11 133.27c21.07 28.82 50.18 31.31 80.6 29.11-22.09-55-66.12-164.72-69.49-162.38z" fill="url(#p)"/><path d="m351.23 46.23 156.82 22.09c-8.34-35.55-34.08-58.37-77.97-65.54z" fill="url(#q)"/></svg>