<svg enable-background="new 0 0 512 512" viewBox="0 0 512 512" xmlns="http://www.w3.org/2000/svg"><path d="m508.71 249.74-21.48-13.33c-.14-2.11-.42-4.21-.56-6.32l18.53-17.27c1.82-1.68 2.67-4.35 2.25-6.88-.56-2.53-2.25-4.63-4.63-5.47l-23.58-8.84c-.56-2.11-1.26-4.07-1.82-6.04l14.74-20.49c1.54-2.11 1.82-4.77.84-7.16s-3.09-4.07-5.61-4.49l-24.99-4.07c-.98-1.82-1.97-3.79-2.95-5.61l10.53-23.02c1.12-2.39.84-5.05-.56-7.16s-3.79-3.37-6.46-3.23l-25.27.84c-1.26-1.68-2.67-3.23-3.93-4.91l5.76-24.56c.56-2.53-.14-5.05-1.97-6.88-1.82-1.82-4.49-2.53-6.88-1.97l-24.56 5.76c-1.54-1.4-3.23-2.67-4.91-3.93l.84-25.27c.14-2.53-1.12-5.05-3.23-6.46-2.11-1.4-4.91-1.68-7.16-.56l-23.02 10.53c-1.82-.98-3.65-1.97-5.61-2.95l-4.49-24.99c-.42-2.53-2.11-4.63-4.49-5.61s-5.05-.7-7.16.84l-20.49 14.74c-1.97-.7-4.07-1.26-6.04-1.82l-8.84-23.58c-.84-2.39-2.95-4.21-5.47-4.63-2.53-.56-5.05.28-6.88 2.25l-17.27 18.53c-2.11-.28-4.21-.42-6.32-.56l-13.2-21.77c-1.4-2.25-3.79-3.51-6.32-3.51s-4.91 1.26-6.32 3.51l-13.33 21.48c-2.11.14-4.21.42-6.32.56l-17.26-18.53c-1.68-1.82-4.35-2.67-6.88-2.25-2.53.56-4.63 2.25-5.47 4.63l-8.84 23.58c-2.11.56-4.07 1.26-6.04 1.82l-20.35-14.46c-2.11-1.54-4.77-1.82-7.16-.84s-4.07 3.09-4.49 5.61l-4.08 25c-1.82.98-3.79 1.97-5.61 2.95l-23.02-10.53c-2.39-1.12-5.05-.84-7.16.56s-3.37 3.79-3.23 6.46l.84 25.27c-1.68 1.26-3.23 2.67-4.91 3.93l-24.56-5.76c-2.53-.56-5.19.14-6.88 1.97-1.82 1.82-2.53 4.49-1.97 6.88l5.76 24.56c-1.4 1.54-2.67 3.23-3.93 4.91l-25.27-.84c-2.53-.14-5.05 1.12-6.46 3.23-1.4 2.11-1.68 4.91-.56 7.16l10.53 23.02c-.98 1.82-1.97 3.65-2.95 5.61l-25.13 4.21c-2.53.42-4.63 2.11-5.61 4.49-.98 2.39-.7 5.05.84 7.16l14.74 20.49c-.7 1.97-1.26 4.07-1.82 6.04l-23.58 8.84c-2.39.84-4.21 2.95-4.63 5.47-.56 2.53.28 5.05 2.25 6.88l18.53 17.27c-.28 2.11-.42 4.21-.56 6.32l-21.77 13.19c-2.25 1.4-3.51 3.79-3.51 6.32s1.26 4.91 3.51 6.32l21.48 13.33c.14 2.11.42 4.21.56 6.32l-18.53 17.26c-1.82 1.68-2.67 4.35-2.25 6.88.56 2.53 2.25 4.63 4.63 5.47l23.58 8.84c.56 2.11 1.26 4.07 1.82 6.04l-14.46 20.35c-1.54 2.11-1.82 4.77-.84 7.16s3.09 4.07 5.61 4.49l24.85 4.07c.98 1.82 1.97 3.79 2.95 5.61l-10.53 23.02c-1.12 2.39-.84 5.05.56 7.16s3.93 3.37 6.46 3.23l25.27-.84c1.26 1.68 2.67 3.23 3.93 4.91l-5.76 24.7c-.56 2.53.14 5.05 1.97 6.88 1.82 1.82 4.49 2.53 6.88 1.97l24.56-5.76c1.54 1.4 3.23 2.67 4.91 3.93l-.84 25.27c-.14 2.53 1.12 5.05 3.23 6.46 2.11 1.4 4.91 1.68 7.16.56l23.02-10.53c1.82.98 3.65 1.97 5.61 2.95l4.07 24.85c.42 2.53 2.11 4.63 4.49 5.61 2.39.98 5.05.7 7.16-.84l20.5-14.73c1.97.7 4.07 1.26 6.04 1.82l8.84 23.58c.84 2.39 2.95 4.21 5.47 4.63 2.53.56 5.05-.28 6.88-2.25l17.27-18.53c2.11.28 4.21.42 6.32.56l13.33 21.48c1.4 2.11 3.79 3.51 6.32 3.51s4.91-1.26 6.32-3.51l13.33-21.48c2.11-.14 4.21-.42 6.32-.56l17.27 18.53c1.68 1.82 4.35 2.67 6.88 2.25 2.53-.56 4.63-2.25 5.47-4.63l8.84-23.58c2.11-.56 4.07-1.26 6.04-1.82l20.49 14.74c2.11 1.54 4.77 1.82 7.16.84s4.07-3.09 4.49-5.61l4.07-24.85c1.82-.98 3.79-1.97 5.61-2.95l23.02 10.53c2.39 1.12 5.05.84 7.16-.56s3.37-3.79 3.23-6.46l-.84-25.27c1.68-1.26 3.23-2.67 4.91-3.93l24.56 5.76c2.53.56 5.19-.14 6.88-1.97 1.82-1.82 2.53-4.49 1.97-6.88l-5.76-24.7c1.4-1.54 2.67-3.23 3.93-4.91l25.27.84c2.53.14 5.05-1.12 6.46-3.23 1.4-2.11 1.68-4.91.56-7.16l-10.53-23.02c.98-1.82 1.97-3.65 2.95-5.61l24.99-4.07c2.53-.42 4.63-2.11 5.61-4.49.98-2.39.7-5.05-.84-7.16l-14.74-20.49c.7-1.97 1.26-4.07 1.82-6.04l23.58-8.84c2.39-.84 4.21-2.95 4.63-5.47.56-2.53-.28-5.05-2.25-6.88l-18.53-17.27c.28-2.11.42-4.21.56-6.32l21.48-13.33c2.25-1.4 3.51-3.79 3.51-6.32.43-2.39-.83-4.77-3.08-6.18zm-144.02 178.41c-8.28-1.82-13.48-9.83-11.65-18.11 1.82-8.28 9.83-13.48 18.11-11.65 8.28 1.82 13.48 9.83 11.65 18.11-1.68 8.28-9.82 13.48-18.11 11.65zm-7.3-49.41c-7.44-1.54-14.88 3.23-16.42 10.67l-7.58 35.65c-23.58 10.67-49.69 16.7-77.34 16.7-28.21 0-54.88-6.18-78.89-17.41l-7.58-35.65c-1.54-7.44-8.98-12.21-16.42-10.67l-31.44 6.74c-5.9-6.04-11.23-12.35-16.28-19.23h153.14c1.68 0 2.95-.28 2.95-1.82v-54.18c0-1.54-1.12-1.82-2.95-1.82h-44.78v-34.39h48.43c4.35 0 23.58 1.26 29.76 25.83 1.97 7.58 6.18 32.14 8.98 40 2.95 8.84 14.6 26.39 27.09 26.39h76.22c.84 0 1.82-.14 2.81-.28-5.33 7.16-11.09 14.04-17.41 20.35zm-211.67 48.71c-8.28 1.82-16.28-3.51-18.11-11.65-1.82-8.28 3.51-16.28 11.65-18.11 8.28-1.82 16.28 3.51 18.11 11.65 1.83 8.28-3.37 16.42-11.65 18.11zm-58.11-235.4c3.37 7.72 0 16.7-7.72 20.07s-16.7 0-20.07-7.72 0-16.7 7.72-20.07c7.72-3.51 16.7 0 20.07 7.72zm-17.83 42.25 32.71-14.6c7.02-3.09 10.11-11.37 7.02-18.39l-6.74-15.3h26.53v119.59h-53.62c-4.63-16.28-7.16-33.55-7.16-51.37.28-6.59.56-13.33 1.26-19.93zm143.88-11.65v-35.23h63.17c3.23 0 23.02 3.79 23.02 18.53 0 12.35-15.16 16.7-27.65 16.7zm229.64 31.73c0 4.63-.14 9.26-.56 13.9h-19.23c-1.97 0-2.67 1.26-2.67 3.09v8.84c0 20.77-11.65 25.27-22.04 26.39-9.83 1.12-20.63-4.07-21.9-10.11-5.76-32.42-15.44-39.3-30.6-51.37 18.81-11.93 38.46-29.62 38.46-53.2 0-25.55-17.55-41.55-29.34-49.41-16.7-11.09-35.23-13.19-40.29-13.19h-198.61c26.95-30.04 63.45-51.37 104.85-59.09l23.44 24.56c5.33 5.61 14.04 5.76 19.65.42l26.25-25.13c54.88 10.25 101.49 44.36 128.3 91.38l-17.97 40.57c-3.09 7.02 0 15.16 7.02 18.39l34.53 15.3c.43 6.16.71 12.48.71 18.66zm-198.62-204.94c6.04-5.76 15.72-5.61 21.48.56 5.76 6.04 5.61 15.72-.56 21.48-6.04 5.76-15.72 5.61-21.48-.56-5.62-6.04-5.48-15.73.56-21.48zm178.13 143.31c3.37-7.72 12.35-11.23 20.07-7.72 7.72 3.37 11.09 12.35 7.72 20.07s-12.35 11.23-20.07 7.72c-7.58-3.36-11.09-12.34-7.72-20.07z"/></svg>