<svg enable-background="new 0 0 512 512" viewBox="0 0 512 512" xmlns="http://www.w3.org/2000/svg"><path d="m440.97 284.76c-17.81.14-33.38 4.35-46.43 10.8-4.77-9.4-9.54-17.81-10.38-23.99-.98-7.15-2.1-11.64-.98-20.2s6.17-20.9 6.03-21.74c-.14-.98-1.12-5.33-11.36-5.47s-19.22 1.96-20.2 4.63-2.95 8.84-4.35 15.29c-1.82 9.4-20.62 42.78-31.28 60.18-3.51-6.87-6.45-12.76-7.15-17.53-.98-7.15-2.1-11.64-.98-20.2s6.17-20.9 6.03-21.74c-.14-.98-1.12-5.33-11.36-5.47s-19.22 1.96-20.2 4.63-2.1 9.12-4.35 15.29c-2.1 6.17-27.07 61.86-33.66 76.31-3.37 7.43-6.31 13.33-8.28 17.25 0 0-.14.28-.42.7-1.82 3.51-2.81 5.33-2.81 5.33s0 0 0 .14c-1.4 2.52-2.95 4.91-3.65 4.91-.56 0-1.54-6.73.14-15.85 3.79-19.36 12.62-49.51 12.48-50.5 0-.56 1.68-5.75-5.75-8.56-7.29-2.67-9.96 1.82-10.52 1.82-.7 0-1.12 1.54-1.12 1.54s8.14-33.8-15.57-33.8c-14.73 0-35.21 16.13-45.31 30.72-6.31 3.51-19.92 10.8-34.37 18.8-5.47 3.09-11.22 6.17-16.55 9.12-.42-.42-.7-.84-1.12-1.26-28.61-30.58-81.5-52.18-79.25-93.28.84-15.01 6.03-54.28 101.69-101.98 78.69-38.85 141.39-28.05 152.19-4.21 15.57 34.09-33.52 97.21-114.88 106.46-31 3.51-47.27-8.56-51.48-13.04-4.35-4.63-4.91-4.91-6.59-4.07-2.67 1.4-.98 5.61 0 8 2.38 6.31 12.48 17.53 29.32 23.14 15.01 4.91 51.34 7.57 95.38-9.4 49.23-19.08 87.81-72.1 76.45-116.56-11.36-45.03-86.12-59.89-156.96-34.79-42.08 15.01-87.67 38.57-120.49 69.15-38.98 36.47-45.16 68.17-42.63 81.5 9.12 47.13 74.06 77.85 100.01 100.57-1.26.7-2.52 1.4-3.51 1.96-13.04 6.45-62.56 32.4-74.9 59.75-14.03 31 2.24 53.3 13.04 56.25 33.38 9.26 67.75-7.43 86.12-34.93 18.38-27.49 16.13-63.26 7.71-79.53-.14-.14-.14-.42-.42-.56 3.37-1.96 6.87-4.07 10.24-6.03 6.59-3.93 13.19-7.57 18.8-10.52-3.23 8.7-5.47 19.08-6.59 34.09-1.4 17.53 5.75 40.4 15.29 49.37 4.21 3.93 9.12 4.07 12.34 4.07 11.08 0 15.99-9.12 21.46-20.06 6.73-13.33 12.76-28.76 12.76-28.76s-7.57 41.66 13.04 41.66c7.43 0 15.01-9.68 18.38-14.73v.14s.14-.28.56-.98c.7-1.26 1.26-1.96 1.26-1.96v-.14c2.95-5.19 9.68-17.11 19.78-36.89 12.9-25.39 25.39-57.23 25.39-57.23s1.12 7.71 4.91 20.62c2.24 7.57 6.87 15.85 10.66 23.99-2.95 4.21-4.91 6.59-4.91 6.59s0 0 .14.14c-2.38 3.23-5.05 6.59-8 9.96-10.24 12.2-22.3 26.09-23.99 30.16-1.96 4.77-1.54 8.28 2.24 11.08 2.67 2.1 7.57 2.38 12.48 2.1 9.12-.7 15.57-2.95 18.8-4.35 4.91-1.82 10.8-4.49 16.13-8.56 9.96-7.43 16.13-17.95 15.57-31.84-.28-7.71-2.81-15.29-5.89-22.58.98-1.26 1.82-2.67 2.67-3.93 15.85-23.14 28.05-48.39 28.05-48.39s1.12 7.71 4.91 20.62c1.82 6.59 5.75 13.61 9.12 20.62-14.87 12.06-23.99 26.09-27.35 35.21-5.89 16.97-1.26 24.69 7.43 26.51 3.93.84 9.54-.98 13.61-2.81 5.19-1.68 11.36-4.63 17.25-8.84 9.96-7.43 19.64-17.67 19.08-31.56-.28-6.31-1.96-12.62-4.35-18.66 12.62-5.19 28.9-8.14 49.66-5.75 44.47 5.19 53.3 32.96 51.62 44.75-1.68 11.64-11.08 18.09-14.17 20.06-3.09 1.96-4.07 2.67-3.79 4.07.42 2.1 1.82 1.96 4.49 1.54 3.65-.7 23.42-9.4 24.27-31 1.84-27.62-24.39-57.64-70.68-57.36zm-343.38 115.72c-14.73 16.13-35.35 22.16-44.18 16.97-9.54-5.47-5.75-29.32 12.34-46.29 11.08-10.38 25.25-20.06 34.65-25.95 2.1-1.26 5.33-3.23 9.12-5.47.7-.42.98-.56.98-.56.7-.42 1.54-.98 2.24-1.4 6.74 24.41.42 45.87-15.15 62.7zm107.59-73.08c-5.19 12.48-15.85 44.61-22.44 42.78-5.61-1.54-9.12-25.81-1.12-49.8 4.07-12.06 12.48-26.51 17.53-32.12 8-8.98 16.97-11.92 19.08-8.28 2.66 4.78-9.96 39.57-13.05 47.42zm88.65 42.5c-2.1 1.12-4.21 1.82-5.19 1.26-.7-.42.98-1.82.98-1.82s11.08-11.92 15.57-17.39c2.52-3.23 5.47-6.87 8.7-11.08v1.26c0 14.17-13.89 23.85-20.06 27.77zm68.45-15.71c-1.54-1.12-1.26-4.91 4.07-16.55 2.1-4.63 6.87-12.2 15.29-19.64.98 2.95 1.54 5.89 1.54 8.56-.14 18.1-13.04 24.83-20.9 27.63z" fill="#cd6799"/></svg>