<svg enable-background="new 0 0 512 512" viewBox="0 0 512 512" xmlns="http://www.w3.org/2000/svg" xmlns:xlink="http://www.w3.org/1999/xlink"><linearGradient id="a"><stop offset="0" stop-color="#4f4f4f"/><stop offset="1"/></linearGradient><linearGradient id="b" gradientTransform="matrix(256 0 0 96 87465 -54698)" gradientUnits="userSpaceOnUse" x1="-341.2755" x2="-340.0448" xlink:href="#a" y1="573.2579" y2="573.2579"/><linearGradient id="c" gradientTransform="matrix(256 0 0 96 87465 -54826)" gradientUnits="userSpaceOnUse" x1="-341.2755" x2="-340.0448" xlink:href="#a" y1="572.9504" y2="572.9504"/><linearGradient id="d"><stop offset="0" stop-color="#c40000"/><stop offset="1" stop-color="#f00"/></linearGradient><linearGradient id="e" gradientTransform="matrix(256 0 0 160 87465 -91370)" gradientUnits="userSpaceOnUse" x1="-341.2755" x2="-340.0448" xlink:href="#d" y1="572.6625" y2="572.6625"/><linearGradient id="f" gradientTransform="matrix(256 0 0 160 87465 -91498)" gradientUnits="userSpaceOnUse" x1="-341.2755" x2="-340.0448" xlink:href="#d" y1="572.478" y2="572.478"/><linearGradient id="g" gradientTransform="matrix(256 0 0 160 87465 -91242)" gradientUnits="userSpaceOnUse" x1="-341.2755" x2="-340.0448" xlink:href="#d" y1="572.847" y2="572.847"/><path d="m98.47 315.06v39.42c0 6.59 143.22 17.81 236.5 39.42 45.03-10.38 78.55-23.29 78.55-39.42v-39.42c0-15.99-33.39-28.9-78.55-39.42-93.28 21.74-236.5 32.82-236.5 39.42" fill="url(#b)"/><path d="m98.47 157.53v39.42c0 6.59 143.22 17.81 236.5 39.42 45.03-10.38 78.55-23.29 78.55-39.42v-39.42c0-15.99-33.39-28.9-78.55-39.42-93.28 21.74-236.5 32.82-236.5 39.42" fill="url(#c)"/><path d="m98.47 236.36v118.11c0-9.82 315.06-29.6 315.06-78.83v-118.11c0 49.23-315.06 68.87-315.06 78.83" fill="url(#e)"/><path d="m98.47 78.83v118.11c0-9.82 315.06-29.6 315.06-78.83v-118.11c0 49.24-315.06 68.87-315.06 78.83" fill="url(#f)"/><path d="m98.47 393.89v118.11c0-9.82 315.06-29.6 315.06-78.83v-118.11c0 49.23-315.06 69.01-315.06 78.83" fill="url(#g)"/></svg>