<svg height="2500" viewBox="0 0 767.8 768" width="2499" xmlns="http://www.w3.org/2000/svg"><path d="m698.3 40c-10.8 25.8-24.5 50.3-41 72.8-72.2-72.2-170.2-112.8-272.3-112.8-211.2 0-385 174-385 385.5 0 105.5 43.2 206.5 119.6 279.3l14.2 12.6c69.4 58.5 157.3 90.7 248 90.7 200.8 0 369.6-157.4 383.9-358 10.5-98.2-18.3-222.4-67.4-370.1zm-524 627c-6.2 7.7-15.7 12.2-25.6 12.2-18.1 0-32.9-14.9-32.9-33s14.9-33 32.9-33c7.5 0 14.9 2.6 20.7 7.4 14.1 11.4 16.3 32.3 4.9 46.4zm522.4-115.4c-95 126.7-297.9 84-428 90.1 0 0-23.1 1.4-46.3 5.2 0 0 8.7-3.7 20-8 91.3-31.8 134.5-38 190-66.5 104.5-53.2 207.8-169.6 229.3-290.7-39.8 116.5-160.4 216.6-270.3 257.3-75.3 27.8-211.3 54.8-211.3 54.8l-5.5-2.9c-92.6-45.1-95.4-245.8 72.9-310.6 73.7-28.4 144.2-12.8 223.8-31.8 85-20.2 183.3-84 223.3-167.2 44.8 133.1 98.7 341.5 2.1 470.3z" fill="#77bc1f"/></svg>