<svg enable-background="new 0 0 512 512" viewBox="0 0 512 512" xmlns="http://www.w3.org/2000/svg" xmlns:xlink="http://www.w3.org/1999/xlink"><linearGradient id="a" gradientTransform="matrix(0 144.1608 136.5305 0 -78359.1797 49407.6602)" gradientUnits="userSpaceOnUse" x1="-341.6123" x2="-340.6122" y1="574.5098" y2="574.5098"><stop offset="0" stop-color="#97d9f6"/><stop offset=".9202" stop-color="#0f80cc"/><stop offset="1" stop-color="#0f80cc"/></linearGradient><path d="m194.56 254.45c-6.87 0-12.34 1.96-16.69 6.03-4.21 4.07-6.45 9.4-6.45 15.85 0 3.37.56 6.45 1.54 9.26 1.12 2.8 2.66 5.47 4.91 7.71 2.24 2.38 6.59 5.61 13.18 9.68 8.13 4.91 13.32 8.98 15.85 12.06 2.52 3.09 3.79 6.45 3.79 9.82 0 4.63-1.54 8.27-4.63 10.94-3.09 2.8-7.29 4.07-12.34 4.07-5.47 0-10.1-1.96-14.16-5.75-4.07-3.79-6.03-8.83-6.17-15.15h-2.52v22.86h2.52c.7-2.1 1.82-3.23 3.23-3.23.7 0 2.24.42 4.63 1.26 5.89 2.1 10.8 3.09 14.72 3.09 6.59 0 12.2-2.38 16.97-7.01 4.77-4.77 7.01-10.38 7.01-16.97 0-5.19-1.54-9.68-4.63-13.74-3.09-3.93-9.12-8.69-17.95-14.02-7.71-4.63-12.62-8.41-15.01-11.36-2.24-2.94-3.51-6.17-3.51-9.68 0-3.79 1.4-6.87 4.21-9.26 2.8-2.24 6.45-3.51 10.94-3.51 5.19 0 9.4 1.54 12.76 4.63 3.37 3.09 5.33 7.29 5.89 12.76h2.52v-19.77h-2.38c-.28.98-.56 1.68-.84 1.96s-.7.42-1.4.42c-.84 0-2.24-.28-4.35-.98-3.79-1.13-7.86-1.97-11.64-1.97zm82.46 0c-8.27 0-15.85 1.96-22.72 5.89s-12.2 9.4-16.27 16.27c-3.93 6.87-6.03 14.3-6.03 22.16 0 10.52 3.51 19.91 10.38 28.05 7.01 8.27 15.29 13.32 24.96 15.29 2.24 1.12 5.33 4.07 9.54 8.98 4.63 5.47 8.55 9.4 11.78 11.64 3.23 2.38 6.73 4.07 10.38 5.19s7.71 1.68 12.06 1.68c5.19 0 9.96-.84 14.02-2.8l-.98-2.24c-2.38.84-4.91 1.26-7.71 1.26-3.65 0-7.29-1.26-11.08-3.65-3.65-2.38-8.27-7.01-13.88-13.88-2.52-3.23-4.35-5.33-5.33-6.17 10.52-2.1 19.21-7.15 26.08-15.43 6.73-8.13 10.24-17.53 10.24-28.05 0-12.48-4.49-22.86-13.18-31.41-8.71-8.43-19.5-12.78-32.26-12.78zm51.32 0 .14 2.66c5.47 0 8.69 1.68 9.4 4.91.28 1.12.42 3.37.42 6.45v59.6c0 4.49-.7 7.29-1.96 8.55s-3.23 1.96-6.31 2.24l-.14 2.66h55.11l1.4-13.46h-2.52c-.7 3.65-2.38 6.31-5.05 7.85-2.66 1.54-7.29 2.24-14.02 2.24h-5.05c-6.03 0-9.54-2.24-10.52-6.59-.14-.84-.28-1.82-.28-2.8l.28-60.3c0-4.49.56-7.43 1.68-8.83s3.37-2.24 6.31-2.52l-.14-2.66h-28.75zm-50.48 3.23c9.4 0 16.97 3.65 23 11.08 5.89 7.43 8.83 17.67 8.83 30.57 0 12.2-2.94 22.02-8.98 29.45-5.89 7.43-13.88 11.08-23.7 11.08-9.4 0-17.11-3.79-23-11.36s-8.83-17.53-8.83-29.73c0-12.48 2.94-22.44 8.83-30.01 5.9-7.3 13.89-11.08 23.85-11.08zm126.91 12.9c-1.4 0-2.38.42-3.09 1.4-.84.98-.98 1.96-.7 3.37.28 1.26.98 2.38 2.1 3.37 1.12.98 2.38 1.4 3.79 1.4 1.26 0 2.24-.56 2.94-1.4.7-.98.98-2.1.7-3.37-.28-1.4-.98-2.38-2.1-3.37-1.12-.98-2.38-1.4-3.64-1.4zm36.32 9.11c-2.24 8.83-7.29 13.6-14.86 14.3l.14 2.52h8.83l-.14 29.73c0 5.05.14 8.55.56 10.24.84 4.07 3.51 6.17 8.13 6.17 6.59 0 13.32-3.93 20.61-11.92l-2.1-1.82c-5.19 5.19-9.82 7.85-13.74 7.85-2.52 0-3.93-1.4-4.49-4.21-.14-.7-.28-1.4-.28-2.38l.14-33.8h13.6l-.14-4.07h-13.45v-12.76h-2.8v.15zm52.45 11.22c-7.57 0-13.74 3.65-18.51 10.94s-6.31 15.43-4.35 24.4c1.12 5.19 3.37 9.26 6.73 12.2 3.37 2.8 7.57 4.35 12.76 4.35 4.77 0 11.36-1.26 14.16-3.65s5.33-6.31 7.71-11.78l-1.96-1.96c-3.79 7.01-11.5 10.52-17.25 10.52-7.99 0-12.76-4.35-14.58-13.04-.28-1.12-.42-2.24-.56-3.51 9.4-1.54 16.55-4.07 21.46-7.99 4.77-3.79 9.68-7.85 8.69-12.2-.56-2.52-1.82-4.49-3.93-6.03-1.96-1.41-7.43-2.25-10.37-2.25zm-82.88.28-16.41 3.79v2.94l5.61-.7c2.8 0 4.35 1.26 4.91 3.65.14.84.28 1.96.28 3.51l-.14 26.79c0 3.65-.42 5.89-1.26 6.45-.84.7-3.09.98-6.59.98l-.14 2.52h25.94v-2.52c-3.65 0-5.89-.28-7.01-.84-.98-.56-1.68-1.54-2.1-3.09-.28-1.12-.28-3.09-.42-5.61l.14-37.72h-2.8v-.15zm78.81 5.05c1.54 0 3.09.56 4.63 1.82s2.38 2.52 2.8 3.93c1.54 7.15-4.77 12.06-19.07 14.72-.42-5.19.56-9.96 2.8-14.16 2.25-4.2 5.2-6.31 8.84-6.31z" fill="#003b57"/><path d="m157.96 152.36h-140.8c-9.4 0-17.11 7.71-17.11 17.11v155.24c0 9.4 7.71 17.11 17.11 17.11h92.7c-.99-46 14.72-135.61 48.1-189.46z" fill="#0f80cc"/><path d="m152.91 157.41h-135.75c-6.73 0-12.2 5.47-12.2 12.2v143.88c30.71-11.78 76.85-22.02 108.68-21.46 6.59-33.65 25.38-99.28 39.27-134.62z" fill="url(#a)"/><path d="m190.77 147.31c-9.68-8.55-21.32-5.19-32.82 5.05-1.68 1.54-3.37 3.23-5.05 5.05-19.77 20.9-38 59.6-43.61 89.19 2.24 4.49 3.93 10.24 5.05 14.58.28 1.12.56 2.24.7 3.09.56 2.1.7 3.51.7 3.51s-.14-.7-.84-2.8c-.14-.42-.28-.84-.42-1.4-.14-.28-.14-.42-.28-.7-1.26-2.94-4.91-9.26-6.45-12.06-1.4 3.93-2.52 7.57-3.51 10.94 4.49 8.27 7.29 22.44 7.29 22.44s-.28-.98-1.4-4.07c-.98-2.8-6.03-11.64-7.15-13.74-2.1 7.57-2.8 12.62-2.1 13.88 1.4 2.38 2.8 6.45 3.93 11.08 2.66 10.24 4.49 22.86 4.49 22.86s0 .84.14 2.1c-.42 8.69-.14 17.53.56 25.66.84 10.66 2.52 19.91 4.63 24.82l1.4-.84c-3.09-9.68-4.35-22.44-3.79-37.02.84-22.44 6.03-49.5 15.57-77.55 16.13-42.49 38.42-76.71 58.9-92.98-18.65 16.83-43.89 71.24-51.47 91.43-8.41 22.58-14.44 43.75-18.09 64.09 6.17-19.07 26.36-27.21 26.36-27.21s9.82-12.2 21.46-29.59c-6.87 1.54-18.23 4.35-22.02 5.89-5.61 2.38-7.15 3.23-7.15 3.23s18.23-11.08 33.8-16.13c21.31-33.8 44.73-81.9 21.17-102.8" fill="#003b57"/></svg>