<svg enable-background="new 0 0 512 512" viewBox="0 0 512 512" xmlns="http://www.w3.org/2000/svg" xmlns:xlink="http://www.w3.org/1999/xlink"><linearGradient id="a" gradientTransform="matrix(0 35.7617 35.7617 0 -20637.7832 12367.3564)" gradientUnits="userSpaceOnUse" x1="-345.0709" x2="-332.2643" y1="584.2496" y2="584.2496"><stop offset="0" stop-color="#f88a36"/><stop offset="1" stop-color="#fd2020"/></linearGradient><path d="m471.5 342.41c28.48-112.93-40.12-245.23-156.7-315.37 51.77 70.01 72.53 153.06 54.43 227.13-1.26 6.45-3.93 13.05-6.45 19.5-22.31-15.43-125.7-79.12-250-204.97-3.93-3.93 67.34 101.29 146.32 184.2-37.6-22.03-142.54-97.36-208.61-158.25 7.72 13.05 18.1 25.95 28.48 40.26 55.7 71.41 126.96 156.99 213.8 223.2-60.89 37.6-146.32 40.26-233.16 0-22.03-9.11-40.13-22.01-59.63-36.32 36.34 57.1 92.03 107.74 159.37 136.22 80.39 35.07 162.6 35.35 229.24-5.19 28.48-14.31 85.44-29.88 116.58 29.88 6.45 16.83 22.03-61.03-36.34-132.29 1.4-2.81 1.4-5.34 2.67-8z" fill="url(#a)"/></svg>