<svg enable-background="new 0 0 512 512" viewBox="0 0 512 512" xmlns="http://www.w3.org/2000/svg"><path d="m290.1 78.8v78.8l136.4 78.8v-78.8zm-272.9 78.7v78.8l68.2 39.4v-78.8zm204.7 39.4-68.2 39.4v236.3l68.2 39.4v-157.5l68.2 39.4v-78.8l-68.2-39.4z" fill="#e55b2d"/><path d="m290.1 78.8-204.6 118.1v78.8l136.4-78.8v78.8l68.2-39.4zm204.7 39.4-68.2 39.4v78.8l68.2-39.4zm-136.5 157.5-68.2 39.4v78.8l68.2-39.4zm-68.2 118.1-68.2-39.4v157.6l68.2-39.4z" fill="#ed8e24"/><path d="m290.1 0-272.9 157.5 68.2 39.4 204.7-118.1 136.4 78.8 68.2-39.4zm0 236.3-68.2 39.4 68.2 39.4 68.2-39.4z" fill="#f8bf3c"/></svg>