<svg enable-background="new 0 0 512 512" viewBox="0 0 512 512" xmlns="http://www.w3.org/2000/svg"><path d="m0 256v256h256 256v-256-256h-256-256z" fill="#007acc"/><g fill="#fff"><path d="m113.2 257.68-.14 20.9h33.39 33.39v94.68 94.68h23.57 23.57v-94.68-94.68h33.24 33.39v-20.62c0-11.36-.28-20.9-.56-21.18s-40.82-.42-89.92-.42l-89.49.28z"/><path d="m413.11 236.22c13.05 3.23 22.86 8.98 31.98 18.52 4.77 5.05 11.64 14.17 12.2 16.41.14.7-22.16 15.57-35.63 23.99-.42.28-2.38-1.82-4.63-5.05-6.59-9.54-13.47-13.75-23.99-14.45-15.57-1.12-25.53 7.01-25.39 20.62 0 3.93.56 6.31 2.24 9.54 3.37 7.01 9.82 11.36 29.6 19.92 36.61 15.71 52.32 26.23 62.14 40.96 10.94 16.55 13.33 42.78 5.89 62.42-8.14 21.32-28.34 35.77-56.67 40.54-8.84 1.54-29.6 1.26-39-.42-20.62-3.65-40.12-13.75-52.04-27.21-4.77-5.19-13.89-18.8-13.33-19.78.28-.28 2.38-1.68 4.77-2.95 2.24-1.26 10.94-6.31 19.08-10.94l14.73-8.56 3.09 4.49c4.35 6.59 13.75 15.57 19.36 18.66 16.27 8.56 38.72 7.43 49.8-2.52 4.77-4.35 6.73-8.84 6.73-15.29 0-5.89-.7-8.56-3.79-13.05-3.93-5.75-12.06-10.52-35.21-20.48-26.37-11.36-37.73-18.52-48.25-29.6-6.03-6.45-11.64-16.97-14.03-25.53-1.96-7.29-2.38-25.39-.84-32.68 5.47-25.53 24.69-43.34 52.46-48.53 8.99-1.83 29.89-1.27 38.73.97z"/></g></svg>