<svg enable-background="new 0 0 512 512" viewBox="0 0 512 512" xmlns="http://www.w3.org/2000/svg"><path d="m256 0c-140.3 0-253.8 114.6-253.8 256s113.5 256 253.8 256c140.2 0 253.8-114.6 253.8-256s-113.6-256-253.8-256zm0 11.3c64.8 0 125.7 25.5 171.6 71.7 45.7 46 71.2 108.3 71.1 173.1 0 65.3-25.3 126.8-71.1 173.1-45.3 45.8-107.1 71.6-171.6 71.6-64.5.1-126.3-25.7-171.6-71.7-45.7-46-71.3-108.3-71.2-173.1 0-65.3 25.3-126.8 71.1-173.1 45.3-46 107.2-71.8 171.7-71.6zm-12.7 90c-41.3 11.1-79.6 32.3-130.6 90.8-51 58.6-41.4 106.9-41.4 106.9s14.1-33.3 47.9-68.3c16.1-16.6 28-22.2 36.3-22.2 7.3-.4 13.5 5.5 13.5 12.8v118.8c0 11.8-7.6 14.3-14.6 14.2-5.9-.1-11.4-2.2-11.4-2.2 34.8 50.5 117.9 57.6 117.9 57.6l36.5-39 .8.8 33.4 28.5c61.2-36.3 90.7-103.7 90.7-103.7-27.3 28.8-44.7 35.6-55 35.6-9.2-.1-12.8-5.4-12.8-5.4-.5-2.5-1.3-38.7-1.7-74.8-.3-37.4 0-74.9 1.8-75 10.6-19.8 44.3-59.8 44.3-59.8-62.9 12.4-97.2 53.7-97.2 53.7-10.2-8-30.8-6.7-30.8-6.7 9.7 5.3 19.3 20.8 19.3 33.7v126.3s-21.1 18.6-37.3 18.6c-9.7 0-15.6-5.3-18.8-9.6-1.3-1.7-2.3-3.5-3.2-5.5v-156c-2.3 1.7-5 2.6-7.7 2.7-3.5 0-7.1-1.7-9.5-6.8-1.8-3.8-3-9.6-3-18 .1-28.9 32.6-48 32.6-48z"/></svg>