<svg enable-background="new 0 0 512 512" viewBox="0 0 512 512" xmlns="http://www.w3.org/2000/svg"><path d="m147.71 28.31c-13.88 0-27.34 7.85-34.35 19.91l-108.11 187.89c-6.87 12.06-6.87 27.62 0 39.68l108.25 188.03c7.01 11.92 20.47 19.77 34.35 19.91h216.49c13.88 0 27.34-7.85 34.35-19.91l108.25-188.03c6.87-12.06 6.87-27.62 0-39.68l-108.24-188.03c-7.01-11.92-20.47-19.77-34.35-19.91h-216.64zm1.97 110.07h.84 37.3c1.68 0 3.22.98 4.07 2.38l63.38 112.87c.28.56.56 1.12.56 1.82.14-.7.28-1.26.56-1.82l63.24-112.87c.84-1.54 2.52-2.38 4.21-2.38h37.3c3.37 0 5.75 4.21 4.21 7.15l-61.55 110.49 61.84 110.49c1.68 2.94-.84 7.29-4.21 7.29h-37.3c-1.68 0-3.37-.98-4.21-2.52l-63.26-112.88c-.28-.56-.56-1.12-.56-1.82-.14.7-.28 1.26-.56 1.82l-63.38 112.87c-.84 1.54-2.38 2.52-4.07 2.52h-37.3c-3.37 0-5.89-4.35-4.21-7.29l61.84-110.49-61.84-110.63c-1.67-2.65.15-6.44 3.1-7z" fill="#3498db"/></svg>