<svg enable-background="new 0 0 512 512" viewBox="0 0 512 512" xmlns="http://www.w3.org/2000/svg"><path d="m78.9 333.5-26.8 9.8-1.4 79.7 92.7-33.9c-31.8-10.6-55-29.4-64.5-55.6" fill="#fdbd39"/><path d="m92.9 249.3-92.9 33.9 52.1 60.1 26.8-9.8c-9.4-26-3.6-55.4 14-84.2" fill="#f69833"/><path d="m249.3 134.3c-118.3 43.2-194.6 132.4-170.4 199.2l428.6-156.5c-24.3-66.8-139.8-85.9-258.2-42.7" fill="#fecf33"/><path d="m337.1 376.2c118.3-43.2 194.7-132 170.4-199.2l-428.6 156.5c24.4 67.3 139.8 86 258.2 42.7" fill="#ee6723"/><path d="m507.5 177-428.6 156.5c8.4 23.1 40.4 34.5 85.3 34.5 43.8 0 99.8-10.8 158.2-32.2 118.4-43.1 201.6-113.1 185.1-158.8" fill="#f69833"/><path d="m422.2 142.4c-43.8 0-99.8 10.8-158.2 32.2-118.3 43.2-201.6 113.2-185 158.9l428.5-156.5c-8.4-23.2-40.4-34.6-85.3-34.6" fill="#fdbd39"/><g fill="#ee6723"><path d="m398.5 427.2c-12.6 0-31.2-11.4-55.3-33.8-28.5-26.6-61.1-65.5-91.9-109.6s-56-88.2-71.2-124.1c-16.5-39.2-18.8-63.3-7-71.6 2.6-1.8 5.7-2.8 9.3-2.8 9.6 0 28.4 7.2 63.2 41.4l.8.7-.1 1.1c-.2 2.5-.5 4.9-.7 7.4l-.4 4.8-3.4-3.4c-37.4-37.7-53.9-41.8-59.3-41.8-1.5 0-2.7.3-3.6.9-5.1 3.6-5.5 21.3 10.5 59.3 14.9 35.3 39.8 78.7 70.1 122.3 30.4 43.5 62.5 81.9 90.5 108 30.2 28.1 43.8 31.2 48.2 31.2 1.5 0 2.8-.3 3.7-1 5.4-3.8 5.4-22.8-12.4-63.7l-.8-1.9 1.8-1c1.8-1 3.5-1.9 5.2-2.9l2.1-1.2 1 2.3c12.6 29 24.5 65.8 9 76.7-2.5 1.8-5.7 2.7-9.3 2.7zm0-4.4v2.2z"/><path d="m339.9 375-.2 2.2c-3 37-10.9 81.5-31.4 83.3-.4 0-.8.1-1.3.1-14 0-27.2-20-39.2-59.4-11.4-37.3-20.3-87.4-25-141s-4.6-104.5.2-143.2c5.2-42.2 15.2-64.3 29.6-65.5.4 0 .9-.1 1.3-.1 10.1 0 25.4 11.5 41 64.8l-10.2 2c-5.2-17.8-10.9-32.4-16.5-42.3-5.2-9.3-10.2-14.3-14.2-14.3h-.4c-6.2.5-15.4 15.7-20.4 56.6-4.7 38-4.8 88.1-.2 141.1 4.6 52.9 13.3 102.3 24.6 138.9 5 16.4 10.5 29.9 15.9 39.1 5 8.5 9.8 13.1 13.6 13.1h.4c6-.5 17.2-16.3 22-71.8z"/></g></svg>