<svg height="800" viewBox="0 0 392.541 392.541" width="800" xmlns="http://www.w3.org/2000/svg"><path d="m333.898 216.477h-15.515c-5.948 0-10.796-4.848-10.796-10.796 0-5.947 4.848-10.796 10.796-10.796h15.515c-5.236-67.491-59.281-121.471-126.707-126.707v15.515c0 5.947-4.848 10.796-10.796 10.796s-10.796-4.848-10.796-10.796v-15.58c-67.491 5.236-121.471 59.281-126.707 126.707h15.515c5.947 0 10.796 4.848 10.796 10.796 0 5.947-4.848 10.796-10.796 10.796h-15.709c5.236 67.491 59.281 121.471 126.707 126.707v-15.451c0-5.947 4.848-10.796 10.796-10.796 5.947 0 10.796 4.848 10.796 10.796v15.515c67.62-5.236 121.535-59.28 126.901-126.706z" fill="#fff"/><path d="m196.266 321.98c-64.129 0-116.364-52.17-116.364-116.364 0-64.129 52.17-116.364 116.364-116.364s116.364 52.234 116.364 116.364c-.001 64.194-52.17 116.364-116.364 116.364z" fill="#ffc10d"/><path d="m112.161 44.452c10.667-10.667 7.176-26.505-3.556-33.552-25.923-16.485-58.57-13.123-78.481 2.78l-7.111-7.11c-4.331-4.267-11.119-4.267-15.386 0s-4.267 11.119 0 15.321l6.982 6.982c-16.614 22.884-18.101 54.367-2.65 78.739 6.723 11.055 23.079 13.834 33.616 3.556zm-82.101 51.394c-11.83-18.747-9.051-44.024 6.853-59.992 18.941-16.614 39.046-18.23 60.121-6.723z" fill="#194f82"/><path d="m377.922 28.873 6.982-6.982c4.267-4.267 4.267-11.119 0-15.321-4.267-4.267-11.119-4.267-15.321 0l-7.111 7.111c-20.04-15.903-52.622-19.329-78.61-2.844-10.667 7.111-14.158 22.95-3.556 33.552l66.715 66.715c10.408 10.343 26.893 7.499 33.616-3.556 15.386-24.308 13.899-55.791-2.715-78.675zm-15.45 66.973-66.974-66.586c21.075-11.572 41.18-9.891 60.121 6.723 15.903 15.839 18.683 41.116 6.853 59.863z" fill="#194f82"/><path d="m30.06 95.846 66.973-66.586c-21.075-11.572-41.18-9.891-60.121 6.723-15.903 15.839-18.683 41.116-6.852 59.863z" fill="#56ace0"/><path d="m295.498 29.196 66.974 66.586c11.83-18.747 8.986-44.024-6.853-59.992-18.941-16.485-39.046-18.166-60.121-6.594z" fill="#56ace0"/><g fill="#194f82"><path d="m196.266 116.145c-5.947 0-10.796 4.848-10.796 10.796v67.749h-36.396c-5.947 0-10.796 4.848-10.796 10.796s4.848 10.796 10.796 10.796h47.192c5.947 0 10.796-4.848 10.796-10.796v-78.481c.129-5.947-4.784-10.86-10.796-10.86z"/><path d="m356.007 205.681c0-88.113-71.628-159.741-159.741-159.741s-159.742 71.628-159.742 159.741c0 59.281 32.453 111.063 80.549 138.602l-29.93 29.737c-4.267 4.267-4.267 11.119 0 15.321 4.267 4.267 11.055 4.267 15.321 0l35.362-35.232c18.166 7.176 37.883 11.119 58.505 11.119s40.339-4.008 58.505-11.119l35.362 35.232c4.267 4.267 11.119 4.267 15.321 0 4.267-4.267 4.267-11.119 0-15.321l-29.931-29.802c47.967-27.539 80.419-79.321 80.419-138.537zm-148.816 137.503v-15.515c0-5.947-4.848-10.796-10.796-10.796-5.947 0-10.796 4.848-10.796 10.796v15.515c-67.491-5.236-121.471-59.281-126.707-126.707h15.515c5.947 0 10.796-4.848 10.796-10.796 0-5.947-4.848-10.796-10.796-10.796h-15.709c5.236-67.491 59.281-121.471 126.707-126.707v15.515c0 5.947 4.848 10.796 10.796 10.796 5.947 0 10.796-4.848 10.796-10.796v-15.58c67.491 5.236 121.471 59.281 126.707 126.707h-15.515c-5.947 0-10.796 4.848-10.796 10.796 0 5.947 4.848 10.796 10.796 10.796h15.515c-5.172 67.491-59.087 121.535-126.513 126.772z"/></g></svg>