<svg height="800" viewBox="0 0 32 32" width="800" xmlns="http://www.w3.org/2000/svg"><path d="m0 16v-9.984q0-2.496 1.76-4.256t4.256-1.76h13.984q1.952 0 3.488 1.12t2.144 2.88h-15.616q-2.496 0-4.256 1.76t-1.76 4.256v11.616q-1.76-.608-2.88-2.144t-1.12-3.488zm6.016 4v-8q0-2.464 1.728-4.224t4.256-1.76h14.016q2.464 0 4.224 1.76t1.76 4.224v8q0 2.496-1.76 4.256t-4.224 1.76l-4 5.984-4-5.984h-6.016q-2.496 0-4.256-1.76t-1.728-4.256zm4 0q0 .832.576 1.44t1.408.576h7.328l2.688 4 2.656-4h1.344q.8 0 1.408-.576t.576-1.44v-8q0-.832-.576-1.408t-1.408-.576h-14.016q-.832 0-1.408.576t-.576 1.408z"/></svg>