<svg height="800" viewBox="0 0 392.663 392.663" width="800" xmlns="http://www.w3.org/2000/svg"><path d="m370.23 314.117c.905-.453.129-185.923.129-185.923h-348.25v231.628c0 6.012 4.848 10.925 10.925 10.925h237.576l21.786-7.758" fill="#fff"/><path d="m370.424 32.711c0-6.012-4.848-10.925-10.925-10.925h-326.529c-6.012 0-10.925 4.848-10.925 10.925v73.826h348.251v-73.826z" fill="#56ace0"/><path d="m270.61 348.962v-24.048c0-6.012 4.848-10.925 10.925-10.925h67.168v-185.795h-304.808v220.768z" fill="#ffc10d"/><path d="m91.475 53.204c-6.012 0-10.925 4.848-10.925 10.925s4.848 10.796 10.925 10.796c6.012 0 10.925-4.848 10.925-10.925 0-5.947-4.913-10.796-10.925-10.796z" fill="#fff"/><path d="m301.059 53.204c-6.012 0-10.925 4.848-10.925 10.925s4.848 10.796 10.925 10.796 10.925-4.848 10.925-10.925c-.065-5.947-4.913-10.796-10.925-10.796z" fill="#fff"/><g fill="#194f82"><path d="m245.398 149.915h-19.329c-6.012 0-10.925 4.848-10.925 10.925s4.848 10.925 10.925 10.925h19.329c6.012 0 10.925-4.848 10.925-10.925s-4.913-10.925-10.925-10.925z"/><path d="m324.461 149.915h-19.329c-6.012 0-10.925 4.848-10.925 10.925s4.848 10.925 10.925 10.925h19.329c6.012 0 10.925-4.848 10.925-10.925s-4.913-10.925-10.925-10.925z"/><path d="m87.337 201.956h-19.329c-6.012 0-10.925 4.848-10.925 10.925 0 6.012 4.848 10.925 10.925 10.925h19.329c6.012 0 10.925-4.848 10.925-10.925-.064-6.012-4.913-10.925-10.925-10.925z"/><path d="m166.335 201.956h-19.329c-6.012 0-10.925 4.848-10.925 10.925 0 6.012 4.848 10.925 10.925 10.925h19.329c6.012 0 10.925-4.848 10.925-10.925.001-6.012-4.848-10.925-10.925-10.925z"/><path d="m166.335 149.915h-19.329c-6.012 0-10.925 4.848-10.925 10.925s4.848 10.925 10.925 10.925h19.329c6.012 0 10.925-4.848 10.925-10.925s-4.848-10.925-10.925-10.925z"/><path d="m245.398 201.956h-19.329c-6.012 0-10.925 4.848-10.925 10.925 0 6.012 4.848 10.925 10.925 10.925h19.329c6.012 0 10.925-4.848 10.925-10.925 0-6.012-4.913-10.925-10.925-10.925z"/><path d="m324.461 201.956h-19.329c-6.012 0-10.925 4.848-10.925 10.925 0 6.012 4.848 10.925 10.925 10.925h19.329c6.012 0 10.925-4.848 10.925-10.925 0-6.012-4.913-10.925-10.925-10.925z"/><path d="m87.337 254.125h-19.329c-6.012 0-10.925 4.848-10.925 10.925 0 6.012 4.848 10.925 10.925 10.925h19.329c6.012 0 10.925-4.848 10.925-10.925-.064-6.012-4.913-10.925-10.925-10.925z"/><path d="m166.335 254.125h-19.329c-6.012 0-10.925 4.848-10.925 10.925 0 6.012 4.848 10.925 10.925 10.925h19.329c6.012 0 10.925-4.848 10.925-10.925.001-6.012-4.848-10.925-10.925-10.925z"/><path d="m245.398 254.125h-19.329c-6.012 0-10.925 4.848-10.925 10.925 0 6.012 4.848 10.925 10.925 10.925h19.329c6.012 0 10.925-4.848 10.925-10.925 0-6.012-4.913-10.925-10.925-10.925z"/><path d="m324.461 254.125h-19.329c-6.012 0-10.925 4.848-10.925 10.925 0 6.012 4.848 10.925 10.925 10.925h19.329c6.012 0 10.925-4.848 10.925-10.925 0-6.012-4.913-10.925-10.925-10.925z"/><path d="m87.337 306.23h-19.329c-6.012 0-10.925 4.848-10.925 10.925 0 6.012 4.848 10.925 10.925 10.925h19.329c6.012 0 10.925-4.848 10.925-10.925-.064-6.076-4.913-10.925-10.925-10.925z"/><path d="m166.335 306.23h-19.329c-6.012 0-10.925 4.848-10.925 10.925 0 6.012 4.848 10.925 10.925 10.925h19.329c6.012 0 10.925-4.848 10.925-10.925s-4.848-10.925-10.925-10.925z"/><path d="m91.475 31.418c-18.036 0-32.711 14.675-32.711 32.711s14.674 32.711 32.711 32.711 32.711-14.675 32.711-32.711-14.675-32.711-32.711-32.711zm0 43.507c-6.012 0-10.925-4.848-10.925-10.925s4.848-10.925 10.925-10.925 10.925 4.848 10.925 10.925-4.913 10.925-10.925 10.925z"/><path d="m301.059 31.418c-18.036 0-32.711 14.675-32.711 32.711s14.675 32.711 32.711 32.711 32.711-14.675 32.711-32.711-14.74-32.711-32.711-32.711zm0 43.507c-6.012 0-10.925-4.848-10.925-10.925s4.848-10.925 10.925-10.925c6.012 0 10.925 4.848 10.925 10.925s-4.913 10.925-10.925 10.925z"/><path d="m359.564 0h-326.594c-17.972 0-32.582 14.675-32.582 32.711v327.24c0 18.036 14.675 32.711 32.711 32.711h242.812c5.624 0 11.119-1.487 15.968-4.202l83.782-47.127c10.279-5.818 16.614-16.679 16.614-28.444v-280.178c-.13-18.036-14.74-32.711-32.711-32.711zm-337.455 32.711c0-6.012 4.848-10.925 10.925-10.925h326.465c6.012 0 10.925 4.848 10.925 10.925v73.697h-348.315zm270.287 330.279v-27.216h48.226zm77.834-48.873h-88.76c-6.012 0-10.925 4.848-10.925 10.925v45.77h-237.575c-6.012 0-10.925-4.849-10.925-10.925v-231.693h348.251c.128 0-.001 185.471-.066 185.923z"/></g><path d="m292.396 335.903v27.087l48.226-27.087z" fill="#fff"/></svg>