<svg height="800" viewBox="0 0 392.533 392.533" width="800" xmlns="http://www.w3.org/2000/svg"><path d="m348.994 231.887h-95.289c-12.024 0-21.786 9.826-21.786 21.786v95.224c0 12.024 9.826 21.786 21.786 21.786h95.224c12.024 0 21.786-9.826 21.786-21.786v-95.224c.065-11.96-9.762-21.786-21.721-21.786z" fill="#56ace0"/><path d="m138.893 231.887h-95.289c-12.024 0-21.786 9.826-21.786 21.786v95.224c0 12.024 9.826 21.786 21.786 21.786h95.224c12.024 0 21.786-9.826 21.786-21.786v-95.224c.065-11.96-9.762-21.786-21.721-21.786z" fill="#fff"/><path d="m148.719 21.786c-12.024 0-21.786 9.826-21.786 21.786v95.224c0 12.024 9.826 21.786 21.786 21.786h95.224c12.024 0 21.786-9.826 21.786-21.786v-95.224c0-12.024-9.826-21.786-21.786-21.786z" fill="#ffc10d"/><g fill="#194f82"><path d="m138.893 392.533h-95.289c-24.048 0-43.572-19.523-43.572-43.572v-95.224c0-24.048 19.523-43.572 43.572-43.572h95.224c24.048 0 43.572 19.523 43.572 43.572v95.224c.065 24.049-19.459 43.572-43.507 43.572zm-95.289-160.581c-12.024 0-21.786 9.826-21.786 21.786v95.224c0 12.024 9.826 21.786 21.786 21.786h95.224c12.024 0 21.786-9.826 21.786-21.786v-95.224c0-12.024-9.826-21.786-21.786-21.786z"/><path d="m348.994 392.533h-95.289c-24.048 0-43.572-19.523-43.572-43.572v-95.224c0-24.048 19.523-43.572 43.572-43.572h95.224c24.048 0 43.572 19.523 43.572 43.572v95.224c.065 24.049-19.459 43.572-43.507 43.572zm-95.289-160.581c-12.024 0-21.786 9.826-21.786 21.786v95.224c0 12.024 9.826 21.786 21.786 21.786h95.224c12.024 0 21.786-9.826 21.786-21.786v-95.224c0-12.024-9.826-21.786-21.786-21.786z"/><path d="m237.414 129.81c1.551 6.594-2.715 11.442-7.758 11.442-3.297 0-6.4-2.004-7.758-5.301l-6.271-15.58h-38.787l-6.335 15.58c-1.293 3.297-4.396 5.301-7.758 5.301-4.848 0-10.149-5.947-7.758-11.442l33.358-83.459c1.293-3.168 4.396-5.301 7.887-5.301 3.297 0 6.4 2.133 7.758 5.301zm-28.444-26.052-12.606-31.935-12.735 31.935z"/><path d="m243.879 0h-95.16c-24.048 0-43.572 19.523-43.572 43.572v95.224c0 24.048 19.523 43.572 43.572 43.572h95.224c24.048 0 43.572-19.523 43.572-43.572v-95.224c-.065-24.049-19.588-43.572-43.636-43.572zm21.786 138.796c0 12.024-9.826 21.786-21.786 21.786h-95.16c-12.024 0-21.786-9.826-21.786-21.786v-95.224c0-12.024 9.826-21.786 21.786-21.786h95.224c12.024 0 21.786 9.826 21.786 21.786v95.224z"/><path d="m111.741 294.141c2.844-4.331 4.396-9.762 4.396-15.774.323-16.614-11.766-26.57-27.022-27.216h-23.014c-4.59 0-8.275 3.685-8.275 8.275v83.588c0 4.59 3.685 8.275 8.275 8.275h29.22c13.446 0 29.349-12.024 29.349-31.354.001-11.183-4.589-20.363-12.929-25.794zm-37.171-26.181h14.61s10.408.84 10.408 10.408c0 10.02-10.408 10.408-12.606 10.408h-12.412zm19.717 66.715h-19.717v-29.22h19.717c10.279 0 13.446 9.244 13.576 14.61.517 14.545-13.382 14.61-13.576 14.61z"/><path d="m339.555 334.093c2.133 4.008.517 9.051-3.426 11.313-7.24 3.879-15.451 6.012-23.855 6.012-27.604 0-50.101-22.497-50.101-50.101s22.497-50.101 50.101-50.101c8.404 0 16.614 2.133 23.855 6.012 4.008 2.327 5.56 7.24 3.426 11.313-2.327 4.202-7.24 5.56-11.442 3.426-4.719-2.715-10.279-4.008-15.903-4.008-18.295 0-33.358 14.933-33.358 33.358 0 18.489 14.998 33.358 33.358 33.358 5.56 0 11.119-1.293 15.903-4.008 4.202-2.134 9.18-.711 11.442 3.426z"/></g></svg>