<svg height="800" viewBox="0 0 32 32" width="800" xmlns="http://www.w3.org/2000/svg"><path d="m0 7.008q0 1.856.992 3.52 1.184-3.328 3.712-5.824t5.824-3.712q-1.696-.992-3.52-.992-2.912 0-4.96 2.08t-2.048 4.928zm2.016 8.992q0 2.784 1.056 5.312t2.944 4.48v4.224q0 .832.576 1.408t1.408.576 1.408-.576.608-1.408v-1.408q2.912 1.408 5.984 1.408t6.016-1.408v1.408q0 .832.576 1.408t1.408.576 1.408-.576.608-1.408v-4.224q1.888-1.952 2.944-4.448t1.056-5.344-1.12-5.44-2.976-4.48-4.48-2.976-5.44-1.12-5.44 1.12-4.48 2.976-2.976 4.48-1.088 5.44zm4 0q0-2.048.768-3.872t2.144-3.2 3.2-2.144 3.872-.8q2.72 0 5.024 1.344t3.648 3.648 1.344 5.024q0 2.016-.8 3.872t-2.144 3.2-3.2 2.144-3.872.768q-2.72 0-5.024-1.312t-3.616-3.648-1.344-5.024zm8 0q0 .832.576 1.408t1.408.576h4q.832 0 1.408-.576t.608-1.408-.608-1.408-1.408-.608h-1.984v-1.984q0-.832-.608-1.408t-1.408-.608-1.408.608-.576 1.408zm7.456-15.008q3.328 1.216 5.824 3.712t3.712 5.824q.992-1.664.992-3.52 0-2.88-2.048-4.928t-4.96-2.08q-1.824 0-3.52.992z"/></svg>