<svg height="800" viewBox="0 0 32 32" width="800" xmlns="http://www.w3.org/2000/svg"><path d="m0 26.016v-20q0-2.496 1.76-4.256t4.256-1.76h20q2.464 0 4.224 1.76t1.76 4.256v20q0 2.496-1.76 4.224t-4.224 1.76h-20q-2.496 0-4.256-1.76t-1.76-4.224zm4 0q0 .832.576 1.408t1.44.576h20q.8 0 1.408-.576t.576-1.408v-20q0-.832-.576-1.408t-1.408-.608h-20q-.832 0-1.44.608t-.576 1.408zm4-8h2.016v-2.016h-2.016zm0-8h2.016v-2.016h-2.016zm2.016 5.984h1.984v-1.984h-1.984zm0-4h1.984v-1.984h-1.984zm1.984 2.016h2.016v-2.016h-2.016zm2.016 4h5.984v-2.016h-5.984z"/></svg>