<svg height="800" viewBox="0 0 508 508" width="800" xmlns="http://www.w3.org/2000/svg"><path d="m254 28.2c-124.5 0-225.8 101.3-225.8 225.8s101.3 225.8 225.8 225.8 225.8-101.3 225.8-225.8-101.3-225.8-225.8-225.8z" fill="#fff"/><path d="m254 451.6c-108.9 0-197.6-88.6-197.6-197.6s88.7-197.6 197.6-197.6 197.6 88.6 197.6 197.6-88.7 197.6-197.6 197.6z" fill="#ffc10d"/><path d="m207.4 345.6c3.9 0 7.6-1.3 10.8-3.9l93.4-73.8c4.3-3.4 6.7-8.4 6.7-13.9s-2.4-10.5-6.7-13.9l-93.4-73.8c-3.2-2.6-6.9-3.9-10.8-3.9-8.8 0-17.8 6.6-17.8 17.7v147.7c0 11.1 9.1 17.8 17.8 17.8z" fill="#56ace0"/><g fill="#194f82"><path d="m254 0c-140.1 0-254 113.9-254 254s113.9 254 254 254 254-113.9 254-254-113.9-254-254-254zm0 479.8c-124.5 0-225.8-101.3-225.8-225.8s101.3-225.8 225.8-225.8 225.8 101.3 225.8 225.8-101.3 225.8-225.8 225.8z"/><path d="m329.2 218-93.4-73.8c-8.2-6.5-18-10-28.3-10-25.4 0-46 20.6-46 46v147.7c0 25.3 20.7 46 46 46 10.3 0 20.1-3.4 28.3-9.9l93.4-73.8c11.1-8.8 17.4-21.9 17.4-36 0-14.3-6.3-27.4-17.4-36.2zm-17.5 49.9-93.4 73.8c-3.2 2.6-6.9 3.9-10.8 3.9-8.8 0-17.8-6.6-17.8-17.7v-17.4h22c7.8 0 14.1-6.3 14.1-14.1s-6.3-14.1-14.1-14.1h-22v-28.3h64.3c7.8 0 14.1-6.3 14.1-14.1s-6.3-14.1-14.1-14.1h-64.4v-45.6c0-11.1 9.1-17.7 17.8-17.7 3.9 0 7.6 1.3 10.8 3.9l93.4 73.8c4.3 3.4 6.7 8.4 6.7 13.9.1 5.3-2.4 10.4-6.6 13.8z"/></g></svg>