<svg height="800" viewBox="0 0 392.598 392.598" width="800" xmlns="http://www.w3.org/2000/svg"><path d="m245.689 307.006c4.267-4.267 4.267-11.119 0-15.451l-38.465-38.465v-44.994c0-6.012-4.848-10.925-10.925-10.925s-10.925 4.848-10.925 10.925v44.994l-38.465 38.465c-4.267 4.267-4.267 11.119 0 15.451 4.267 4.267 11.119 4.267 15.451 0l33.939-33.939 33.939 33.939c5.366 4.331 10.602 4.073 15.451 0z" fill="#194f82"/><path d="m196.299 56.954c9.632 0 17.519-7.887 17.519-17.519s-7.887-17.648-17.519-17.648-17.648 7.887-17.648 17.648c0 9.632 8.016 17.519 17.648 17.519z" fill="#ffc10d"/><path d="m254.933 140.089c0-2.909-1.228-5.624-3.297-7.37-15.515-12.735-35.297-19.782-55.467-19.782-20.234 0-39.952 7.046-55.467 19.782-2.069 1.681-3.297 4.461-3.297 7.37v14.352h117.657v-14.352z" fill="#56ace0"/><path d="m80.84 273.261c9.632 0 17.519-7.887 17.519-17.519s-7.887-17.519-17.519-17.519-17.519 7.887-17.519 17.519 7.887 17.519 17.519 17.519z" fill="#fff"/><path d="m139.475 356.396c0-2.909-1.228-5.624-3.297-7.37-15.58-12.8-35.297-19.846-55.467-19.846-20.234 0-39.952 7.046-55.467 19.782-2.069 1.681-3.297 4.461-3.297 7.37v14.352h117.657v-14.287h-.129z" fill="#ffc10d"/><path d="m312.145 273.261c9.632 0 17.519-7.887 17.519-17.519s-7.887-17.519-17.519-17.519-17.584 7.822-17.584 17.455c-.064 9.696 7.823 17.583 17.584 17.583z" fill="#ffc10d"/><path d="m370.78 356.396c0-2.844-1.228-5.624-3.297-7.37-15.515-12.735-35.297-19.782-55.467-19.782s-39.952 7.046-55.467 19.782c-2.069 1.681-3.297 4.461-3.297 7.37v14.352h117.657v-14.352z" fill="#56ace0"/><g fill="#194f82"><path d="m196.299 78.739c21.721 0 39.434-17.713 39.434-39.434s-17.713-39.305-39.434-39.305-39.434 17.713-39.434 39.434 17.713 39.305 39.434 39.305zm0-56.953c9.632 0 17.519 7.887 17.519 17.648 0 9.632-7.887 17.519-17.519 17.519s-17.648-7.887-17.648-17.519c0-9.761 8.016-17.648 17.648-17.648z"/><path d="m126.352 176.226h139.507c6.012 0 10.925-4.848 10.925-10.925v-25.277c0-9.503-4.073-18.295-11.378-24.242-19.459-15.903-44.024-24.76-69.301-24.76s-49.842 8.792-69.301 24.76c-7.176 5.883-11.378 14.739-11.378 24.242v25.277c.065 6.077 4.913 10.925 10.926 10.925zm10.925-36.137c0-2.909 1.228-5.624 3.297-7.37 15.515-12.735 35.297-19.782 55.467-19.782 20.234 0 39.952 7.046 55.467 19.782 2.069 1.681 3.297 4.461 3.297 7.37v14.352h-117.528z"/><path d="m80.84 295.046c21.721 0 39.434-17.713 39.434-39.434s-17.713-39.434-39.434-39.434-39.434 17.713-39.434 39.434c.129 21.721 17.713 39.434 39.434 39.434zm0-56.953c9.632 0 17.519 7.887 17.519 17.519s-7.887 17.519-17.519 17.519-17.519-7.887-17.519-17.519 7.887-17.519 17.519-17.519z"/><path d="m150.012 332.089c-19.459-15.903-44.024-24.76-69.301-24.76s-49.842 8.857-69.301 24.76c-7.305 5.883-11.378 14.804-11.378 24.307v25.277c0 6.012 4.848 10.925 10.925 10.925h139.443c6.012 0 10.925-4.848 10.925-10.925v-25.277c0-9.503-4.137-18.424-11.313-24.307zm-128.194 24.307c0-2.909 1.228-5.624 3.297-7.37 15.515-12.735 35.297-19.782 55.467-19.782 20.234 0 39.952 7.046 55.467 19.782 2.069 1.681 3.297 4.461 3.297 7.37v14.352h-117.528z"/><path d="m312.145 295.046c21.721 0 39.434-17.713 39.434-39.434s-17.713-39.434-39.434-39.434-39.434 17.713-39.434 39.434 17.713 39.434 39.434 39.434zm0-56.953c9.632 0 17.519 7.887 17.519 17.519s-7.887 17.519-17.519 17.519-17.584-7.887-17.584-17.519c-.064-9.632 7.823-17.519 17.584-17.519z"/><path d="m381.188 332.089c-19.459-15.903-44.024-24.76-69.301-24.76s-49.842 8.792-69.301 24.76c-7.176 5.883-11.378 14.739-11.378 24.242v25.277c0 6.012 4.848 10.925 10.925 10.925h139.507c6.012 0 10.925-4.848 10.925-10.925v-25.277c.001-9.438-4.072-18.359-11.377-24.242zm-128.065 24.307c0-2.844 1.228-5.624 3.297-7.37 15.515-12.735 35.297-19.782 55.467-19.782s39.952 7.046 55.467 19.782c2.069 1.681 3.297 4.461 3.297 7.37v14.352h-117.528z"/></g></svg>