<svg height="800" viewBox="0 0 32 32" width="800" xmlns="http://www.w3.org/2000/svg"><path d="m4 26.016q0 2.496 1.76 4.224t4.256 1.76h12q2.464 0 4.224-1.76t1.76-4.224q-.448-2.688-2.112-4.928t-4.096-3.552q2.208-2.368 2.208-5.536v-4q0-3.296-2.336-5.632t-5.664-2.368-5.664 2.368-2.336 5.632v4q0 3.168 2.208 5.536-2.4 1.344-4.064 3.552t-2.144 4.928zm4 0q.672-2.592 2.944-4.288t5.056-1.728 5.056 1.728 2.944 4.288q0 .832-.576 1.408t-1.408.576h-12q-.832 0-1.44-.576t-.576-1.408zm4-14.016v-4q0-1.632 1.184-2.816t2.816-1.184 2.816 1.184 1.184 2.816v4q0 1.664-1.184 2.848t-2.816 1.152-2.816-1.152-1.184-2.848z"/></svg>